<svg width="67" height="92" viewBox="0 0 67 92" fill="none" xmlns="http://www.w3.org/2000/svg">
<g clip-path="url(#clip0_8_59)">
<path d="M57 14.4667C57 12.5385 56.1601 10.6798 54.6817 9.30519C54.8415 8.89577 54.9258 8.45984 54.9258 8.00997V4.93019C54.9258 3.85266 54.4491 2.8529 53.5835 2.1151C52.7167 1.37624 51.5851 1.00558 50.3972 1.07284C48.1939 1.1967 46.7537 1.55836 44.7607 2.05881L44.5787 2.10451C43.9368 2.26554 43.3761 2.58257 42.94 3.0019C42.8448 2.8692 42.7276 2.7484 42.59 2.6445C42.1866 2.34004 41.6593 2.21512 41.1427 2.30172L39.279 2.61479C37.6975 2.8804 36.5498 4.13183 36.5498 5.59044V7.34971C36.5498 8.80825 37.6975 10.0597 39.2788 10.3253H39.2789L41.1426 10.6383C41.2501 10.6563 41.3579 10.6652 41.4652 10.6652C41.8729 10.6652 42.2702 10.5367 42.5898 10.2956C42.7275 10.1917 42.8446 10.0709 42.9399 9.93818C43.3761 10.3575 43.9367 10.6745 44.5787 10.8356L44.7605 10.8812C45.6334 11.1004 46.4003 11.293 47.1716 11.4506L44.758 15.2422C44.2055 16.1102 44.5345 17.2241 45.4915 17.7252L46.3162 18.157C46.625 18.3188 46.9677 18.4014 47.315 18.4013C47.489 18.4013 47.6643 18.3806 47.837 18.3386C48.3541 18.213 48.7863 17.9122 49.0539 17.4918L49.535 16.7361C49.7089 16.4628 49.6057 16.1134 49.3044 15.9557C49.0029 15.7979 48.6179 15.8915 48.444 16.1648L47.9629 16.9205C47.7578 17.2428 47.3013 17.3537 46.9461 17.1676L46.1215 16.7358C45.9493 16.6456 45.8261 16.5 45.7746 16.3258C45.7232 16.1516 45.7496 15.9696 45.8491 15.8135L48.4807 11.6794C49.0705 11.7639 49.6949 11.8279 50.3971 11.8673C50.4885 11.8724 50.5796 11.8751 50.6701 11.8751C50.8466 11.8751 51.0212 11.8643 51.1937 11.8452L49.7078 14.1795C49.5339 14.4527 49.6371 14.8021 49.9383 14.9599C50.0375 15.0118 50.1459 15.0365 50.2527 15.0365C50.4704 15.0365 50.6821 14.9341 50.7988 14.7508L53.0332 11.2407C53.039 11.2316 53.0437 11.2222 53.0489 11.213C53.2359 11.0977 53.415 10.9689 53.5834 10.8252C53.7524 10.6811 53.9061 10.5268 54.0448 10.3641C55.1297 11.495 55.7402 12.9555 55.7402 14.4667V15.1504C55.7402 17.0794 54.7438 18.913 53.0651 20.0923H17.935C16.2562 18.9129 15.2598 17.0793 15.2598 15.1503V14.4667C15.2598 12.9554 15.8703 11.4949 16.9552 10.3639C17.094 10.5266 17.2476 10.681 17.4167 10.825C17.5843 10.9679 17.7623 11.0962 17.9483 11.211C17.9489 11.2119 17.9493 11.2128 17.9499 11.2138L21.9462 17.4917C22.317 18.0741 22.9919 18.4002 23.6851 18.4001C24.0248 18.4001 24.369 18.3218 24.6838 18.157L25.5085 17.7252C26.4656 17.224 26.7946 16.1102 26.2421 15.2421L23.8284 11.4506C24.5998 11.293 25.3665 11.1004 26.2395 10.8812L26.4215 10.8355C27.0634 10.6745 27.6241 10.3574 28.0602 9.9381C28.1554 10.0708 28.2726 10.1916 28.4103 10.2955C28.7299 10.5366 29.1271 10.6652 29.5349 10.6652C29.6421 10.6652 29.7502 10.6563 29.8575 10.6382L31.7212 10.3252H31.7213C33.3025 10.0596 34.4503 8.80817 34.4503 7.34963V5.59044C34.4503 4.13183 33.3025 2.8804 31.7213 2.61487L29.8575 2.3018C29.3413 2.21534 28.8138 2.34011 28.4103 2.64457C28.2726 2.74847 28.1555 2.86928 28.0602 3.00197C27.6242 2.58265 27.0634 2.26562 26.4215 2.10459L26.2395 2.05889C24.2465 1.55844 22.8063 1.19677 20.6029 1.07292C20.5792 1.07155 20.5556 1.07086 20.532 1.07033L20.51 1.06964C20.1614 1.05662 19.8692 1.30227 19.8552 1.61747C19.8413 1.93275 20.1117 2.19859 20.4592 2.21131L20.4975 2.21245C20.5066 2.21268 20.5159 2.21276 20.525 2.21329C22.597 2.32983 23.9123 2.66011 25.9034 3.1601L26.0855 3.20588C27.0804 3.45542 27.7752 4.2825 27.7752 5.21697V7.72333C27.7752 8.65788 27.0804 9.48488 26.0855 9.73442L25.9034 9.7802C23.9123 10.2801 22.597 10.6105 20.525 10.727C18.8065 10.823 17.3342 9.59358 17.3342 8.00997V4.93019C17.3342 4.10875 17.7382 3.33941 18.4425 2.81954C18.7124 2.62035 18.753 2.26051 18.5335 2.01577C18.3139 1.77126 17.9173 1.73409 17.6473 1.93328C16.6477 2.67116 16.0743 3.76346 16.0743 4.93019V8.00989C16.0743 8.45976 16.1586 8.89569 16.3184 9.30504C14.8399 10.6797 14 12.5385 14 14.4667V15.1504C14 16.9875 14.7639 18.7515 16.0978 20.0971C14.9284 20.1662 14 21.0506 14 22.1285V32.2127C14 35.368 16.8303 37.935 20.3092 37.935H32.9816C33.3296 37.935 33.6115 37.6793 33.6115 37.3637C33.6115 37.0481 33.3296 36.7924 32.9816 36.7924H20.3092C17.525 36.7923 15.2598 34.7379 15.2598 32.2126V22.1285C15.2598 21.6357 15.7018 21.2348 16.2451 21.2348H28.6551L29.5588 22.9406C29.7839 23.3652 30.2648 23.6396 30.7843 23.6396H40.2159C40.7354 23.6396 41.2164 23.3651 41.4413 22.9406L42.345 21.2348H54.7549C55.2983 21.2348 55.7402 21.6357 55.7402 22.1285V32.2127C55.7402 34.7379 53.475 36.7924 50.6908 36.7924H35.5C35.1521 36.7924 34.8701 37.0481 34.8701 37.3637C34.8701 37.6793 35.1521 37.935 35.5 37.935H50.6908C54.1697 37.935 57 35.368 57 32.2127V22.1285C57 21.0507 56.0717 20.1662 54.9022 20.0971C56.2361 18.7514 57 16.9875 57 15.1503V14.4667ZM41.965 9.06746C41.965 9.25317 41.8517 9.36636 41.7842 9.41732C41.7166 9.46828 41.5738 9.54887 41.372 9.51482L39.5082 9.20183H39.5083C38.5239 9.03653 37.8096 8.2576 37.8096 7.34978V5.59044C37.8096 4.68255 38.5239 3.90354 39.5083 3.7384L41.372 3.42533C41.5739 3.39159 41.7167 3.47195 41.7842 3.52291C41.8518 3.57387 41.965 3.68706 41.965 3.87277V9.06746ZM50.4751 10.7269C48.403 10.6104 47.0877 10.2801 45.0966 9.78005L44.9146 9.73434C43.9197 9.48473 43.2249 8.65773 43.2249 7.72326V5.2169C43.2249 4.28234 43.9197 3.45542 44.9146 3.20581L45.0967 3.16003C47.0877 2.66011 48.4031 2.32976 50.4751 2.21321C50.5396 2.20963 50.6037 2.2078 50.6676 2.2078C51.434 2.2078 52.157 2.46702 52.7207 2.94766C53.3303 3.46731 53.666 4.17136 53.666 4.93019V8.00989C53.666 9.57873 52.2097 10.8242 50.4751 10.7269ZM29.035 3.87277C29.035 3.68706 29.1483 3.57395 29.2158 3.52291C29.2722 3.48033 29.3815 3.41718 29.5332 3.41718C29.5631 3.41718 29.5948 3.4197 29.628 3.42526L31.4918 3.73832C32.4761 3.90354 33.1904 4.68255 33.1904 5.59037V7.34963C33.1904 8.25752 32.4761 9.03646 31.4917 9.20168H31.4918L29.628 9.51467C29.4269 9.54841 29.2833 9.46805 29.2158 9.41709C29.1483 9.36613 29.035 9.25294 29.035 9.06731V3.87277ZM22.5194 11.6794L25.151 15.8135C25.3562 16.1359 25.234 16.5497 24.8786 16.7358L24.0539 17.1676C23.8816 17.2578 23.6811 17.2815 23.489 17.2351C23.297 17.1884 23.1365 17.0767 23.0371 16.9205L19.8063 11.8452C20.6007 11.9333 22.0249 11.7503 22.5194 11.6794ZM40.3058 22.4457C40.2893 22.4768 40.254 22.4969 40.2159 22.4969H30.7843C30.7461 22.4969 30.7107 22.4768 30.6942 22.4457L30.0528 21.2348H40.9474L40.3058 22.4457Z" fill="#0071E3"/>
<path d="M20.0226 5.2041H21.8152C22.1632 5.2041 22.4451 4.94839 22.4451 4.63281C22.4451 4.31723 22.1632 4.06152 21.8152 4.06152H20.0226C19.6746 4.06152 19.3927 4.31723 19.3927 4.63281C19.3927 4.94839 19.6746 5.2041 20.0226 5.2041Z" fill="#0071E3"/>
<path d="M50.9775 4.06152H49.1848C48.8369 4.06152 48.5549 4.31723 48.5549 4.63281C48.5549 4.94839 48.8369 5.2041 49.1848 5.2041H50.9775C51.3254 5.2041 51.6073 4.94839 51.6073 4.63281C51.6073 4.31723 51.3254 4.06152 50.9775 4.06152Z" fill="#0071E3"/>
<path d="M38.2515 27.9399C38.2515 27.6243 37.9695 27.3686 37.6216 27.3686H33.3785C33.0306 27.3686 32.7487 27.6243 32.7487 27.9399C32.7487 28.2555 33.0306 28.5112 33.3785 28.5112H37.6216C37.9695 28.5112 38.2515 28.2554 38.2515 27.9399Z" fill="#0071E3"/>
</g>
<path d="M9.11133 83.9668H3.50586L2.08984 88H0.244141L5.43945 73.9082H7.17773L12.373 88H10.5273L9.11133 83.9668ZM4.02344 82.4727H8.59375L6.33789 76.0469H6.2793L4.02344 82.4727ZM13.8672 77.4727H15.5664V88H13.8672V77.4727ZM14.7168 75.7734C14.5671 75.7734 14.4271 75.7474 14.2969 75.6953C14.1667 75.6367 14.0527 75.5586 13.9551 75.4609C13.8574 75.3633 13.7793 75.2493 13.7207 75.1191C13.6686 74.9889 13.6426 74.849 13.6426 74.6992C13.6426 74.5495 13.6686 74.4095 13.7207 74.2793C13.7793 74.1491 13.8574 74.0352 13.9551 73.9375C14.0527 73.8398 14.1667 73.765 14.2969 73.7129C14.4271 73.6543 14.5671 73.625 14.7168 73.625C14.8665 73.625 15.0065 73.6543 15.1367 73.7129C15.2669 73.765 15.3809 73.8398 15.4785 73.9375C15.5762 74.0352 15.651 74.1491 15.7031 74.2793C15.7617 74.4095 15.791 74.5495 15.791 74.6992C15.791 74.849 15.7617 74.9889 15.7031 75.1191C15.651 75.2493 15.5762 75.3633 15.4785 75.4609C15.3809 75.5586 15.2669 75.6367 15.1367 75.6953C15.0065 75.7474 14.8665 75.7734 14.7168 75.7734ZM17.9688 77.4727H19.5703V79.1816H19.6094C19.6875 78.9082 19.8047 78.6608 19.9609 78.4395C20.1237 78.2116 20.3158 78.0195 20.5371 77.8633C20.7585 77.707 21.0059 77.5866 21.2793 77.502C21.5592 77.4173 21.8522 77.375 22.1582 77.375C22.2624 77.375 22.3796 77.3815 22.5098 77.3945C22.64 77.4076 22.7409 77.4238 22.8125 77.4434V79.123C22.7409 79.0905 22.6139 79.0645 22.4316 79.0449C22.2493 79.0189 22.0833 79.0059 21.9336 79.0059C21.5885 79.0059 21.276 79.0677 20.9961 79.1914C20.7227 79.3086 20.485 79.4746 20.2832 79.6895C20.0879 79.9043 19.9349 80.1647 19.8242 80.4707C19.7201 80.7767 19.668 81.1152 19.668 81.4863V88H17.9688V77.4727ZM29.8535 73.9082C30.5176 73.9082 31.123 74.0189 31.6699 74.2402C32.2233 74.4616 32.6986 74.7708 33.0957 75.168C33.4993 75.5651 33.8118 76.0436 34.0332 76.6035C34.2546 77.1569 34.3652 77.7656 34.3652 78.4297C34.3652 79.1003 34.2513 79.7155 34.0234 80.2754C33.8021 80.8288 33.4896 81.3073 33.0859 81.7109C32.6888 82.1081 32.2135 82.4173 31.6602 82.6387C31.1068 82.86 30.498 82.9707 29.834 82.9707H26.2891V88H24.5312V73.9082H29.8535ZM26.2891 81.4082H29.3945C29.8958 81.4082 30.3418 81.3431 30.7324 81.2129C31.1296 81.0762 31.4616 80.8809 31.7285 80.627C32.002 80.3665 32.207 80.054 32.3438 79.6895C32.487 79.3184 32.5586 78.8984 32.5586 78.4297C32.5586 77.4922 32.2852 76.7663 31.7383 76.252C31.1914 75.7311 30.4102 75.4707 29.3945 75.4707H26.2891V81.4082ZM40.0195 88.0977C39.2773 88.0977 38.6068 87.9707 38.0078 87.7168C37.4154 87.4629 36.9076 87.1048 36.4844 86.6426C36.0612 86.1738 35.7357 85.6107 35.5078 84.9531C35.2799 84.2891 35.166 83.5501 35.166 82.7363C35.166 81.916 35.2799 81.1771 35.5078 80.5195C35.7357 79.8555 36.0612 79.2923 36.4844 78.8301C36.9076 78.3613 37.4154 78.0033 38.0078 77.7559C38.6068 77.502 39.2773 77.375 40.0195 77.375C40.7617 77.375 41.429 77.502 42.0215 77.7559C42.6204 78.0033 43.1315 78.3613 43.5547 78.8301C43.9779 79.2923 44.3034 79.8555 44.5312 80.5195C44.7591 81.1771 44.873 81.916 44.873 82.7363C44.873 83.5501 44.7591 84.2891 44.5312 84.9531C44.3034 85.6107 43.9779 86.1738 43.5547 86.6426C43.1315 87.1048 42.6204 87.4629 42.0215 87.7168C41.429 87.9707 40.7617 88.0977 40.0195 88.0977ZM40.0195 86.584C40.5078 86.584 40.944 86.4961 41.3281 86.3203C41.7188 86.1445 42.0475 85.8939 42.3145 85.5684C42.5879 85.2363 42.793 84.8327 42.9297 84.3574C43.0729 83.8822 43.1445 83.3418 43.1445 82.7363C43.1445 82.1309 43.0729 81.5905 42.9297 81.1152C42.793 80.64 42.5879 80.2363 42.3145 79.9043C42.0475 79.5723 41.7188 79.3216 41.3281 79.1523C40.944 78.9766 40.5078 78.8887 40.0195 78.8887C39.5312 78.8887 39.0918 78.9766 38.7012 79.1523C38.3171 79.3281 37.9883 79.582 37.7148 79.9141C37.4479 80.2396 37.2428 80.64 37.0996 81.1152C36.9629 81.5905 36.8945 82.1309 36.8945 82.7363C36.8945 83.3418 36.9661 83.8822 37.1094 84.3574C37.2526 84.8327 37.4577 85.2363 37.7246 85.5684C37.9915 85.8939 38.3171 86.1445 38.7012 86.3203C39.0918 86.4961 39.5312 86.584 40.0195 86.584ZM50.6543 88.0977C49.9902 88.0977 49.3815 87.9707 48.8281 87.7168C48.2812 87.4564 47.806 87.0918 47.4023 86.623C47.0052 86.1543 46.696 85.5911 46.4746 84.9336C46.2533 84.2695 46.1426 83.5371 46.1426 82.7363C46.1426 81.9355 46.2533 81.2064 46.4746 80.5488C46.696 79.8848 47.002 79.3184 47.3926 78.8496C47.7897 78.3809 48.2617 78.0195 48.8086 77.7656C49.3555 77.5052 49.9577 77.375 50.6152 77.375C51.3704 77.375 52.0378 77.5312 52.6172 77.8438C53.1966 78.1562 53.6491 78.6022 53.9746 79.1816H54.0137V73.293H55.7129V88H54.0918V86.2227H54.0625C53.7174 86.8346 53.2552 87.3001 52.6758 87.6191C52.0964 87.9382 51.4225 88.0977 50.6543 88.0977ZM50.957 78.8887C50.4948 78.8887 50.0749 78.9798 49.6973 79.1621C49.3197 79.3444 48.9941 79.6048 48.7207 79.9434C48.4538 80.2754 48.2454 80.679 48.0957 81.1543C47.9525 81.6296 47.8809 82.1569 47.8809 82.7363C47.8809 83.3223 47.9525 83.8529 48.0957 84.3281C48.2454 84.7969 48.4538 85.2005 48.7207 85.5391C48.9941 85.8711 49.3197 86.1283 49.6973 86.3105C50.0749 86.4928 50.4948 86.584 50.957 86.584C51.4128 86.584 51.8294 86.4928 52.207 86.3105C52.5846 86.1217 52.9069 85.8581 53.1738 85.5195C53.4408 85.181 53.6491 84.7773 53.7988 84.3086C53.9486 83.8333 54.0234 83.3092 54.0234 82.7363C54.0234 82.1634 53.9486 81.6426 53.7988 81.1738C53.6491 80.6986 53.4408 80.2917 53.1738 79.9531C52.9069 79.6146 52.5846 79.3542 52.207 79.1719C51.8294 78.9831 51.4128 78.8887 50.957 78.8887ZM57.9492 80.4121C57.9492 79.9694 58.0436 79.5625 58.2324 79.1914C58.4277 78.8203 58.6979 78.5013 59.043 78.2344C59.388 77.9674 59.7982 77.7591 60.2734 77.6094C60.7487 77.4596 61.2728 77.3848 61.8457 77.3848C62.3796 77.3848 62.8743 77.4596 63.3301 77.6094C63.7923 77.7591 64.1927 77.9707 64.5312 78.2441C64.8763 78.5111 65.1465 78.8301 65.3418 79.2012C65.5436 79.5658 65.6543 79.9629 65.6738 80.3926H64.043C63.9909 79.8978 63.763 79.5072 63.3594 79.2207C62.9557 78.9342 62.4316 78.791 61.7871 78.791C61.4616 78.791 61.1654 78.8301 60.8984 78.9082C60.6315 78.9798 60.4036 79.084 60.2148 79.2207C60.026 79.3509 59.8796 79.5104 59.7754 79.6992C59.6712 79.888 59.6191 80.0964 59.6191 80.3242C59.6191 80.6823 59.7624 80.985 60.0488 81.2324C60.3353 81.4733 60.7845 81.6686 61.3965 81.8184L62.998 82.2188C63.5319 82.3555 63.9811 82.5085 64.3457 82.6777C64.7168 82.8405 65.0163 83.0326 65.2441 83.2539C65.472 83.4753 65.6348 83.7324 65.7324 84.0254C65.8366 84.3118 65.8887 84.6471 65.8887 85.0312C65.8887 85.4805 65.7845 85.8939 65.5762 86.2715C65.3743 86.6426 65.0879 86.9648 64.7168 87.2383C64.3522 87.5117 63.9128 87.7233 63.3984 87.873C62.8906 88.0228 62.334 88.0977 61.7285 88.0977C61.1621 88.0977 60.638 88.026 60.1562 87.8828C59.681 87.7331 59.2643 87.5247 58.9062 87.2578C58.5482 86.9844 58.2585 86.6621 58.0371 86.291C57.8223 85.9134 57.6953 85.4967 57.6562 85.041H59.3652C59.4564 85.5814 59.7103 85.9915 60.127 86.2715C60.5501 86.5514 61.123 86.6914 61.8457 86.6914C62.2038 86.6914 62.526 86.6556 62.8125 86.584C63.1055 86.5124 63.3529 86.4115 63.5547 86.2812C63.7565 86.1445 63.9095 85.9818 64.0137 85.793C64.1243 85.5977 64.1797 85.3828 64.1797 85.1484C64.1797 84.7773 64.056 84.4844 63.8086 84.2695C63.5612 84.0482 63.138 83.8594 62.5391 83.7031L60.6934 83.2246C58.8639 82.7493 57.9492 81.8118 57.9492 80.4121Z" fill="black"/>
<defs>
<clipPath id="clip0_8_59">
<rect width="43" height="39" fill="white" transform="translate(14)"/>
</clipPath>
</defs>
</svg>
