<svg width="111" height="104" viewBox="0 0 111 104" fill="none" xmlns="http://www.w3.org/2000/svg">
<g clip-path="url(#clip0_8_60)">
<path d="M54.3567 8.73016H35.1512C31.7814 8.73016 29.0397 11.225 29.0397 14.2919V35.7082C29.0397 38.775 31.7814 41.2699 35.1512 41.2699H54.3567C57.7266 41.2699 60.4683 38.775 60.4683 35.7082V14.2919C60.4683 11.225 57.7266 8.73016 54.3567 8.73016ZM58.7221 35.7082C58.7221 37.9001 56.7637 39.6825 54.3566 39.6825H35.1511C32.7439 39.6825 30.7855 37.9 30.7855 35.7082V14.2919C30.7855 12.1 32.7439 10.3175 35.1511 10.3175H54.3566C56.7637 10.3175 58.7221 12.1001 58.7221 14.2919V35.7082Z" fill="#0071E3"/>
<path d="M56.0892 9.38198L54.8114 2.99165C54.4754 1.31371 52.7446 0 50.8703 0H38.6377C36.7638 0 35.0326 1.31371 34.6967 2.99165L33.4189 9.38198C33.3724 9.61368 33.4421 9.85142 33.6077 10.0322C33.7733 10.213 34.0188 10.3175 34.2778 10.3175H55.2302C55.489 10.3175 55.7346 10.2128 55.9004 10.0322C56.0663 9.85154 56.1357 9.61368 56.0892 9.38198ZM35.3239 8.73012L36.4145 3.27532C36.5979 2.36003 37.6157 1.58726 38.6376 1.58726H50.8701C51.892 1.58726 52.91 2.36084 53.0933 3.27532L54.1841 8.73012H35.3239Z" fill="#0071E3"/>
<path d="M55.9002 39.9679C55.7346 39.7871 55.489 39.6826 55.2301 39.6826H34.2777C34.0189 39.6826 33.7733 39.7874 33.6075 39.9679C33.4416 40.1485 33.3722 40.3863 33.4187 40.6181L34.6967 47.0085C35.0326 48.6864 36.7638 50.0001 38.6376 50.0001H50.8702C52.7445 50.0001 54.4753 48.6864 54.8111 47.0085L56.0889 40.6181C56.1355 40.3863 56.0659 40.1486 55.9002 39.9679ZM53.0934 46.7246C52.91 47.6393 51.8922 48.4126 50.8703 48.4126H38.6378C37.6158 48.4126 36.5979 47.6398 36.4146 46.7246L35.3238 41.2698H54.184L53.0934 46.7246Z" fill="#0071E3"/>
<path d="M61.4709 16.6667H59.5952C59.1131 16.6667 58.7222 17.0216 58.7222 17.4604V24.6032C58.7222 25.0419 59.1131 25.3969 59.5952 25.3969H61.4709C62.8435 25.3969 63.9603 24.3816 63.9603 23.1339V18.9299C63.9603 17.682 62.8435 16.6667 61.4709 16.6667ZM62.2143 23.1337C62.2143 23.5066 61.881 23.8095 61.4709 23.8095H60.4683V18.2539H61.4709C61.881 18.2539 62.2143 18.5569 62.2143 18.9298V23.1337Z" fill="#0071E3"/>
<path d="M35.7681 12.1372C35.4271 11.8273 34.8746 11.8273 34.5336 12.1372L32.351 14.1214C32.0101 14.4314 32.0101 14.9337 32.351 15.2436C32.5215 15.3986 32.745 15.4762 32.9682 15.4762C33.1915 15.4762 33.415 15.3986 33.5854 15.2436L35.768 13.2595C36.109 12.9495 36.109 12.4472 35.7681 12.1372Z" fill="#0071E3"/>
<path d="M39.26 12.1372C38.9191 11.8273 38.3665 11.8273 38.0256 12.1372L33.224 16.5024C32.883 16.8123 32.883 17.3147 33.224 17.6246C33.3944 17.7796 33.618 17.8571 33.8411 17.8571C34.0644 17.8571 34.288 17.7796 34.4583 17.6246L39.2599 13.2595C39.601 12.9495 39.601 12.4472 39.26 12.1372Z" fill="#0071E3"/>
</g>
<path d="M9.11133 95.9668H3.50586L2.08984 100H0.244141L5.43945 85.9082H7.17773L12.373 100H10.5273L9.11133 95.9668ZM4.02344 94.4727H8.59375L6.33789 88.0469H6.2793L4.02344 94.4727ZM18.8281 89.375C19.4987 89.375 20.1107 89.5052 20.6641 89.7656C21.2174 90.0195 21.6927 90.3809 22.0898 90.8496C22.487 91.3184 22.793 91.8848 23.0078 92.5488C23.2292 93.2064 23.3398 93.9355 23.3398 94.7363C23.3398 95.5371 23.2292 96.2695 23.0078 96.9336C22.793 97.5911 22.4902 98.1543 22.0996 98.623C21.709 99.0918 21.237 99.4564 20.6836 99.7168C20.1367 99.9707 19.5312 100.098 18.8672 100.098C18.1185 100.098 17.4544 99.9414 16.875 99.6289C16.2956 99.3164 15.8398 98.8704 15.5078 98.291H15.4688V103.516H13.7695V89.4727H15.3809V91.1816H15.4199C15.5762 90.9082 15.7715 90.6608 16.0059 90.4395C16.2467 90.2181 16.5137 90.0293 16.8066 89.873C17.1061 89.7103 17.4251 89.5866 17.7637 89.502C18.1087 89.4173 18.4635 89.375 18.8281 89.375ZM18.5156 98.584C18.9779 98.584 19.3978 98.4928 19.7754 98.3105C20.1595 98.1283 20.485 97.8711 20.752 97.5391C21.0254 97.2005 21.2337 96.7969 21.377 96.3281C21.5267 95.8529 21.6016 95.3223 21.6016 94.7363C21.6016 94.1569 21.5267 93.6296 21.377 93.1543C21.2337 92.679 21.0254 92.2754 20.752 91.9434C20.485 91.6048 20.1595 91.3444 19.7754 91.1621C19.3978 90.9798 18.9779 90.8887 18.5156 90.8887C18.0599 90.8887 17.6432 90.9831 17.2656 91.1719C16.8945 91.3542 16.5723 91.6146 16.2988 91.9531C16.0319 92.2917 15.8236 92.6986 15.6738 93.1738C15.5306 93.6426 15.459 94.1634 15.459 94.7363C15.459 95.3092 15.5306 95.8333 15.6738 96.3086C15.8236 96.7773 16.0319 97.181 16.2988 97.5195C16.5723 97.8581 16.8945 98.1217 17.2656 98.3105C17.6432 98.4928 18.0599 98.584 18.5156 98.584ZM30.1953 89.375C30.8659 89.375 31.4779 89.5052 32.0312 89.7656C32.5846 90.0195 33.0599 90.3809 33.457 90.8496C33.8542 91.3184 34.1602 91.8848 34.375 92.5488C34.5964 93.2064 34.707 93.9355 34.707 94.7363C34.707 95.5371 34.5964 96.2695 34.375 96.9336C34.1602 97.5911 33.8574 98.1543 33.4668 98.623C33.0762 99.0918 32.6042 99.4564 32.0508 99.7168C31.5039 99.9707 30.8984 100.098 30.2344 100.098C29.4857 100.098 28.8216 99.9414 28.2422 99.6289C27.6628 99.3164 27.207 98.8704 26.875 98.291H26.8359V103.516H25.1367V89.4727H26.748V91.1816H26.7871C26.9434 90.9082 27.1387 90.6608 27.373 90.4395C27.6139 90.2181 27.8809 90.0293 28.1738 89.873C28.4733 89.7103 28.7923 89.5866 29.1309 89.502C29.4759 89.4173 29.8307 89.375 30.1953 89.375ZM29.8828 98.584C30.3451 98.584 30.765 98.4928 31.1426 98.3105C31.5267 98.1283 31.8522 97.8711 32.1191 97.5391C32.3926 97.2005 32.6009 96.7969 32.7441 96.3281C32.8939 95.8529 32.9688 95.3223 32.9688 94.7363C32.9688 94.1569 32.8939 93.6296 32.7441 93.1543C32.6009 92.679 32.3926 92.2754 32.1191 91.9434C31.8522 91.6048 31.5267 91.3444 31.1426 91.1621C30.765 90.9798 30.3451 90.8887 29.8828 90.8887C29.4271 90.8887 29.0104 90.9831 28.6328 91.1719C28.2617 91.3542 27.9395 91.6146 27.666 91.9531C27.3991 92.2917 27.1908 92.6986 27.041 93.1738C26.8978 93.6426 26.8262 94.1634 26.8262 94.7363C26.8262 95.3092 26.8978 95.8333 27.041 96.3086C27.1908 96.7773 27.3991 97.181 27.666 97.5195C27.9395 97.8581 28.2617 98.1217 28.6328 98.3105C29.0104 98.4928 29.4271 98.584 29.8828 98.584ZM36.6016 85.293H38.3008V100H36.6016V85.293ZM44.9023 90.8691C44.4922 90.8691 44.1113 90.9408 43.7598 91.084C43.4082 91.2272 43.1022 91.429 42.8418 91.6895C42.5879 91.9499 42.3796 92.2656 42.2168 92.6367C42.0605 93.0013 41.9694 93.4049 41.9434 93.8477H47.7344C47.7214 93.3984 47.6432 92.9915 47.5 92.627C47.3633 92.2624 47.1712 91.9499 46.9238 91.6895C46.6764 91.429 46.3802 91.2272 46.0352 91.084C45.6966 90.9408 45.319 90.8691 44.9023 90.8691ZM49.375 96.9922C49.3034 97.4414 49.1406 97.8581 48.8867 98.2422C48.6328 98.6198 48.3105 98.9486 47.9199 99.2285C47.5358 99.502 47.0931 99.7168 46.5918 99.873C46.097 100.023 45.5697 100.098 45.0098 100.098C44.2676 100.098 43.6003 99.974 43.0078 99.7266C42.4154 99.4792 41.9076 99.1243 41.4844 98.6621C41.0677 98.1999 40.7454 97.64 40.5176 96.9824C40.2962 96.3249 40.1855 95.5892 40.1855 94.7754C40.1855 93.9616 40.2962 93.2227 40.5176 92.5586C40.7454 91.8945 41.0645 91.3281 41.4746 90.8594C41.8913 90.3841 42.3926 90.0195 42.9785 89.7656C43.5645 89.5052 44.2155 89.375 44.9316 89.375C45.6348 89.375 46.2663 89.4954 46.8262 89.7363C47.3926 89.9772 47.8743 90.3223 48.2715 90.7715C48.6686 91.2142 48.9714 91.7546 49.1797 92.3926C49.3945 93.0306 49.502 93.7467 49.502 94.541V95.2051H41.9434V95.3027C41.9434 95.804 42.015 96.2598 42.1582 96.6699C42.3079 97.0736 42.5195 97.4186 42.793 97.7051C43.0664 97.9915 43.3919 98.2129 43.7695 98.3691C44.1536 98.5254 44.5801 98.6035 45.0488 98.6035C45.3809 98.6035 45.6901 98.5677 45.9766 98.4961C46.263 98.418 46.5202 98.3105 46.748 98.1738C46.9824 98.0306 47.1777 97.8613 47.334 97.666C47.4967 97.4642 47.6172 97.2396 47.6953 96.9922H49.375ZM60.8594 100H59.1992L55.3613 85.9082H57.1973L60.0195 97.4121H60.0977L63.2715 85.9082H65.0488L68.2227 97.4121H68.3008L71.123 85.9082H72.959L69.1211 100H67.4609L64.209 88.8184H64.1113L60.8594 100ZM76.8164 98.623C77.2461 98.623 77.6432 98.5579 78.0078 98.4277C78.3724 98.2975 78.6849 98.1152 78.9453 97.8809C79.2122 97.6465 79.4206 97.3698 79.5703 97.0508C79.7201 96.7253 79.7949 96.3737 79.7949 95.9961V95.1465L77.041 95.3223C76.2467 95.3743 75.6478 95.5436 75.2441 95.8301C74.8405 96.11 74.6387 96.5039 74.6387 97.0117C74.6387 97.2591 74.6875 97.4805 74.7852 97.6758C74.8893 97.8711 75.0358 98.0404 75.2246 98.1836C75.4199 98.3268 75.651 98.4375 75.918 98.5156C76.1849 98.5872 76.4844 98.623 76.8164 98.623ZM76.4551 100.098C75.9212 100.098 75.4362 100.026 75 99.8828C74.5638 99.7331 74.1895 99.5247 73.877 99.2578C73.5645 98.9844 73.3236 98.6589 73.1543 98.2812C72.985 97.8971 72.9004 97.4707 72.9004 97.002C72.9004 96.0905 73.2357 95.3776 73.9062 94.8633C74.5768 94.349 75.5566 94.0527 76.8457 93.9746L79.7949 93.7988V92.9199C79.7949 92.2624 79.5866 91.7611 79.1699 91.416C78.7598 91.0645 78.1641 90.8887 77.3828 90.8887C77.0768 90.8887 76.7936 90.9277 76.5332 91.0059C76.2728 91.0775 76.0384 91.1849 75.8301 91.3281C75.6283 91.4648 75.459 91.6341 75.3223 91.8359C75.1921 92.0378 75.1009 92.2624 75.0488 92.5098H73.418C73.431 92.0671 73.5417 91.6536 73.75 91.2695C73.9583 90.8854 74.2415 90.5534 74.5996 90.2734C74.9577 89.9935 75.3743 89.7754 75.8496 89.6191C76.3314 89.4564 76.849 89.375 77.4023 89.375C78.0273 89.375 78.5905 89.4564 79.0918 89.6191C79.5931 89.7754 80.0228 90.0033 80.3809 90.3027C80.7389 90.5957 81.0124 90.9538 81.2012 91.377C81.3965 91.7936 81.4941 92.2591 81.4941 92.7734V100H79.8828V98.1738H79.8438C79.694 98.4668 79.502 98.7337 79.2676 98.9746C79.0332 99.209 78.7695 99.4108 78.4766 99.5801C78.1836 99.7428 77.8646 99.8698 77.5195 99.9609C77.181 100.052 76.8262 100.098 76.4551 100.098ZM86.0059 87.0996V89.4727H88.0566V90.8789H86.0059V97.1973C86.0059 97.6855 86.11 98.0436 86.3184 98.2715C86.5332 98.4928 86.8652 98.6035 87.3145 98.6035C87.3665 98.6035 87.4284 98.6035 87.5 98.6035C87.5716 98.597 87.6432 98.5938 87.7148 98.5938C87.7865 98.5872 87.8516 98.5807 87.9102 98.5742C87.9688 98.5677 88.0143 98.5612 88.0469 98.5547V99.9902C87.9427 100.016 87.7832 100.036 87.5684 100.049C87.36 100.068 87.1549 100.078 86.9531 100.078C86.4779 100.078 86.071 100.026 85.7324 99.9219C85.4004 99.8177 85.127 99.6549 84.9121 99.4336C84.7038 99.2057 84.5508 98.916 84.4531 98.5645C84.3555 98.2064 84.3066 97.7734 84.3066 97.2656V90.8789H82.8418V89.4727H84.3066V87.0996H86.0059ZM96.6797 92.9004C96.6276 92.6204 96.5299 92.36 96.3867 92.1191C96.2435 91.8717 96.0547 91.6569 95.8203 91.4746C95.5924 91.2923 95.3223 91.1491 95.0098 91.0449C94.6973 90.9408 94.3424 90.8887 93.9453 90.8887C93.4831 90.8887 93.0632 90.9798 92.6855 91.1621C92.3079 91.3444 91.9824 91.6048 91.709 91.9434C91.4421 92.2754 91.2337 92.679 91.084 93.1543C90.9342 93.6296 90.8594 94.1569 90.8594 94.7363C90.8594 95.3353 90.9342 95.8724 91.084 96.3477C91.2337 96.8229 91.4453 97.2266 91.7188 97.5586C91.9922 97.8906 92.3177 98.1445 92.6953 98.3203C93.0794 98.4961 93.5026 98.584 93.9648 98.584C94.7005 98.584 95.3027 98.418 95.7715 98.0859C96.2402 97.7539 96.5495 97.2689 96.6992 96.6309H98.3691C98.2975 97.1452 98.138 97.6139 97.8906 98.0371C97.6497 98.4603 97.3372 98.8249 96.9531 99.1309C96.569 99.4368 96.123 99.6745 95.6152 99.8438C95.1074 100.013 94.554 100.098 93.9551 100.098C93.2324 100.098 92.5749 99.974 91.9824 99.7266C91.39 99.4792 90.8822 99.1243 90.459 98.6621C90.0358 98.1934 89.707 97.6302 89.4727 96.9727C89.2448 96.3086 89.1309 95.5632 89.1309 94.7363C89.1309 93.929 89.2448 93.1966 89.4727 92.5391C89.707 91.875 90.0326 91.3086 90.4492 90.8398C90.8724 90.3711 91.377 90.0098 91.9629 89.7559C92.5553 89.502 93.2129 89.375 93.9355 89.375C94.5866 89.375 95.1725 89.4727 95.6934 89.668C96.2142 89.8633 96.6634 90.1237 97.041 90.4492C97.4186 90.7747 97.7181 91.1491 97.9395 91.5723C98.1608 91.9954 98.2975 92.4382 98.3496 92.9004H96.6797ZM100.098 85.293H101.797V91.1816H101.836C102.5 89.9772 103.646 89.375 105.273 89.375C105.846 89.375 106.37 89.4694 106.846 89.6582C107.321 89.847 107.728 90.1139 108.066 90.459C108.405 90.7975 108.665 91.2077 108.848 91.6895C109.036 92.1647 109.131 92.6953 109.131 93.2812V100H107.432V93.584C107.432 93.1673 107.37 92.793 107.246 92.4609C107.129 92.1224 106.953 91.8392 106.719 91.6113C106.491 91.377 106.211 91.1979 105.879 91.0742C105.553 90.9505 105.182 90.8887 104.766 90.8887C104.323 90.8887 103.919 90.9635 103.555 91.1133C103.19 91.2565 102.878 91.4616 102.617 91.7285C102.357 91.9954 102.155 92.3177 102.012 92.6953C101.868 93.0664 101.797 93.4831 101.797 93.9453V100H100.098V85.293Z" fill="black"/>
<defs>
<clipPath id="clip0_8_60">
<rect width="55" height="50" fill="white" transform="translate(19)"/>
</clipPath>
</defs>
</svg>
