<svg width="234" height="49" viewBox="0 0 234 49" fill="none" xmlns="http://www.w3.org/2000/svg">
<path d="M24.248 30.1133H11.375L8.58203 39H0.710938L13.4316 2.36133H22.4453L35.1914 39H27.041L24.248 30.1133ZM13.0254 24.375H22.5977L17.9004 9.36914H17.7227L13.0254 24.375Z" fill="#0071E3"/>
<path d="M54.5645 10.7148C56.3418 10.7148 57.9329 11.0449 59.3379 11.7051C60.7598 12.3652 61.9616 13.3132 62.9434 14.5488C63.9421 15.7676 64.7038 17.2656 65.2285 19.043C65.7702 20.8034 66.041 22.7923 66.041 25.0098C66.041 27.2272 65.7786 29.2246 65.2539 31.002C64.7292 32.7624 63.9674 34.2604 62.9688 35.4961C61.987 36.7318 60.7936 37.6797 59.3887 38.3398C57.9837 39 56.4095 39.3301 54.666 39.3301C52.6348 39.3301 50.8659 38.89 49.3594 38.0098C47.8698 37.1296 46.7441 35.8939 45.9824 34.3027H45.8301V47.7852H38.416V11.0449H45.7285V15.8184H45.8809C46.2533 15.0397 46.7272 14.3372 47.3027 13.7109C47.8783 13.0677 48.5384 12.526 49.2832 12.0859C50.0449 11.6458 50.8659 11.3073 51.7461 11.0703C52.6432 10.8333 53.5827 10.7148 54.5645 10.7148ZM52.1016 33.3379C53.0664 33.3379 53.9382 33.1432 54.7168 32.7539C55.4954 32.3646 56.1556 31.806 56.6973 31.0781C57.2559 30.3503 57.6875 29.4785 57.9922 28.4629C58.2969 27.4303 58.4492 26.2793 58.4492 25.0098C58.4492 23.7572 58.2969 22.623 57.9922 21.6074C57.6875 20.5749 57.2559 19.7031 56.6973 18.9922C56.1556 18.2643 55.4954 17.7057 54.7168 17.3164C53.9382 16.9102 53.0664 16.707 52.1016 16.707C51.1536 16.707 50.2904 16.9102 49.5117 17.3164C48.75 17.7057 48.0898 18.2643 47.5312 18.9922C46.9896 19.7201 46.5664 20.6003 46.2617 21.6328C45.957 22.6484 45.8047 23.7826 45.8047 25.0352C45.8047 26.2878 45.957 27.4303 46.2617 28.4629C46.5664 29.4785 46.9896 30.3503 47.5312 31.0781C48.0898 31.806 48.75 32.3646 49.5117 32.7539C50.2904 33.1432 51.1536 33.3379 52.1016 33.3379ZM83.0304 10.7148C84.8077 10.7148 86.3989 11.0449 87.8038 11.7051C89.2257 12.3652 90.4275 13.3132 91.4093 14.5488C92.408 15.7676 93.1697 17.2656 93.6945 19.043C94.2361 20.8034 94.507 22.7923 94.507 25.0098C94.507 27.2272 94.2446 29.2246 93.7198 31.002C93.1951 32.7624 92.4334 34.2604 91.4347 35.4961C90.4529 36.7318 89.2596 37.6797 87.8546 38.3398C86.4497 39 84.8754 39.3301 83.132 39.3301C81.1007 39.3301 79.3318 38.89 77.8253 38.0098C76.3357 37.1296 75.2101 35.8939 74.4484 34.3027H74.296V47.7852H66.882V11.0449H74.1945V15.8184H74.3468C74.7192 15.0397 75.1931 14.3372 75.7687 13.7109C76.3442 13.0677 77.0043 12.526 77.7491 12.0859C78.5109 11.6458 79.3318 11.3073 80.212 11.0703C81.1092 10.8333 82.0486 10.7148 83.0304 10.7148ZM80.5675 33.3379C81.5323 33.3379 82.4041 33.1432 83.1827 32.7539C83.9614 32.3646 84.6215 31.806 85.1632 31.0781C85.7218 30.3503 86.1534 29.4785 86.4581 28.4629C86.7628 27.4303 86.9152 26.2793 86.9152 25.0098C86.9152 23.7572 86.7628 22.623 86.4581 21.6074C86.1534 20.5749 85.7218 19.7031 85.1632 18.9922C84.6215 18.2643 83.9614 17.7057 83.1827 17.3164C82.4041 16.9102 81.5323 16.707 80.5675 16.707C79.6196 16.707 78.7563 16.9102 77.9777 17.3164C77.2159 17.7057 76.5558 18.2643 75.9972 18.9922C75.4555 19.7201 75.0323 20.6003 74.7277 21.6328C74.423 22.6484 74.2706 23.7826 74.2706 25.0352C74.2706 26.2878 74.423 27.4303 74.7277 28.4629C75.0323 29.4785 75.4555 30.3503 75.9972 31.0781C76.5558 31.806 77.2159 32.3646 77.9777 32.7539C78.7563 33.1432 79.6196 33.3379 80.5675 33.3379ZM98.671 0.609375H106.085V39H98.671V0.609375ZM123.782 16.0977C122.936 16.0977 122.149 16.25 121.421 16.5547C120.71 16.8424 120.084 17.2572 119.542 17.7988C119.017 18.3236 118.586 18.9583 118.247 19.7031C117.926 20.431 117.731 21.2435 117.663 22.1406H129.724C129.69 21.2266 129.521 20.3971 129.216 19.6523C128.911 18.9076 128.497 18.2728 127.972 17.748C127.464 17.2233 126.855 16.8171 126.144 16.5293C125.433 16.2415 124.646 16.0977 123.782 16.0977ZM136.655 30.4688C136.452 31.8229 135.995 33.0586 135.284 34.1758C134.573 35.276 133.668 36.224 132.567 37.0195C131.467 37.7982 130.181 38.4076 128.708 38.8477C127.252 39.2708 125.678 39.4824 123.985 39.4824C121.853 39.4824 119.94 39.1523 118.247 38.4922C116.554 37.832 115.116 36.8841 113.931 35.6484C112.763 34.4128 111.857 32.9062 111.214 31.1289C110.588 29.3516 110.275 27.3542 110.275 25.1367C110.275 22.9193 110.588 20.9134 111.214 19.1191C111.84 17.3249 112.737 15.793 113.905 14.5234C115.073 13.2539 116.487 12.2806 118.146 11.6035C119.804 10.9095 121.658 10.5625 123.706 10.5625C125.72 10.5625 127.54 10.8926 129.165 11.5527C130.79 12.196 132.17 13.1185 133.304 14.3203C134.455 15.5221 135.335 16.9779 135.944 18.6875C136.571 20.3971 136.884 22.3184 136.884 24.4512V26.7363H117.587V27.1934C117.587 28.209 117.739 29.1315 118.044 29.9609C118.366 30.7904 118.806 31.5013 119.364 32.0938C119.94 32.6862 120.625 33.1432 121.421 33.4648C122.234 33.7865 123.131 33.9473 124.112 33.9473C125.517 33.9473 126.728 33.6426 127.743 33.0332C128.776 32.4069 129.47 31.5521 129.825 30.4688H136.655Z" fill="#131313"/>
<path d="M164.016 21.251C163.885 20.5511 163.641 19.9001 163.283 19.2979C162.925 18.6794 162.453 18.1423 161.867 17.6865C161.297 17.2308 160.622 16.8727 159.841 16.6123C159.059 16.3519 158.172 16.2217 157.18 16.2217C156.024 16.2217 154.974 16.4495 154.03 16.9053C153.086 17.361 152.272 18.012 151.589 18.8584C150.921 19.6885 150.401 20.6976 150.026 21.8857C149.652 23.0739 149.465 24.3923 149.465 25.8408C149.465 27.3382 149.652 28.681 150.026 29.8691C150.401 31.0573 150.93 32.0664 151.613 32.8965C152.297 33.7266 153.111 34.3613 154.055 34.8008C155.015 35.2402 156.073 35.46 157.228 35.46C159.068 35.46 160.573 35.0449 161.745 34.2148C162.917 33.3848 163.69 32.1722 164.064 30.5771H168.239C168.06 31.863 167.661 33.0348 167.043 34.0928C166.441 35.1507 165.659 36.0622 164.699 36.8271C163.739 37.5921 162.624 38.1862 161.354 38.6094C160.085 39.0326 158.701 39.2441 157.204 39.2441C155.397 39.2441 153.754 38.9349 152.272 38.3164C150.791 37.6979 149.522 36.8109 148.464 35.6553C147.406 34.4834 146.584 33.0755 145.998 31.4316C145.428 29.7715 145.143 27.9079 145.143 25.8408C145.143 23.8226 145.428 21.9915 145.998 20.3477C146.584 18.6875 147.398 17.2715 148.439 16.0996C149.497 14.9277 150.759 14.0244 152.224 13.3896C153.705 12.7549 155.349 12.4375 157.155 12.4375C158.783 12.4375 160.248 12.6816 161.55 13.1699C162.852 13.6582 163.975 14.3092 164.919 15.123C165.863 15.9368 166.612 16.8727 167.165 17.9307C167.718 18.9886 168.06 20.0954 168.19 21.251H164.016ZM177.498 13.208H181.661V39H177.498V13.208ZM179.58 9.04492C179.213 9.04492 178.87 8.98112 178.551 8.85352C178.232 8.70996 177.953 8.51855 177.713 8.2793C177.474 8.04004 177.283 7.7609 177.139 7.44189C177.011 7.12288 176.948 6.77995 176.948 6.41309C176.948 6.04622 177.011 5.70329 177.139 5.38428C177.283 5.06527 177.474 4.78613 177.713 4.54688C177.953 4.30762 178.232 4.12419 178.551 3.99658C178.87 3.85303 179.213 3.78125 179.58 3.78125C179.946 3.78125 180.289 3.85303 180.608 3.99658C180.927 4.12419 181.206 4.30762 181.446 4.54688C181.685 4.78613 181.868 5.06527 181.996 5.38428C182.14 5.70329 182.211 6.04622 182.211 6.41309C182.211 6.77995 182.14 7.12288 181.996 7.44189C181.868 7.7609 181.685 8.04004 181.446 8.2793C181.206 8.51855 180.927 8.70996 180.608 8.85352C180.289 8.98112 179.946 9.04492 179.58 9.04492ZM197.974 7.39404V13.208H202.998V16.6533H197.974V32.1333C197.974 33.3296 198.229 34.2069 198.739 34.7651C199.266 35.3075 200.079 35.5786 201.18 35.5786C201.307 35.5786 201.459 35.5786 201.634 35.5786C201.81 35.5627 201.985 35.5547 202.161 35.5547C202.336 35.5387 202.496 35.5228 202.639 35.5068C202.783 35.4909 202.894 35.4749 202.974 35.459V38.9761C202.719 39.0399 202.328 39.0877 201.802 39.1196C201.291 39.1675 200.789 39.1914 200.294 39.1914C199.13 39.1914 198.133 39.0638 197.304 38.8086C196.49 38.5534 195.82 38.1546 195.294 37.6123C194.784 37.054 194.409 36.3442 194.169 35.4829C193.93 34.6056 193.811 33.5449 193.811 32.3008V16.6533H190.222V13.208H193.811V7.39404H197.974ZM214.717 48.355C214.446 48.355 214.135 48.339 213.784 48.3071C213.449 48.2752 213.154 48.2354 212.899 48.1875V44.6704C213.138 44.7183 213.409 44.7502 213.712 44.7661C214.031 44.798 214.326 44.814 214.597 44.814C215.187 44.814 215.714 44.7342 216.176 44.5747C216.655 44.4312 217.086 44.1919 217.468 43.8569C217.851 43.522 218.186 43.0833 218.473 42.541C218.776 41.9987 219.063 41.3368 219.335 40.5552L219.837 39.0239L210.291 13.208H214.717L221.943 34.7651H222.038L229.264 13.208H233.642L223.546 40.5791C222.987 42.0785 222.429 43.3226 221.871 44.3115C221.312 45.3164 220.69 46.1139 220.005 46.7041C219.335 47.3102 218.569 47.7329 217.708 47.9722C216.862 48.2274 215.865 48.355 214.717 48.355Z" fill="#1F1F1F" fill-opacity="0.76"/>
</svg>
