<svg width="62" height="62" viewBox="0 0 62 62" fill="none" xmlns="http://www.w3.org/2000/svg">
<path fill-rule="evenodd" clip-rule="evenodd" d="M26.1527 0.146171C20.1316 1.02374 13.7656 4.32726 9.09339 8.99796C3.66926 14.4208 0.708005 20.758 0.138683 28.16C-0.112234 31.4254 -0.0577245 31.9051 0.59466 32.1551C1.79517 32.6157 2.13953 31.8376 2.6392 27.5337C2.8992 25.292 3.26563 23.2635 3.45382 23.0256C3.64157 22.7877 3.93186 21.8635 4.09885 20.9712C4.2654 20.0793 4.52627 19.3475 4.67812 19.3454C4.8304 19.3428 5.33872 18.4669 5.80854 17.3991C6.27836 16.3308 6.80053 15.4567 6.96925 15.4567C7.13754 15.4567 7.39624 15.0765 7.54376 14.612C7.86909 13.5873 12.1624 9.12944 14.2558 7.6429C15.0886 7.05122 16.5487 6.18317 17.5004 5.71389C18.4522 5.24419 19.3282 4.73858 19.4472 4.59023C19.5661 4.44144 20.3449 4.17588 21.1776 3.99942C22.0104 3.82339 22.8865 3.53014 23.1244 3.34849C23.3624 3.16683 25.3225 2.81347 27.4804 2.56348C31.4397 2.10458 37.466 2.50855 38.9698 3.33335C39.357 3.54571 40.3788 3.85193 41.2411 4.01369C42.1033 4.17545 42.8084 4.4808 42.8084 4.69187C42.8084 4.90337 43.0226 5.07637 43.2839 5.07637C44.9196 5.07637 54.489 12.9009 54.489 14.2383C54.489 14.4325 52.8581 14.5916 50.8646 14.5916C47.0904 14.5916 45.8817 15.1202 46.4238 16.5323C46.6323 17.0764 47.7722 17.1867 53.1778 17.1867H59.6804V10.7245C59.6804 6.84491 59.5061 4.15469 59.2439 3.9925C59.0038 3.84458 58.4198 3.84588 57.9461 3.99639C57.1591 4.24595 57.0826 4.66851 57.0592 8.88983C57.0389 12.6358 56.9363 13.3572 56.5184 12.7011C55.5412 11.1657 50.8066 6.572 48.865 5.2749C46.3074 3.56604 42.731 1.86757 39.7801 0.960158C37.4496 0.243919 28.9617 -0.262985 26.1527 0.146171ZM30.1367 10.9689C29.968 11.1376 29.83 12.1103 29.83 13.1302C29.83 14.9346 29.7858 14.9926 28.2076 15.2694C25.2706 15.7841 23.4861 17.2598 22.347 20.1148C20.1519 25.6177 23.5216 29.6058 31.5604 31.018C34.5195 31.5374 36.3919 32.3895 37.9415 33.9202C39.1602 35.1243 39.3475 35.6013 39.3475 37.5018C39.3475 41.9419 35.9926 44.8675 30.9011 44.8675C29.6262 44.8675 28.4629 44.6728 28.3158 44.4349C28.1687 44.1971 27.7071 44.0024 27.2896 44.0024C25.6764 44.0024 22.9081 39.8114 22.9081 37.369C22.9081 36.225 22.6922 35.7748 22.0468 35.5697C20.591 35.1078 20.1921 35.7177 20.4885 37.9529C21.0461 42.1552 23.9827 45.7139 27.6106 46.5841L29.7858 47.1057L29.916 49.1221C30.0341 50.9503 30.1475 51.1389 31.1278 51.1389C32.109 51.1389 32.2215 50.9507 32.34 49.1104L32.4711 47.0819L34.8275 46.5927C36.1241 46.3237 37.1844 45.9457 37.1844 45.7524C37.1844 45.559 37.5469 45.306 37.9904 45.1901C38.4334 45.0742 39.4267 44.063 40.1976 42.9432C42.0167 40.3001 42.4468 36.76 41.254 34.2476C40.0708 31.7541 39.8623 31.5889 35.0049 29.2871C34.6385 29.1132 33.4704 28.8355 32.4092 28.6695C27.3048 27.8706 24.2059 25.7457 24.2059 23.0438C24.2059 20.9145 26.0342 18.0517 27.3943 18.0517C27.7538 18.0517 28.1687 17.8571 28.3158 17.6192C28.4629 17.3813 29.7283 17.1867 31.1278 17.1867C32.5273 17.1867 33.7927 17.3813 33.9398 17.6192C34.0869 17.8571 34.5018 18.0517 34.8613 18.0517C36.0613 18.0517 38.0496 20.8587 38.0496 22.5524C38.0496 23.8292 38.6107 24.2617 39.784 23.8893C40.8361 23.5554 40.8729 22.5304 39.9181 20.1446C38.7985 17.3472 36.9054 15.7702 34.0709 15.2737C32.5178 15.0017 32.468 14.9346 32.3404 12.9546C32.2331 11.2838 32.0497 10.8924 31.3264 10.789C30.8405 10.7194 30.3054 10.8007 30.1367 10.9689ZM60.3501 30.1283C60.1983 30.374 59.8647 32.38 59.609 34.5858C59.3529 36.7912 58.99 38.7907 58.8018 39.0285C58.614 39.2664 58.3237 40.1911 58.1568 41.083C57.9902 41.9752 57.7293 42.7066 57.5775 42.7088C57.4252 42.7114 56.9169 43.5872 56.4471 44.6551C55.9772 45.7234 55.4551 46.5975 55.2863 46.5975C55.1181 46.5975 54.8576 46.9833 54.7079 47.4543C54.3817 48.4811 50.1239 52.8953 47.9998 54.4082C47.167 55.0016 45.7069 55.871 44.7552 56.3403C43.8034 56.81 42.9274 57.3078 42.8084 57.4471C42.4597 57.8553 38.9664 58.7498 35.2376 59.3856C32.5113 59.8501 30.9046 59.8752 27.6669 59.5024C25.4065 59.242 23.3624 58.8769 23.1244 58.691C22.8865 58.505 21.962 58.2165 21.0695 58.0495C20.1774 57.883 19.4454 57.6222 19.4433 57.4704C19.4407 57.3182 18.5646 56.81 17.4965 56.3403C16.428 55.8706 15.5536 55.3485 15.5536 55.1798C15.5536 55.0116 15.1941 54.7594 14.755 54.6202C13.8777 54.3416 7.76656 48.3955 7.76656 47.8206C7.76656 47.6234 9.39752 47.4625 11.391 47.4625C15.1651 47.4625 16.3739 46.934 15.8318 45.5218C15.6233 44.9777 14.4833 44.8675 9.07782 44.8675H2.57517V51.3296C2.57517 55.2092 2.74952 57.8995 3.01168 58.0616C3.25178 58.2096 3.83582 58.2083 4.30953 58.0578C5.09646 57.8082 5.17303 57.3856 5.19639 53.1643C5.21672 49.4183 5.31925 48.6969 5.73716 49.353C6.67594 50.8279 11.4572 55.4432 13.4126 56.7628C16.0023 58.5097 19.5445 60.1862 22.6918 61.1537C26.3625 62.2821 35.8931 62.2821 39.5638 61.1537C44.9901 59.4855 49.2955 56.9216 53.1622 53.0562C58.762 47.4573 61.8327 40.6903 61.9824 33.6174C62.0481 30.5323 61.9499 29.9501 61.343 29.8273C60.9489 29.7473 60.502 29.8827 60.3501 30.1283Z" fill="black"/>
</svg>
