<svg width="62" height="62" viewBox="0 0 62 62" fill="none" xmlns="http://www.w3.org/2000/svg">
<path fill-rule="evenodd" clip-rule="evenodd" d="M21.9036 1.48162C21.1829 2.29674 20.0073 3.63703 19.2917 4.4599C18.1093 5.82071 17.6631 5.99303 14.3977 6.35318C12.4215 6.57109 10.5477 7.02606 10.233 7.36387C9.41778 8.24007 8.62814 10.8181 8.62814 12.6047C8.62814 14.4132 7.77182 15.3719 4.63382 17.0764C1.33826 18.8671 1.03638 19.824 2.44576 24.0131L3.59254 27.4209L1.77167 30.0969C-0.776271 33.842 -0.670774 34.7369 2.707 38.0443C4.22325 39.5286 5.36546 40.9989 5.24535 41.3116C5.12524 41.6239 4.88547 43.1274 4.71283 44.6523C4.42009 47.2335 4.47809 47.4984 5.55591 48.4954C6.19255 49.0844 8.03032 49.9218 9.63974 50.3568L12.5663 51.1477L14.0889 54.5007C15.7171 58.0872 16.8698 58.9675 19.1323 58.3543C19.7603 58.1838 21.2322 57.9153 22.4032 57.7571C24.4442 57.4813 24.6488 57.5629 27.3707 59.7347C28.9322 60.9806 30.5681 62 31.0066 62C31.445 62 33.0809 60.9806 34.6424 59.7347C37.3643 57.5629 37.5689 57.4813 39.6099 57.7571C40.7809 57.9153 42.2528 58.1838 42.8808 58.3543C45.1506 58.9698 46.2951 58.089 47.9443 54.4574C49.3573 51.3447 49.6208 51.0351 51.0932 50.7602C53.4311 50.323 55.7699 49.2745 56.7719 48.2137C57.5665 47.3721 57.6035 46.991 57.1733 44.0446L56.7002 40.8015L59.3815 38.0539C62.6711 34.6826 62.762 33.8023 60.2104 30.0513L58.3585 27.3288L59.5582 23.9534C60.5748 21.0937 60.6721 20.4162 60.1939 19.5204C59.5043 18.2285 58.6256 17.5045 56.7362 16.6721C54.4454 15.6627 53.3891 14.337 53.3503 12.4228C53.2996 9.92912 52.3259 7.60321 51.0631 6.95904C50.4561 6.64904 49.1376 6.39147 48.1329 6.38646C45.1926 6.37141 43.1608 5.611 42.3355 4.216C41.2134 2.32044 39.2764 0.911765 39.2764 1.36765C39.2764 0.455882 36.1065 0.615441 34.5876 1.36765C33.069 2.11985 31.4573 2.73529 31.0066 2.73529C30.5558 2.73529 28.9441 2.11985 27.4256 1.36765C25.9066 0.615441 24.3378 0 23.9391 0C23.5404 0 22.6247 0.6665 21.9036 1.48162ZM26.9963 3.68353C28.0718 4.20551 29.3081 4.82096 29.7442 5.05118C30.7978 5.60826 31.5439 5.4386 32.3767 5.01471C32.3767 5.01471 32.8526 4.68679 33.1754 4.35088C33.1754 4.35088 34.2989 4.14853 35.2361 3.64706C36.1737 3.14559 37.2446 2.73529 37.6164 2.73529C37.9882 2.73529 39.2733 4.05507 40.4722 5.66799L42.6525 8.60068L46.5344 8.74519L50.4164 8.88971L50.5475 10.2574C50.6192 11.0096 50.8873 12.6854 51.143 13.981C51.5942 16.2714 51.697 16.3903 54.8218 18.2435L58.0365 20.1495L57.725 21.814C57.5537 22.7289 57.245 23.6831 57.0386 23.9338C56.8322 24.1846 56.5225 25.1446 56.3499 26.0669C56.0791 27.512 56.2891 28.1667 57.8693 30.8008C58.8782 32.4816 59.6103 34.0991 59.4966 34.395C59.3828 34.6904 58.2694 35.8159 57.0226 36.8955L54.7551 38.8585V43.1146V47.3703L53.0424 47.6785C52.1007 47.848 51.1243 48.1412 50.8731 48.3304C50.6219 48.5196 49.7779 48.8104 48.9974 48.9768C47.5351 49.2882 47.3218 49.5859 45.7051 53.5662C44.6734 56.1064 43.8307 56.492 41.0787 55.6838C37.2383 54.5554 37.1807 54.5664 34.3542 56.9817C32.8895 58.233 31.4126 59.2583 31.0714 59.2606C30.7302 59.2629 29.1647 58.2431 27.5927 56.9944L24.7347 54.7241L22.0607 55.4193C18.06 56.4597 17.3959 56.2454 16.3076 53.5662C14.6918 49.5863 14.478 49.2882 13.0157 48.9768C12.2352 48.8104 11.3912 48.5196 11.14 48.3304C10.8888 48.1412 9.91284 47.848 8.97067 47.6785L7.25804 47.3703V43.0909V38.8111L5.17913 37.1106C2.05437 34.5545 2.0192 34.3416 4.13236 30.819C5.72352 28.1676 5.93405 27.513 5.66323 26.0669C5.4906 25.1446 5.18095 24.1846 4.97452 23.9338C4.76809 23.6831 4.45936 22.7289 4.2881 21.814L3.97663 20.1495L7.19136 18.2435C10.3161 16.3903 10.4189 16.2714 10.8701 13.981C11.1258 12.6854 11.3939 11.0096 11.4656 10.2574L11.5967 8.88971L15.4787 8.74337L18.4912 8.15789L20.6667 7.07018L21.5807 5.66616C22.8014 4.05416 24.0793 2.73529 24.4209 2.73529C24.7621 2.73529 25.9212 3.162 26.9963 3.68353ZM13.2349 30.6257C13.2349 34.8805 13.2956 35.1845 14.1483 35.1845C14.9096 35.1845 15.0617 34.8805 15.0617 33.361V31.5375H17.1169C18.6391 31.5375 19.172 31.3601 19.172 30.8537C19.172 30.3458 18.6359 30.1698 17.0867 30.1698C15.0809 30.1698 15.0064 30.122 15.1457 28.9162C15.2777 27.7683 15.4727 27.6506 17.4594 27.5234C18.9825 27.4259 19.6287 27.1884 19.6287 26.7256C19.6287 26.2141 18.9154 26.0669 16.4318 26.0669H13.2349V30.6257ZM21.4555 30.6257C21.4555 34.8805 21.5163 35.1845 22.3689 35.1845C23.1303 35.1845 23.2823 34.8805 23.2823 33.361C23.2823 31.5844 23.323 31.5375 24.8648 31.5375C26.5427 31.5375 27.3927 32.447 27.3927 34.2427C27.3927 34.8805 27.6872 35.1845 28.3061 35.1845C29.446 35.1845 29.541 33.5662 28.4888 32.0668C27.8192 31.1126 27.8192 30.9585 28.4888 30.22C30.4754 28.0286 28.5226 26.0669 24.3542 26.0669H21.4555V30.6257ZM31.503 30.6257V35.1845H34.9662C37.5328 35.1845 38.3809 35.0368 38.2416 34.6147C38.132 34.2824 37.0684 33.9874 35.6914 33.9072C33.528 33.7809 33.3298 33.6756 33.3298 32.6535C33.3298 31.6182 33.4951 31.5375 35.6133 31.5375C37.3387 31.5375 37.8968 31.3702 37.8968 30.8537C37.8968 30.3358 37.3351 30.1698 35.5832 30.1698C33.3284 30.1698 33.2727 30.1379 33.4138 28.9162C33.5486 27.7468 33.7194 27.6534 35.9558 27.5248C37.6808 27.4254 38.3535 27.2016 38.3535 26.727C38.3535 26.2096 37.6137 26.0669 34.9283 26.0669H31.503V30.6257ZM41.0937 30.6257V35.1845H44.519C47.2044 35.1845 47.9443 35.0419 47.9443 34.5244C47.9443 34.0499 47.2715 33.826 45.5466 33.7266C43.4576 33.6067 43.1302 33.4567 43.0028 32.5632C42.868 31.6154 43.0324 31.5375 45.1721 31.5375C46.887 31.5375 47.4876 31.3665 47.4876 30.8787C47.4876 30.416 46.8413 30.1785 45.3182 30.0809C43.3457 29.9547 43.1489 29.8384 43.1489 28.8022C43.1489 27.7486 43.3302 27.652 45.5466 27.5248C47.2715 27.4254 47.9443 27.2016 47.9443 26.727C47.9443 26.2096 47.2044 26.0669 44.519 26.0669H41.0937V30.6257ZM27.1182 28.4872C27.521 29.1478 27.4397 29.4459 26.7081 29.9879C26.2057 30.3599 25.2809 30.6043 24.6529 30.5309C23.7272 30.4229 23.4833 30.1115 23.3655 28.887C23.2225 27.3994 23.2467 27.378 24.9178 27.5193C25.949 27.6064 26.8127 27.9862 27.1182 28.4872Z" fill="black"/>
</svg>
