<svg width="62" height="74" viewBox="0 0 62 74" fill="none" xmlns="http://www.w3.org/2000/svg">
<path fill-rule="evenodd" clip-rule="evenodd" d="M21.3515 0.8627C20.3104 1.30006 18.9143 2.34774 18.2491 3.19006C17.458 4.19175 16.1798 4.90814 14.5573 5.25929C8.55041 6.55987 6.18079 8.50526 6.18079 12.1374C6.18079 13.5069 5.775 14.2082 4.55327 14.9496C0.122425 17.6386 -0.790922 19.92 0.940218 23.9738C1.99069 26.4339 1.99069 26.6288 0.937115 28.4984C-0.853591 31.6764 -0.0935027 34.3032 3.3514 36.8385C5.60871 38.5002 6.1901 39.2683 6.18576 40.5845C6.17955 42.6135 7.86726 45.2048 9.74669 46.0518C10.5155 46.3982 11.1446 46.9668 11.1446 47.3148C11.1446 47.6628 10.0054 49.9159 8.6137 52.3211C3.37312 61.3766 1.70093 64.7851 2.085 65.629C2.34188 66.1928 3.9117 66.3616 8.89788 66.3616H15.3776L18.0698 69.0552C19.5503 70.5366 21.3584 72.3514 22.0868 73.0876C23.9302 74.9504 24.7251 74.2466 27.941 67.9041C29.3911 65.0443 30.8182 62.7038 31.1123 62.7038C31.4064 62.7038 31.9636 63.3502 32.3502 64.1408C35.6158 70.8156 37.1899 73.6075 37.8954 73.9749C38.5326 74.3067 42.7891 71.2567 42.7891 70.4682C42.7891 70.2534 43.6969 69.248 44.8057 68.2343L46.8222 66.3914L53.3298 66.2456C58.8285 66.1228 59.8685 65.965 60.036 65.2287C60.2166 64.434 58.2006 60.3169 55.1466 55.2416C54.4926 54.1552 53.9578 52.9205 53.9578 52.4983C53.9578 52.0761 53.6786 51.7307 53.3373 51.7307C52.996 51.7307 52.7168 51.4725 52.7168 51.1564C52.7168 50.8408 52.2539 49.7607 51.6881 48.7564C50.8119 47.2019 50.789 46.8575 51.5329 46.4416C53.4453 45.3725 53.7158 45.1483 54.7483 43.7804C55.3371 43.0002 55.8167 41.5894 55.8142 40.6452C55.8099 39.2568 56.3516 38.5289 58.6486 36.8385C62.0935 34.3032 62.8536 31.6764 61.0629 28.4984C60.0093 26.6288 60.0093 26.4339 61.0598 23.9738C62.7909 19.92 61.8776 17.6386 57.4467 14.9496C56.225 14.2082 55.8192 13.5069 55.8192 12.1374C55.8192 8.50526 53.4496 6.55987 47.4427 5.25929C45.8214 4.90867 44.542 4.19175 43.7527 3.19267C42.4956 1.60052 39.2381 0 37.2544 0C36.6228 0 35.3061 0.351142 34.3283 0.780663C32.0722 1.77138 29.9278 1.77138 27.6717 0.780663C25.4697 -0.186544 23.795 -0.164598 21.3515 0.8627ZM28.1235 3.92213C29.1013 4.35165 30.3957 4.70279 31 4.70279C31.6043 4.70279 32.8987 4.35165 33.8765 3.92213C37.0664 2.52122 38.9179 2.89744 41.7579 5.52473C43.8998 7.5067 44.8162 7.96391 47.1325 8.20584C50.6078 8.56953 52.0957 9.61825 52.0988 11.7073C52.1013 13.6297 53.9348 16.3422 56.0041 17.4839C58.3787 18.7939 59.037 20.5413 57.9679 22.6957C56.8151 25.0194 56.8194 26.9877 57.9828 29.7655C59.029 32.2617 58.661 33.2393 56.019 34.9898C53.7096 36.5192 52.2136 38.7515 51.9815 41.0125C51.76 43.1789 50.2597 44.143 46.2663 44.6854C44.4806 44.9278 43.18 45.6181 41.2907 47.3273C38.4855 49.8637 37.806 50.0168 34.5082 48.8568C31.7024 47.8697 29.9247 47.8702 27.6717 48.8599C24.82 50.1124 23.4574 49.8125 20.7093 47.3273C18.82 45.6181 17.5194 44.9278 15.7337 44.6854C11.7403 44.143 10.24 43.1789 10.0185 41.0125C9.78082 38.6951 8.39219 36.675 5.74832 34.8012C3.1938 32.9911 2.84323 31.9539 3.99918 29.6239C5.14645 27.3112 5.15514 25.4567 4.02897 22.7976C3.02937 20.4347 3.63993 18.7835 5.99589 17.4839C8.06519 16.3422 9.89871 13.6297 9.90119 11.7073C9.90429 9.624 11.3891 8.57109 14.8427 8.20271C17.0926 7.96339 18.1176 7.46176 20.3259 5.5216C23.2924 2.91416 25.0217 2.55988 28.1235 3.92213ZM43.19 17.3742C42.7122 18.0206 40.6814 20.6661 38.6772 23.2527C36.6731 25.8392 34.8203 28.3082 34.5603 28.7393C34.3003 29.1704 33.6023 30.1407 33.0091 30.8963C32.4159 31.6513 31.3816 33.0031 30.7109 33.9008C30.0401 34.798 29.3421 35.528 29.1597 35.5233C28.9772 35.5186 26.8738 33.9724 24.485 32.0882C19.1141 27.8515 17.6169 26.9736 16.4237 27.3593C14.6839 27.9215 15.4737 29.105 19.6496 32.1932C21.9385 33.8862 25.0595 36.27 26.5859 37.4917C28.1117 38.7128 29.5959 39.7124 29.8831 39.7124C30.171 39.7124 30.7239 39.1246 31.1129 38.4061C31.5013 37.6876 32.0542 37.0998 32.3409 37.0998C32.6269 37.0998 32.8614 36.8767 32.8614 36.6034C32.8614 36.3306 33.6544 35.0959 34.6236 33.8601C35.5928 32.6243 37.8154 29.7321 39.5633 27.4329C41.3111 25.1338 43.0317 22.9684 43.386 22.6215C43.7403 22.2745 44.0301 21.8507 44.0301 21.6793C44.0301 21.5085 44.7194 20.5141 45.5614 19.4701C46.7075 18.0498 46.9228 17.3993 46.4165 16.8851C45.4094 15.863 44.1672 16.0511 43.19 17.3742ZM23.5797 52.097C25.3778 52.2678 27.2169 52.0698 28.7073 51.5457C30.8796 50.7812 32.8614 50.8486 32.8614 51.6868C32.8614 51.8885 32.4513 52.5098 31.9506 53.0678C31.4492 53.6254 31.0304 54.371 31.0199 54.7237C31.0087 55.077 30.0079 57.1932 28.7948 59.4265C27.5818 61.6604 26.3445 63.9579 26.0448 64.5327C23.8713 68.6999 23.3693 69.4006 22.7265 69.1655C22.3288 69.0197 20.9519 67.7416 19.6669 66.325L17.3308 63.7489H12.7374C10.2108 63.7489 7.73261 63.6162 7.23065 63.4537C6.27449 63.1449 6.50282 61.1363 7.49435 61.1363C7.79528 61.1363 8.04223 60.7909 8.04223 60.3687C8.04223 59.9464 8.57709 58.7117 9.23107 57.6254C9.88506 56.5385 11.3128 54.0037 12.4048 51.9919C15.3726 46.5221 15.3273 46.5425 18.2535 49.3829C20.4034 51.4699 21.189 51.8702 23.5797 52.097ZM48.6427 49.7921C50.8039 54.0894 52.239 56.7339 54.0608 59.7766C56.31 63.5336 56.0842 63.7301 49.4959 63.7411L44.7232 63.7489L42.0582 66.6228C40.592 68.2035 39.2493 69.4936 39.0743 69.49C38.7504 69.4827 36.4733 65.5292 34.1614 60.9586L32.8813 58.429L34.1123 56.1534C34.7893 54.9019 35.3434 53.6458 35.3434 53.362C35.3434 52.8254 36.1388 52.5646 39.5304 51.9899C40.8731 51.762 42.2853 50.8873 43.7633 49.3688C44.9831 48.1153 46.3308 47.2024 46.7583 47.3409C47.1859 47.4788 48.034 48.5819 48.6427 49.7921Z" fill="black"/>
</svg>
