<svg width="151" height="184" viewBox="0 0 151 184" fill="none" xmlns="http://www.w3.org/2000/svg">
<path d="M127.406 22.7109H23.5938C20.3425 22.7109 17.6953 25.3908 17.6953 28.6875V90.8438C17.6953 91.5036 18.2238 92.0391 18.875 92.0391H132.125C132.776 92.0391 133.305 91.5036 133.305 90.8438V28.6875C133.305 25.3908 130.657 22.7109 127.406 22.7109ZM130.945 89.6484H20.0547V28.6875C20.0547 26.7105 21.6425 25.1016 23.5938 25.1016H127.406C129.357 25.1016 130.945 26.7105 130.945 28.6875V89.6484Z" fill="#0071E3"/>
<path d="M132.125 94.4297C131.474 94.4297 130.945 94.9652 130.945 95.625V100.406C130.945 102.383 129.357 103.992 127.406 103.992H23.5938C21.6425 103.992 20.0547 102.383 20.0547 100.406V95.625C20.0547 94.9652 19.5262 94.4297 18.875 94.4297C18.2238 94.4297 17.6953 94.9652 17.6953 95.625V100.406C17.6953 103.703 20.3425 106.383 23.5938 106.383H127.406C130.657 106.383 133.305 103.703 133.305 100.406V95.625C133.305 94.9652 132.776 94.4297 132.125 94.4297Z" fill="#0071E3"/>
<path d="M125.047 29.8828H25.9531C25.3019 29.8828 24.7734 30.4183 24.7734 31.0781V83.6719C24.7734 84.3317 25.3019 84.8672 25.9531 84.8672H125.047C125.698 84.8672 126.227 84.3317 126.227 83.6719V31.0781C126.227 30.4183 125.698 29.8828 125.047 29.8828ZM123.867 82.4766H27.1328V32.2734H123.867V82.4766Z" fill="#0071E3"/>
<path d="M54.2656 125.508C57.5923 125.508 60.5368 123.354 61.5891 120.15L63.4436 112.594C63.571 111.946 63.1557 111.317 62.5187 111.188C61.8675 111.047 61.2565 111.477 61.1314 112.127L59.3524 119.393C58.6187 121.621 56.5755 123.117 54.2656 123.117C52.673 123.117 51.1914 123.746 50.1155 124.865C48.9877 125.979 48.3672 127.48 48.3672 129.094C48.3672 129.754 48.8957 130.289 49.5469 130.289H101.453C102.104 130.289 102.633 129.754 102.633 129.094C102.633 127.48 102.012 125.979 100.908 124.889C99.8086 123.746 98.327 123.117 96.7344 123.117C94.4245 123.117 92.3813 121.621 91.6476 119.388L89.871 112.125C89.7435 111.477 89.1254 111.049 88.4836 111.186C87.8442 111.315 87.4314 111.943 87.5588 112.591L89.4132 120.146C90.4632 123.354 93.4077 125.508 96.7344 125.508C97.6852 125.508 98.5653 125.881 99.2377 126.579C99.6175 126.952 99.9007 127.404 100.073 127.898H50.9271C51.1017 127.401 51.3895 126.945 51.7836 126.555C52.4348 125.881 53.3148 125.508 54.2656 125.508Z" fill="#0071E3"/>
<path d="M84.9375 123.117C85.5887 123.117 86.1172 122.582 86.1172 121.922C86.1172 121.262 85.5887 120.727 84.9375 120.727H66.0625C65.4113 120.727 64.8828 121.262 64.8828 121.922C64.8828 122.582 65.4113 123.117 66.0625 123.117H84.9375Z" fill="#0071E3"/>
<path d="M75.5 100.406C76.803 100.406 77.8594 99.3359 77.8594 98.0156C77.8594 96.6953 76.803 95.625 75.5 95.625C74.197 95.625 73.1406 96.6953 73.1406 98.0156C73.1406 99.3359 74.197 100.406 75.5 100.406Z" fill="#0071E3"/>
<path d="M56.25 169.473H57.9492V180H56.25V169.473ZM57.0996 167.773C56.9499 167.773 56.8099 167.747 56.6797 167.695C56.5495 167.637 56.4355 167.559 56.3379 167.461C56.2402 167.363 56.1621 167.249 56.1035 167.119C56.0514 166.989 56.0254 166.849 56.0254 166.699C56.0254 166.549 56.0514 166.41 56.1035 166.279C56.1621 166.149 56.2402 166.035 56.3379 165.938C56.4355 165.84 56.5495 165.765 56.6797 165.713C56.8099 165.654 56.9499 165.625 57.0996 165.625C57.2493 165.625 57.3893 165.654 57.5195 165.713C57.6497 165.765 57.7637 165.84 57.8613 165.938C57.959 166.035 58.0339 166.149 58.0859 166.279C58.1445 166.41 58.1738 166.549 58.1738 166.699C58.1738 166.849 58.1445 166.989 58.0859 167.119C58.0339 167.249 57.959 167.363 57.8613 167.461C57.7637 167.559 57.6497 167.637 57.5195 167.695C57.3893 167.747 57.2493 167.773 57.0996 167.773ZM74.4531 180H72.8125V169.141H72.7441L68.252 179.902H66.7676L62.2754 169.141H62.207V180H60.5664V165.908H62.6074L67.4707 177.666H67.5488L72.4121 165.908H74.4531V180ZM80.4102 178.623C80.8398 178.623 81.237 178.558 81.6016 178.428C81.9661 178.298 82.2786 178.115 82.5391 177.881C82.806 177.646 83.0143 177.37 83.1641 177.051C83.3138 176.725 83.3887 176.374 83.3887 175.996V175.146L80.6348 175.322C79.8405 175.374 79.2415 175.544 78.8379 175.83C78.4342 176.11 78.2324 176.504 78.2324 177.012C78.2324 177.259 78.2812 177.48 78.3789 177.676C78.4831 177.871 78.6296 178.04 78.8184 178.184C79.0137 178.327 79.2448 178.438 79.5117 178.516C79.7786 178.587 80.0781 178.623 80.4102 178.623ZM80.0488 180.098C79.515 180.098 79.0299 180.026 78.5938 179.883C78.1576 179.733 77.7832 179.525 77.4707 179.258C77.1582 178.984 76.9173 178.659 76.748 178.281C76.5788 177.897 76.4941 177.471 76.4941 177.002C76.4941 176.09 76.8294 175.378 77.5 174.863C78.1706 174.349 79.1504 174.053 80.4395 173.975L83.3887 173.799V172.92C83.3887 172.262 83.1803 171.761 82.7637 171.416C82.3535 171.064 81.7578 170.889 80.9766 170.889C80.6706 170.889 80.3874 170.928 80.127 171.006C79.8665 171.077 79.6322 171.185 79.4238 171.328C79.222 171.465 79.0527 171.634 78.916 171.836C78.7858 172.038 78.6947 172.262 78.6426 172.51H77.0117C77.0247 172.067 77.1354 171.654 77.3438 171.27C77.5521 170.885 77.8353 170.553 78.1934 170.273C78.5514 169.993 78.9681 169.775 79.4434 169.619C79.9251 169.456 80.4427 169.375 80.9961 169.375C81.6211 169.375 82.1842 169.456 82.6855 169.619C83.1868 169.775 83.6165 170.003 83.9746 170.303C84.3327 170.596 84.6061 170.954 84.7949 171.377C84.9902 171.794 85.0879 172.259 85.0879 172.773V180H83.4766V178.174H83.4375C83.2878 178.467 83.0957 178.734 82.8613 178.975C82.627 179.209 82.3633 179.411 82.0703 179.58C81.7773 179.743 81.4583 179.87 81.1133 179.961C80.7747 180.052 80.4199 180.098 80.0488 180.098ZM94.375 172.9C94.3229 172.62 94.2253 172.36 94.082 172.119C93.9388 171.872 93.75 171.657 93.5156 171.475C93.2878 171.292 93.0176 171.149 92.7051 171.045C92.3926 170.941 92.0378 170.889 91.6406 170.889C91.1784 170.889 90.7585 170.98 90.3809 171.162C90.0033 171.344 89.6777 171.605 89.4043 171.943C89.1374 172.275 88.929 172.679 88.7793 173.154C88.6296 173.63 88.5547 174.157 88.5547 174.736C88.5547 175.335 88.6296 175.872 88.7793 176.348C88.929 176.823 89.1406 177.227 89.4141 177.559C89.6875 177.891 90.013 178.145 90.3906 178.32C90.7747 178.496 91.1979 178.584 91.6602 178.584C92.3958 178.584 92.998 178.418 93.4668 178.086C93.9355 177.754 94.2448 177.269 94.3945 176.631H96.0645C95.9928 177.145 95.8333 177.614 95.5859 178.037C95.3451 178.46 95.0326 178.825 94.6484 179.131C94.2643 179.437 93.8184 179.674 93.3105 179.844C92.8027 180.013 92.2493 180.098 91.6504 180.098C90.9277 180.098 90.2702 179.974 89.6777 179.727C89.0853 179.479 88.5775 179.124 88.1543 178.662C87.7311 178.193 87.4023 177.63 87.168 176.973C86.9401 176.309 86.8262 175.563 86.8262 174.736C86.8262 173.929 86.9401 173.197 87.168 172.539C87.4023 171.875 87.7279 171.309 88.1445 170.84C88.5677 170.371 89.0723 170.01 89.6582 169.756C90.2507 169.502 90.9082 169.375 91.6309 169.375C92.2819 169.375 92.8678 169.473 93.3887 169.668C93.9095 169.863 94.3587 170.124 94.7363 170.449C95.1139 170.775 95.4134 171.149 95.6348 171.572C95.8561 171.995 95.9928 172.438 96.0449 172.9H94.375Z" fill="black"/>
</svg>
