<svg width="112" height="147" viewBox="0 0 112 147" fill="none" xmlns="http://www.w3.org/2000/svg">
<path d="M29.625 16.1406V89.0156C29.625 91.2996 31.5885 93.1562 34 93.1562H83C85.4115 93.1562 87.375 91.2996 87.375 89.0156V16.1406C87.375 13.8567 85.4115 12 83 12H34C31.5885 12 29.625 13.8567 29.625 16.1406ZM85.625 16.1406V89.0156C85.625 90.3853 84.4473 91.5 83 91.5H34C32.5527 91.5 31.375 90.3853 31.375 89.0156V16.1406C31.375 14.7709 32.5527 13.6562 34 13.6562H83C84.4473 13.6562 85.625 14.7709 85.625 16.1406Z" fill="#0071E3"/>
<path d="M27 12H13C10.5885 12 8.625 13.8567 8.625 16.1406V19.4531C8.625 19.9102 9.017 20.2812 9.5 20.2812C9.983 20.2812 10.375 19.9102 10.375 19.4531V16.1406C10.375 14.7709 11.5527 13.6562 13 13.6562H27C27.483 13.6562 27.875 13.2852 27.875 12.8281C27.875 12.371 27.483 12 27 12Z" fill="#0071E3"/>
<path d="M8.625 89.0156C8.625 91.2996 10.5885 93.1562 13 93.1562H27C27.483 93.1562 27.875 92.7852 27.875 92.3281C27.875 91.871 27.483 91.5 27 91.5H13C11.5527 91.5 10.375 90.3853 10.375 89.0156V36.0156C10.375 35.5585 9.983 35.1875 9.5 35.1875C9.017 35.1875 8.625 35.5585 8.625 36.0156V89.0156Z" fill="#0071E3"/>
<path d="M58.5035 16.9588C58.9867 16.9588 59.3785 16.588 59.3785 16.1307C59.3785 15.6733 58.9867 15.3026 58.5035 15.3026C58.0202 15.3026 57.6285 15.6733 57.6285 16.1307C57.6285 16.588 58.0202 16.9588 58.5035 16.9588Z" fill="#0071E3"/>
<path d="M35.75 81.5625H81.25C81.733 81.5625 82.125 81.1915 82.125 80.7344V19.4531C82.125 18.996 81.733 18.625 81.25 18.625H35.75C35.267 18.625 34.875 18.996 34.875 19.4531V80.7344C34.875 81.1915 35.267 81.5625 35.75 81.5625ZM36.625 20.2812H80.375V79.9062H36.625V20.2812Z" fill="#0071E3"/>
<path d="M58.5543 83.2188C56.624 83.2188 55.0543 84.7044 55.0543 86.5312C55.0543 88.3581 56.624 89.8438 58.5543 89.8438C60.4845 89.8438 62.0543 88.3581 62.0543 86.5312C62.0543 84.7044 60.4845 83.2188 58.5543 83.2188ZM58.5543 88.1875C57.59 88.1875 56.8043 87.4455 56.8043 86.5312C56.8043 85.617 57.59 84.875 58.5543 84.875C59.5185 84.875 60.3043 85.617 60.3043 86.5312C60.3043 87.4455 59.5203 88.1875 58.5543 88.1875Z" fill="#0071E3"/>
<path d="M16.5 21.1094C17.4665 21.1094 18.25 20.3678 18.25 19.4531C18.25 18.5384 17.4665 17.7969 16.5 17.7969C15.5335 17.7969 14.75 18.5384 14.75 19.4531C14.75 20.3678 15.5335 21.1094 16.5 21.1094Z" fill="#0071E3"/>
<path d="M8.625 32.7031C8.625 33.1602 9.017 33.5312 9.5 33.5312C9.983 33.5312 10.375 33.1602 10.375 32.7031V26.0781C10.375 25.621 9.983 25.25 9.5 25.25C9.017 25.25 8.625 25.621 8.625 26.0781V32.7031Z" fill="#0071E3"/>
<path d="M9.5 23.5938C9.98325 23.5938 10.375 23.223 10.375 22.7656C10.375 22.3083 9.98325 21.9375 9.5 21.9375C9.01675 21.9375 8.625 22.3083 8.625 22.7656C8.625 23.223 9.01675 23.5938 9.5 23.5938Z" fill="#0071E3"/>
<path d="M31.25 132.473H32.9492V143H31.25V132.473ZM32.0996 130.773C31.9499 130.773 31.8099 130.747 31.6797 130.695C31.5495 130.637 31.4355 130.559 31.3379 130.461C31.2402 130.363 31.1621 130.249 31.1035 130.119C31.0514 129.989 31.0254 129.849 31.0254 129.699C31.0254 129.549 31.0514 129.41 31.1035 129.279C31.1621 129.149 31.2402 129.035 31.3379 128.938C31.4355 128.84 31.5495 128.765 31.6797 128.713C31.8099 128.654 31.9499 128.625 32.0996 128.625C32.2493 128.625 32.3893 128.654 32.5195 128.713C32.6497 128.765 32.7637 128.84 32.8613 128.938C32.959 129.035 33.0339 129.149 33.0859 129.279C33.1445 129.41 33.1738 129.549 33.1738 129.699C33.1738 129.849 33.1445 129.989 33.0859 130.119C33.0339 130.249 32.959 130.363 32.8613 130.461C32.7637 130.559 32.6497 130.637 32.5195 130.695C32.3893 130.747 32.2493 130.773 32.0996 130.773ZM40.8887 128.908C41.5527 128.908 42.1582 129.019 42.7051 129.24C43.2585 129.462 43.7337 129.771 44.1309 130.168C44.5345 130.565 44.847 131.044 45.0684 131.604C45.2897 132.157 45.4004 132.766 45.4004 133.43C45.4004 134.1 45.2865 134.715 45.0586 135.275C44.8372 135.829 44.5247 136.307 44.1211 136.711C43.724 137.108 43.2487 137.417 42.6953 137.639C42.1419 137.86 41.5332 137.971 40.8691 137.971H37.3242V143H35.5664V128.908H40.8887ZM37.3242 136.408H40.4297C40.931 136.408 41.377 136.343 41.7676 136.213C42.1647 136.076 42.4967 135.881 42.7637 135.627C43.0371 135.367 43.2422 135.054 43.3789 134.689C43.5221 134.318 43.5938 133.898 43.5938 133.43C43.5938 132.492 43.3203 131.766 42.7734 131.252C42.2266 130.731 41.4453 130.471 40.4297 130.471H37.3242V136.408ZM49.7656 141.623C50.1953 141.623 50.5924 141.558 50.957 141.428C51.3216 141.298 51.6341 141.115 51.8945 140.881C52.1615 140.646 52.3698 140.37 52.5195 140.051C52.6693 139.725 52.7441 139.374 52.7441 138.996V138.146L49.9902 138.322C49.196 138.374 48.597 138.544 48.1934 138.83C47.7897 139.11 47.5879 139.504 47.5879 140.012C47.5879 140.259 47.6367 140.48 47.7344 140.676C47.8385 140.871 47.985 141.04 48.1738 141.184C48.3691 141.327 48.6003 141.438 48.8672 141.516C49.1341 141.587 49.4336 141.623 49.7656 141.623ZM49.4043 143.098C48.8704 143.098 48.3854 143.026 47.9492 142.883C47.513 142.733 47.1387 142.525 46.8262 142.258C46.5137 141.984 46.2728 141.659 46.1035 141.281C45.9342 140.897 45.8496 140.471 45.8496 140.002C45.8496 139.09 46.1849 138.378 46.8555 137.863C47.526 137.349 48.5059 137.053 49.7949 136.975L52.7441 136.799V135.92C52.7441 135.262 52.5358 134.761 52.1191 134.416C51.709 134.064 51.1133 133.889 50.332 133.889C50.026 133.889 49.7428 133.928 49.4824 134.006C49.222 134.077 48.9876 134.185 48.7793 134.328C48.5775 134.465 48.4082 134.634 48.2715 134.836C48.1413 135.038 48.0501 135.262 47.998 135.51H46.3672C46.3802 135.067 46.4909 134.654 46.6992 134.27C46.9076 133.885 47.1908 133.553 47.5488 133.273C47.9069 132.993 48.3236 132.775 48.7988 132.619C49.2806 132.456 49.7982 132.375 50.3516 132.375C50.9766 132.375 51.5397 132.456 52.041 132.619C52.5423 132.775 52.972 133.003 53.3301 133.303C53.6882 133.596 53.9616 133.954 54.1504 134.377C54.3457 134.794 54.4434 135.259 54.4434 135.773V143H52.832V141.174H52.793C52.6432 141.467 52.4512 141.734 52.2168 141.975C51.9824 142.209 51.7188 142.411 51.4258 142.58C51.1328 142.743 50.8138 142.87 50.4688 142.961C50.1302 143.052 49.7754 143.098 49.4043 143.098ZM60.6934 143.098C60.0293 143.098 59.4206 142.971 58.8672 142.717C58.3203 142.456 57.8451 142.092 57.4414 141.623C57.0443 141.154 56.735 140.591 56.5137 139.934C56.2923 139.27 56.1816 138.537 56.1816 137.736C56.1816 136.936 56.2923 136.206 56.5137 135.549C56.735 134.885 57.041 134.318 57.4316 133.85C57.8288 133.381 58.3008 133.02 58.8477 132.766C59.3945 132.505 59.9967 132.375 60.6543 132.375C61.4095 132.375 62.0768 132.531 62.6562 132.844C63.2357 133.156 63.6882 133.602 64.0137 134.182H64.0527V128.293H65.752V143H64.1309V141.223H64.1016C63.7565 141.835 63.2943 142.3 62.7148 142.619C62.1354 142.938 61.4616 143.098 60.6934 143.098ZM60.9961 133.889C60.5339 133.889 60.1139 133.98 59.7363 134.162C59.3587 134.344 59.0332 134.605 58.7598 134.943C58.4928 135.275 58.2845 135.679 58.1348 136.154C57.9915 136.63 57.9199 137.157 57.9199 137.736C57.9199 138.322 57.9915 138.853 58.1348 139.328C58.2845 139.797 58.4928 140.201 58.7598 140.539C59.0332 140.871 59.3587 141.128 59.7363 141.311C60.1139 141.493 60.5339 141.584 60.9961 141.584C61.4518 141.584 61.8685 141.493 62.2461 141.311C62.6237 141.122 62.946 140.858 63.2129 140.52C63.4798 140.181 63.6882 139.777 63.8379 139.309C63.9876 138.833 64.0625 138.309 64.0625 137.736C64.0625 137.163 63.9876 136.643 63.8379 136.174C63.6882 135.699 63.4798 135.292 63.2129 134.953C62.946 134.615 62.6237 134.354 62.2461 134.172C61.8685 133.983 61.4518 133.889 60.9961 133.889Z" fill="black"/>
</svg>
