<svg width="99" height="130" viewBox="0 0 99 130" fill="none" xmlns="http://www.w3.org/2000/svg">
<path d="M79.6641 13.4375C79.6641 11.5845 77.93 10.0781 75.7969 10.0781H68.0625H52.5938H44.8594C42.7278 10.0781 40.9922 11.5845 40.9922 13.4375V72.5625C40.9922 74.4155 42.7278 75.9219 44.8594 75.9219H75.7969C77.93 75.9219 79.6641 74.4155 79.6641 72.5625V13.4375ZM66.9905 11.4219L66.4878 12.732C66.1722 13.5558 65.2874 14.1094 64.2866 14.1094H56.3712C55.3719 14.1094 54.4856 13.5558 54.17 12.732L53.6657 11.4219H66.9905ZM78.1172 72.5625C78.1172 73.6738 77.0761 74.5781 75.7969 74.5781H44.8594C43.5801 74.5781 42.5391 73.6738 42.5391 72.5625V13.4375C42.5391 12.3262 43.5801 11.4219 44.8594 11.4219H52.0353L52.7005 13.1567C53.2295 14.53 54.7037 15.4531 56.3697 15.4531H64.285C65.951 15.4531 67.4252 14.53 67.9542 13.1567L68.6194 11.4219H75.7969C77.0761 11.4219 78.1172 12.3262 78.1172 13.4375V72.5625Z" fill="#0071E3"/>
<path d="M39.4453 10.75C39.4453 10.3791 39.0988 10.0781 38.6719 10.0781H23.2031C21.0715 10.0781 19.3359 11.5845 19.3359 13.4375V72.5625C19.3359 74.4155 21.0715 75.9219 23.2031 75.9219H38.6719C39.0988 75.9219 39.4453 75.6209 39.4453 75.25C39.4453 74.8791 39.0988 74.5781 38.6719 74.5781H23.2031C21.9239 74.5781 20.8828 73.6738 20.8828 72.5625V13.4375C20.8828 12.3262 21.9239 11.4219 23.2031 11.4219H38.6719C39.0988 11.4219 39.4453 11.1209 39.4453 10.75Z" fill="#0071E3"/>
<path d="M68.0625 70.5469H52.5938C52.1668 70.5469 51.8203 70.8479 51.8203 71.2188C51.8203 71.5896 52.1668 71.8906 52.5938 71.8906H68.0625C68.4894 71.8906 68.8359 71.5896 68.8359 71.2188C68.8359 70.8479 68.4894 70.5469 68.0625 70.5469Z" fill="#0071E3"/>
<path d="M34.0374 18.1379C34.4646 18.1379 34.8109 17.8371 34.8109 17.4661C34.8109 17.095 34.4646 16.7942 34.0374 16.7942C33.6103 16.7942 33.264 17.095 33.264 17.4661C33.264 17.8371 33.6103 18.1379 34.0374 18.1379Z" fill="#0071E3"/>
<path d="M27.8438 14.1094C25.7122 14.1094 23.9766 15.6157 23.9766 17.4688V22.8438C23.9766 24.6968 25.7122 26.2031 27.8438 26.2031H34.0312C36.1628 26.2031 37.8984 24.6968 37.8984 22.8438V17.4688C37.8984 15.6157 36.1628 14.1094 34.0312 14.1094H27.8438ZM36.3516 17.4688V22.8438C36.3516 23.955 35.3105 24.8594 34.0312 24.8594H27.8438C26.5645 24.8594 25.5234 23.955 25.5234 22.8438V17.4688C25.5234 16.3575 26.5645 15.4531 27.8438 15.4531H34.0312C35.3105 15.4531 36.3516 16.3575 36.3516 17.4688Z" fill="#0071E3"/>
<path d="M20.25 115.473H21.9492V126H20.25V115.473ZM21.0996 113.773C20.9499 113.773 20.8099 113.747 20.6797 113.695C20.5495 113.637 20.4355 113.559 20.3379 113.461C20.2402 113.363 20.1621 113.249 20.1035 113.119C20.0514 112.989 20.0254 112.849 20.0254 112.699C20.0254 112.549 20.0514 112.41 20.1035 112.279C20.1621 112.149 20.2402 112.035 20.3379 111.938C20.4355 111.84 20.5495 111.765 20.6797 111.713C20.8099 111.654 20.9499 111.625 21.0996 111.625C21.2493 111.625 21.3893 111.654 21.5195 111.713C21.6497 111.765 21.7637 111.84 21.8613 111.938C21.959 112.035 22.0339 112.149 22.0859 112.279C22.1445 112.41 22.1738 112.549 22.1738 112.699C22.1738 112.849 22.1445 112.989 22.0859 113.119C22.0339 113.249 21.959 113.363 21.8613 113.461C21.7637 113.559 21.6497 113.637 21.5195 113.695C21.3893 113.747 21.2493 113.773 21.0996 113.773ZM29.8887 111.908C30.5527 111.908 31.1582 112.019 31.7051 112.24C32.2585 112.462 32.7337 112.771 33.1309 113.168C33.5345 113.565 33.847 114.044 34.0684 114.604C34.2897 115.157 34.4004 115.766 34.4004 116.43C34.4004 117.1 34.2865 117.715 34.0586 118.275C33.8372 118.829 33.5247 119.307 33.1211 119.711C32.724 120.108 32.2487 120.417 31.6953 120.639C31.1419 120.86 30.5332 120.971 29.8691 120.971H26.3242V126H24.5664V111.908H29.8887ZM26.3242 119.408H29.4297C29.931 119.408 30.377 119.343 30.7676 119.213C31.1647 119.076 31.4967 118.881 31.7637 118.627C32.0371 118.367 32.2422 118.054 32.3789 117.689C32.5221 117.318 32.5938 116.898 32.5938 116.43C32.5938 115.492 32.3203 114.766 31.7734 114.252C31.2266 113.731 30.4453 113.471 29.4297 113.471H26.3242V119.408ZM36.3047 111.293H38.0039V117.182H38.043C38.707 115.977 39.8529 115.375 41.4805 115.375C42.0534 115.375 42.5775 115.469 43.0527 115.658C43.528 115.847 43.9349 116.114 44.2734 116.459C44.612 116.798 44.8724 117.208 45.0547 117.689C45.2435 118.165 45.3379 118.695 45.3379 119.281V126H43.6387V119.584C43.6387 119.167 43.5768 118.793 43.4531 118.461C43.3359 118.122 43.1602 117.839 42.9258 117.611C42.6979 117.377 42.418 117.198 42.0859 117.074C41.7604 116.951 41.3893 116.889 40.9727 116.889C40.5299 116.889 40.1263 116.964 39.7617 117.113C39.3971 117.257 39.0846 117.462 38.8242 117.729C38.5638 117.995 38.362 118.318 38.2188 118.695C38.0755 119.066 38.0039 119.483 38.0039 119.945V126H36.3047V111.293ZM51.9297 126.098C51.1875 126.098 50.5169 125.971 49.918 125.717C49.3255 125.463 48.8177 125.105 48.3945 124.643C47.9714 124.174 47.6458 123.611 47.418 122.953C47.1901 122.289 47.0762 121.55 47.0762 120.736C47.0762 119.916 47.1901 119.177 47.418 118.52C47.6458 117.855 47.9714 117.292 48.3945 116.83C48.8177 116.361 49.3255 116.003 49.918 115.756C50.5169 115.502 51.1875 115.375 51.9297 115.375C52.6719 115.375 53.3392 115.502 53.9316 115.756C54.5306 116.003 55.0417 116.361 55.4648 116.83C55.888 117.292 56.2135 117.855 56.4414 118.52C56.6693 119.177 56.7832 119.916 56.7832 120.736C56.7832 121.55 56.6693 122.289 56.4414 122.953C56.2135 123.611 55.888 124.174 55.4648 124.643C55.0417 125.105 54.5306 125.463 53.9316 125.717C53.3392 125.971 52.6719 126.098 51.9297 126.098ZM51.9297 124.584C52.418 124.584 52.8542 124.496 53.2383 124.32C53.6289 124.145 53.9577 123.894 54.2246 123.568C54.498 123.236 54.7031 122.833 54.8398 122.357C54.9831 121.882 55.0547 121.342 55.0547 120.736C55.0547 120.131 54.9831 119.59 54.8398 119.115C54.7031 118.64 54.498 118.236 54.2246 117.904C53.9577 117.572 53.6289 117.322 53.2383 117.152C52.8542 116.977 52.418 116.889 51.9297 116.889C51.4414 116.889 51.002 116.977 50.6113 117.152C50.2272 117.328 49.8984 117.582 49.625 117.914C49.3581 118.24 49.153 118.64 49.0098 119.115C48.873 119.59 48.8047 120.131 48.8047 120.736C48.8047 121.342 48.8763 121.882 49.0195 122.357C49.1628 122.833 49.3678 123.236 49.6348 123.568C49.9017 123.894 50.2272 124.145 50.6113 124.32C51.002 124.496 51.4414 124.584 51.9297 124.584ZM58.5703 115.473H60.1719V117.182H60.2109C60.8815 115.977 62.0273 115.375 63.6484 115.375C64.2279 115.375 64.7487 115.466 65.2109 115.648C65.6732 115.824 66.0671 116.081 66.3926 116.42C66.7181 116.752 66.9655 117.159 67.1348 117.641C67.3105 118.116 67.3984 118.653 67.3984 119.252V126H65.6992V119.545C65.6992 118.679 65.4811 118.021 65.0449 117.572C64.6087 117.117 63.974 116.889 63.1406 116.889C62.7109 116.889 62.3171 116.96 61.959 117.104C61.6074 117.247 61.3047 117.449 61.0508 117.709C60.8034 117.969 60.6113 118.285 60.4746 118.656C60.3379 119.027 60.2695 119.438 60.2695 119.887V126H58.5703V115.473ZM73.8633 116.869C73.4531 116.869 73.0723 116.941 72.7207 117.084C72.3691 117.227 72.0632 117.429 71.8027 117.689C71.5488 117.95 71.3405 118.266 71.1777 118.637C71.0215 119.001 70.9303 119.405 70.9043 119.848H76.6953C76.6823 119.398 76.6042 118.992 76.4609 118.627C76.3242 118.262 76.1322 117.95 75.8848 117.689C75.6374 117.429 75.3411 117.227 74.9961 117.084C74.6576 116.941 74.2799 116.869 73.8633 116.869ZM78.3359 122.992C78.2643 123.441 78.1016 123.858 77.8477 124.242C77.5938 124.62 77.2715 124.949 76.8809 125.229C76.4967 125.502 76.054 125.717 75.5527 125.873C75.0579 126.023 74.5306 126.098 73.9707 126.098C73.2285 126.098 72.5612 125.974 71.9688 125.727C71.3763 125.479 70.8685 125.124 70.4453 124.662C70.0286 124.2 69.7064 123.64 69.4785 122.982C69.2572 122.325 69.1465 121.589 69.1465 120.775C69.1465 119.962 69.2572 119.223 69.4785 118.559C69.7064 117.895 70.0254 117.328 70.4355 116.859C70.8522 116.384 71.3535 116.02 71.9395 115.766C72.5254 115.505 73.1764 115.375 73.8926 115.375C74.5957 115.375 75.2272 115.495 75.7871 115.736C76.3535 115.977 76.8353 116.322 77.2324 116.771C77.6296 117.214 77.9323 117.755 78.1406 118.393C78.3555 119.031 78.4629 119.747 78.4629 120.541V121.205H70.9043V121.303C70.9043 121.804 70.9759 122.26 71.1191 122.67C71.2689 123.074 71.4805 123.419 71.7539 123.705C72.0273 123.992 72.3529 124.213 72.7305 124.369C73.1146 124.525 73.541 124.604 74.0098 124.604C74.3418 124.604 74.651 124.568 74.9375 124.496C75.224 124.418 75.4811 124.311 75.709 124.174C75.9434 124.031 76.1387 123.861 76.2949 123.666C76.4577 123.464 76.5781 123.24 76.6562 122.992H78.3359Z" fill="black"/>
</svg>
