<svg width="46" height="100" viewBox="0 0 46 100" fill="none" xmlns="http://www.w3.org/2000/svg">
<g clip-path="url(#clip0_8_64)">
<path d="M33.7334 0H12.2667C10.1496 0 8.43335 1.71463 8.43335 3.82966V42.126C8.43335 44.241 10.1495 45.9557 12.2667 45.9557H33.7333C35.8504 45.9557 37.5667 44.2411 37.5667 42.126V3.82966C37.5667 1.71463 35.8505 0 33.7334 0ZM36.0334 42.1259C36.0334 43.3949 35.0036 44.4237 33.7334 44.4237H12.2667C10.9965 44.4237 9.96671 43.395 9.96671 42.1259V3.82966C9.96671 2.56068 10.9964 1.53188 12.2667 1.53188H33.7333C35.0036 1.53188 36.0333 2.56068 36.0333 3.82966V42.1259H36.0334Z" fill="#0071E3"/>
<path d="M32.2 2.08887H13.8C12.5297 2.08887 11.5 3.14095 11.5 4.43887V19.3222C11.5 20.62 12.5297 21.6722 13.8 21.6722H32.2C33.4702 21.6722 34.5 20.6201 34.5 19.3222V4.43887C34.5 3.14104 33.4703 2.08887 32.2 2.08887ZM32.9666 19.3223C32.9666 19.7549 32.6234 20.1056 32.2 20.1056H13.8C13.3766 20.1056 13.0334 19.7549 13.0334 19.3223V4.43887C13.0334 4.00623 13.3767 3.65556 13.8 3.65556H32.2C32.6234 3.65556 32.9666 4.00623 32.9666 4.43887V19.3223Z" fill="#0071E3"/>
<path d="M23 23.2389C17.919 23.2389 13.8 27.4474 13.8 32.6389C13.8 37.8304 17.919 42.0389 23 42.0389C28.0811 42.0389 32.2001 37.8304 32.2001 32.6389C32.2001 27.4474 28.0811 23.2389 23 23.2389ZM23 40.4723C18.7659 40.4723 15.3334 36.9652 15.3334 32.639C15.3334 28.3128 18.7659 24.8056 23 24.8056C27.2342 24.8056 30.6667 28.3127 30.6667 32.6389C30.6667 36.9651 27.2342 40.4723 23 40.4723Z" fill="#0071E3"/>
<path d="M23 29.5056C21.3063 29.5056 19.9333 30.9084 19.9333 32.6389C19.9333 34.3693 21.3063 35.7722 23 35.7722C24.6936 35.7722 26.0666 34.3693 26.0666 32.6389C26.0666 30.9084 24.6936 29.5056 23 29.5056ZM23 34.2056C22.1531 34.2056 21.4666 33.5041 21.4666 32.6389C21.4666 31.7736 22.1531 31.0722 23 31.0722C23.8468 31.0722 24.5333 31.7736 24.5333 32.6389C24.5333 33.5041 23.8468 34.2056 23 34.2056Z" fill="#0071E3"/>
</g>
<path d="M4.25 85.4727H5.94922V96H4.25V85.4727ZM5.09961 83.7734C4.94987 83.7734 4.8099 83.7474 4.67969 83.6953C4.54948 83.6367 4.43555 83.5586 4.33789 83.4609C4.24023 83.3633 4.16211 83.2493 4.10352 83.1191C4.05143 82.9889 4.02539 82.849 4.02539 82.6992C4.02539 82.5495 4.05143 82.4095 4.10352 82.2793C4.16211 82.1491 4.24023 82.0352 4.33789 81.9375C4.43555 81.8398 4.54948 81.765 4.67969 81.7129C4.8099 81.6543 4.94987 81.625 5.09961 81.625C5.24935 81.625 5.38932 81.6543 5.51953 81.7129C5.64974 81.765 5.76367 81.8398 5.86133 81.9375C5.95898 82.0352 6.03385 82.1491 6.08594 82.2793C6.14453 82.4095 6.17383 82.5495 6.17383 82.6992C6.17383 82.849 6.14453 82.9889 6.08594 83.1191C6.03385 83.2493 5.95898 83.3633 5.86133 83.4609C5.76367 83.5586 5.64974 83.6367 5.51953 83.6953C5.38932 83.7474 5.24935 83.7734 5.09961 83.7734ZM13.8887 81.9082C14.5527 81.9082 15.1582 82.0189 15.7051 82.2402C16.2585 82.4616 16.7337 82.7708 17.1309 83.168C17.5345 83.5651 17.847 84.0436 18.0684 84.6035C18.2897 85.1569 18.4004 85.7656 18.4004 86.4297C18.4004 87.1003 18.2865 87.7155 18.0586 88.2754C17.8372 88.8288 17.5247 89.3073 17.1211 89.7109C16.724 90.1081 16.2487 90.4173 15.6953 90.6387C15.1419 90.86 14.5332 90.9707 13.8691 90.9707H10.3242V96H8.56641V81.9082H13.8887ZM10.3242 89.4082H13.4297C13.931 89.4082 14.377 89.3431 14.7676 89.2129C15.1647 89.0762 15.4967 88.8809 15.7637 88.627C16.0371 88.3665 16.2422 88.054 16.3789 87.6895C16.5221 87.3184 16.5938 86.8984 16.5938 86.4297C16.5938 85.4922 16.3203 84.7663 15.7734 84.252C15.2266 83.7311 14.4453 83.4707 13.4297 83.4707H10.3242V89.4082ZM24.0547 96.0977C23.3125 96.0977 22.6419 95.9707 22.043 95.7168C21.4505 95.4629 20.9427 95.1048 20.5195 94.6426C20.0964 94.1738 19.7708 93.6107 19.543 92.9531C19.3151 92.2891 19.2012 91.5501 19.2012 90.7363C19.2012 89.916 19.3151 89.1771 19.543 88.5195C19.7708 87.8555 20.0964 87.2923 20.5195 86.8301C20.9427 86.3613 21.4505 86.0033 22.043 85.7559C22.6419 85.502 23.3125 85.375 24.0547 85.375C24.7969 85.375 25.4642 85.502 26.0566 85.7559C26.6556 86.0033 27.1667 86.3613 27.5898 86.8301C28.013 87.2923 28.3385 87.8555 28.5664 88.5195C28.7943 89.1771 28.9082 89.916 28.9082 90.7363C28.9082 91.5501 28.7943 92.2891 28.5664 92.9531C28.3385 93.6107 28.013 94.1738 27.5898 94.6426C27.1667 95.1048 26.6556 95.4629 26.0566 95.7168C25.4642 95.9707 24.7969 96.0977 24.0547 96.0977ZM24.0547 94.584C24.543 94.584 24.9792 94.4961 25.3633 94.3203C25.7539 94.1445 26.0827 93.8939 26.3496 93.5684C26.623 93.2363 26.8281 92.8327 26.9648 92.3574C27.1081 91.8822 27.1797 91.3418 27.1797 90.7363C27.1797 90.1309 27.1081 89.5905 26.9648 89.1152C26.8281 88.64 26.623 88.2363 26.3496 87.9043C26.0827 87.5723 25.7539 87.3216 25.3633 87.1523C24.9792 86.9766 24.543 86.8887 24.0547 86.8887C23.5664 86.8887 23.127 86.9766 22.7363 87.1523C22.3522 87.3281 22.0234 87.582 21.75 87.9141C21.4831 88.2396 21.278 88.64 21.1348 89.1152C20.998 89.5905 20.9297 90.1309 20.9297 90.7363C20.9297 91.3418 21.0013 91.8822 21.1445 92.3574C21.2878 92.8327 21.4928 93.2363 21.7598 93.5684C22.0267 93.8939 22.3522 94.1445 22.7363 94.3203C23.127 94.4961 23.5664 94.584 24.0547 94.584ZM34.6895 96.0977C34.0254 96.0977 33.4167 95.9707 32.8633 95.7168C32.3164 95.4564 31.8411 95.0918 31.4375 94.623C31.0404 94.1543 30.7311 93.5911 30.5098 92.9336C30.2884 92.2695 30.1777 91.5371 30.1777 90.7363C30.1777 89.9355 30.2884 89.2064 30.5098 88.5488C30.7311 87.8848 31.0371 87.3184 31.4277 86.8496C31.8249 86.3809 32.2969 86.0195 32.8438 85.7656C33.3906 85.5052 33.9928 85.375 34.6504 85.375C35.4056 85.375 36.0729 85.5312 36.6523 85.8438C37.2318 86.1562 37.6842 86.6022 38.0098 87.1816H38.0488V81.293H39.748V96H38.127V94.2227H38.0977C37.7526 94.8346 37.2904 95.3001 36.7109 95.6191C36.1315 95.9382 35.4577 96.0977 34.6895 96.0977ZM34.9922 86.8887C34.5299 86.8887 34.11 86.9798 33.7324 87.1621C33.3548 87.3444 33.0293 87.6048 32.7559 87.9434C32.4889 88.2754 32.2806 88.679 32.1309 89.1543C31.9876 89.6296 31.916 90.1569 31.916 90.7363C31.916 91.3223 31.9876 91.8529 32.1309 92.3281C32.2806 92.7969 32.4889 93.2005 32.7559 93.5391C33.0293 93.8711 33.3548 94.1283 33.7324 94.3105C34.11 94.4928 34.5299 94.584 34.9922 94.584C35.4479 94.584 35.8646 94.4928 36.2422 94.3105C36.6198 94.1217 36.9421 93.8581 37.209 93.5195C37.4759 93.181 37.6842 92.7773 37.834 92.3086C37.9837 91.8333 38.0586 91.3092 38.0586 90.7363C38.0586 90.1634 37.9837 89.6426 37.834 89.1738C37.6842 88.6986 37.4759 88.2917 37.209 87.9531C36.9421 87.6146 36.6198 87.3542 36.2422 87.1719C35.8646 86.9831 35.4479 86.8887 34.9922 86.8887Z" fill="black"/>
<defs>
<clipPath id="clip0_8_64">
<rect width="46" height="47" fill="white"/>
</clipPath>
</defs>
</svg>
