<svg width="79" height="110" viewBox="0 0 79 110" fill="none" xmlns="http://www.w3.org/2000/svg">
<path d="M62.2237 44.0052H23.2517C22.7586 44.0052 22.3589 44.372 22.3589 44.8248C22.3589 45.2776 22.7586 45.6445 23.2517 45.6445H62.2237C62.717 45.6445 63.1166 45.2776 63.1166 44.8248C63.1166 44.372 62.717 44.0052 62.2237 44.0052Z" fill="#0071E3"/>
<path d="M41.868 27.1722C40.9045 26.8009 40.288 25.9409 40.2978 24.9818C40.3054 24.2188 40.7193 23.5035 41.4045 23.0687C41.7087 22.8759 41.8953 22.5721 41.9163 22.2349C41.9374 21.8989 41.7906 21.5788 41.514 21.3565C40.7822 20.7684 39.8855 20.3879 38.9337 20.2516C39.0047 20.1867 39.0742 20.1204 39.1407 20.0504C40.0182 19.1261 40.3656 17.881 40.1187 16.5446C40.0168 15.9917 39.4794 15.5615 38.8685 15.544C37.3951 15.5016 36.0964 15.9878 35.2189 16.9123C34.3624 17.8144 34.0124 19.0227 34.2257 20.3231C34.0358 20.2752 33.84 20.234 33.6367 20.2054C33.3889 20.1707 33.1436 20.152 32.9073 20.1498C32.891 20.1497 32.875 20.1496 32.8588 20.1496C30.1339 20.1496 27.898 22.091 27.7501 24.5907C27.3661 28.4572 30.5022 31.6921 30.7767 31.9669C31.2806 32.5043 32.0095 32.8158 32.7798 32.8224C32.8654 32.8219 32.9557 32.8195 33.0528 32.8112C33.0737 32.8094 33.0946 32.8072 33.1181 32.8042C33.1942 32.7959 33.2651 32.7855 33.335 32.7726L33.3814 32.7635C33.4644 32.7467 33.5455 32.7266 33.6223 32.7039C33.6254 32.703 33.6286 32.7021 33.6317 32.7012C33.7263 32.673 33.8117 32.6432 33.8906 32.6112C33.8952 32.6092 33.9052 32.6052 33.9099 32.6034L33.9931 32.5695C34.9073 32.1989 35.9517 32.2079 36.8579 32.5937L36.9407 32.629C36.9451 32.631 36.9495 32.6327 36.9528 32.6341C36.9557 32.6354 36.9584 32.6365 36.9602 32.6373C36.9669 32.64 36.9736 32.6429 36.9802 32.6455C37.0518 32.6754 37.1268 32.7028 37.2086 32.729C37.2118 32.7301 37.2151 32.7312 37.2183 32.732C37.2974 32.7571 37.3808 32.7795 37.4673 32.7984L37.5134 32.8084C37.5832 32.8224 37.6559 32.8342 37.7274 32.8432C37.7499 32.8463 37.7725 32.8493 37.7919 32.8511C37.8889 32.8612 37.9785 32.8664 38.066 32.8672C38.0743 32.8672 38.0824 32.8673 38.0907 32.8673C38.8591 32.8672 39.5901 32.5636 40.0996 32.0317L40.099 32.0312C40.3923 31.7427 41.6573 30.4344 42.5001 28.5898C42.751 28.0392 42.4676 27.4033 41.868 27.1722ZM36.5649 17.9894C37.0063 17.5245 37.6496 17.2477 38.4043 17.1916C38.4466 17.8858 38.2359 18.5086 37.7946 18.9734C37.3531 19.4383 36.7099 19.715 35.9551 19.7712C35.9129 19.077 36.1235 18.4541 36.5649 17.9894ZM38.7877 30.92C38.7777 30.9295 38.7681 30.9392 38.7585 30.9491C38.5884 31.1266 38.3452 31.2281 38.0905 31.2281C38.0878 31.2281 38.085 31.2281 38.0823 31.228C38.0588 31.2278 38.0319 31.2263 37.9979 31.223L37.9695 31.2192C37.9449 31.2161 37.9206 31.2123 37.9017 31.2084L37.8826 31.2043C37.855 31.1982 37.8289 31.1915 37.8053 31.184C37.8031 31.1833 37.801 31.1826 37.799 31.182C37.7655 31.1714 37.7369 31.1611 37.7141 31.1511C37.7067 31.1481 37.6995 31.145 37.6921 31.142L37.6092 31.1067C36.2368 30.5223 34.6558 30.5089 33.2714 31.07L33.1845 31.1052C33.1782 31.1076 33.1721 31.1101 33.1659 31.1125C33.1445 31.1213 33.1175 31.1307 33.0855 31.1404C33.083 31.1411 33.0806 31.1418 33.0781 31.1426C33.0537 31.1498 33.0262 31.1567 32.9964 31.1627C32.9949 31.163 32.9824 31.1655 32.9809 31.1658C32.9567 31.1703 32.9323 31.1735 32.909 31.1762L32.8811 31.1795C32.8477 31.1821 32.8198 31.1827 32.7965 31.1831C32.5387 31.1809 32.2941 31.0751 32.1257 30.8926C32.1172 30.8833 32.1074 30.8731 32.0983 30.8641C32.0693 30.8354 29.2007 27.9549 29.53 24.7263C29.5312 24.7147 29.5322 24.703 29.5328 24.6913C29.6227 23.0584 31.0812 21.7888 32.8592 21.7888C32.8696 21.7888 32.8802 21.7889 32.8909 21.789C33.0445 21.7903 33.2003 21.8023 33.3672 21.8258C33.5358 21.8495 33.6966 21.8829 33.8433 21.9245C33.8699 21.9321 33.8959 21.9407 33.922 21.9493L34.0222 21.9806C34.0755 21.999 34.1277 22.019 34.176 22.0381C34.1826 22.0406 34.1951 22.0455 34.2055 22.0493C34.2597 22.0713 34.3129 22.0946 34.3655 22.1191C34.3661 22.1194 34.3668 22.1197 34.3675 22.1201C34.7667 22.3165 35.1433 22.4154 35.5179 22.4225C35.5247 22.4226 35.5322 22.4223 35.5382 22.4227C35.9136 22.4219 36.2931 22.3291 36.6976 22.1385C36.7502 22.115 36.8034 22.0929 36.8554 22.0728C36.8662 22.0691 36.8765 22.0654 36.8846 22.0622C36.9365 22.0426 36.9888 22.0237 37.0402 22.0071L37.1399 21.9775C37.1673 21.9692 37.1944 21.9607 37.2207 21.9536C37.3698 21.914 37.5315 21.8833 37.7009 21.8624C37.8673 21.8418 38.0229 21.8321 38.1772 21.8337C38.732 21.8383 39.2731 21.9703 39.7527 22.213C38.9755 22.9432 38.523 23.9285 38.5125 24.9662C38.498 26.4011 39.3091 27.7049 40.6216 28.4254C39.8401 29.9021 38.8114 30.8974 38.7877 30.92Z" fill="#0071E3"/>
<path d="M58.7744 2.21971C58.7144 2.19073 56.4561 0.030684 52.6904 0.030684C48.9012 0.0311215 15.3987 0.0177778 17.0473 0.0834027C13.4478 0.452761 10.4748 2.8029 9.45838 5.84144C8.77987 7.83512 9.05652 7.90972 9.05306 34.7858C9.05306 35.2385 9.45278 35.6055 9.9459 35.6055C10.439 35.6055 10.8387 35.2387 10.8387 34.7858C10.9523 2.94049 10.4995 9.55078 11.3021 5.96427C12.5771 2.87115 15.6011 2.08135 15.6388 2.05401C18.0023 1.27865 17.8369 1.8766 52.6905 1.66999C53.4106 1.66999 54.1245 1.77007 54.8026 1.96235C54.8374 1.98335 57.3198 2.55145 58.8516 4.86439C59.0917 5.31907 59.7698 6.15436 59.891 7.97578C59.9055 8.26114 59.8975 8.30631 59.8998 9.17792C59.8998 9.63073 60.2994 9.99757 60.7926 9.99757C61.2859 9.99757 61.6855 9.63073 61.6855 9.17792C61.6252 8.82158 62.1715 5.08839 58.7744 2.21971Z" fill="#0071E3"/>
<path d="M67.5427 40.8698H61.644C61.7172 40.1668 61.6731 41.8083 61.6852 13.0024C61.6852 12.5496 61.2856 12.1827 60.7923 12.1827C60.2991 12.1827 59.8995 12.5496 59.8995 13.0024C59.8523 40.7208 59.9683 39.9232 59.8487 40.8698H17.9326C16.5778 40.8698 15.4755 41.8817 15.4755 43.1254V46.2702C12.7505 45.3083 10.8384 42.8763 10.8384 40.0909V38.6106C10.8384 38.1578 10.4387 37.791 9.94557 37.791C9.45245 37.791 9.05273 38.1578 9.05273 38.6106V40.0909C9.05273 43.7434 11.6959 46.9592 15.4755 48.0008V50.4837C15.4755 51.7275 16.5778 52.7395 17.9326 52.7395H22.6433C23.6076 54.6942 25.7227 55.9705 28.0951 55.9705H50.9719C51.4652 55.9705 51.8648 55.6037 51.8648 55.1508C51.8648 54.698 51.4652 54.3312 50.9719 54.3312H28.0952C26.7234 54.3312 25.4735 53.7223 24.6972 52.7395H60.7783C60.0019 53.7225 58.7522 54.3312 57.3803 54.3312H55.1386C54.6454 54.3312 54.2458 54.698 54.2458 55.1508C54.2458 55.6037 54.6454 55.9705 55.1386 55.9705H57.3803C59.7526 55.9705 61.8678 54.6941 62.832 52.7395H67.5427C68.8976 52.7395 69.9998 51.7274 69.9998 50.4837V43.1254C69.9998 41.8816 68.8976 40.8698 67.5427 40.8698ZM68.2142 50.4836C68.2142 50.8234 67.913 51.1 67.5427 51.1C65.2662 51.1 19.9336 51.1 17.9327 51.1C17.5625 51.1 17.2613 50.8235 17.2613 50.4836C17.2613 49.0008 17.2613 44.6006 17.2613 43.1254C17.2613 42.7856 17.5625 42.5091 17.9327 42.5091C21.2689 42.5091 65.5616 42.5091 67.5427 42.5091C67.9129 42.5091 68.2142 42.7856 68.2142 43.1254V50.4836Z" fill="#0071E3"/>
<path d="M15.2539 106H13.6133V95.1406H13.5449L9.05273 105.902H7.56836L3.07617 95.1406H3.00781V106H1.36719V91.9082H3.4082L8.27148 103.666H8.34961L13.2129 91.9082H15.2539V106ZM21.2109 104.623C21.6406 104.623 22.0378 104.558 22.4023 104.428C22.7669 104.298 23.0794 104.115 23.3398 103.881C23.6068 103.646 23.8151 103.37 23.9648 103.051C24.1146 102.725 24.1895 102.374 24.1895 101.996V101.146L21.4355 101.322C20.6413 101.374 20.0423 101.544 19.6387 101.83C19.235 102.11 19.0332 102.504 19.0332 103.012C19.0332 103.259 19.082 103.48 19.1797 103.676C19.2839 103.871 19.4303 104.04 19.6191 104.184C19.8145 104.327 20.0456 104.438 20.3125 104.516C20.5794 104.587 20.8789 104.623 21.2109 104.623ZM20.8496 106.098C20.3158 106.098 19.8307 106.026 19.3945 105.883C18.9583 105.733 18.584 105.525 18.2715 105.258C17.959 104.984 17.7181 104.659 17.5488 104.281C17.3796 103.897 17.2949 103.471 17.2949 103.002C17.2949 102.09 17.6302 101.378 18.3008 100.863C18.9714 100.349 19.9512 100.053 21.2402 99.9746L24.1895 99.7988V98.9199C24.1895 98.2624 23.9811 97.7611 23.5645 97.416C23.1543 97.0645 22.5586 96.8887 21.7773 96.8887C21.4714 96.8887 21.1882 96.9277 20.9277 97.0059C20.6673 97.0775 20.4329 97.1849 20.2246 97.3281C20.0228 97.4648 19.8535 97.6341 19.7168 97.8359C19.5866 98.0378 19.4954 98.2624 19.4434 98.5098H17.8125C17.8255 98.0671 17.9362 97.6536 18.1445 97.2695C18.3529 96.8854 18.6361 96.5534 18.9941 96.2734C19.3522 95.9935 19.7689 95.7754 20.2441 95.6191C20.7259 95.4564 21.2435 95.375 21.7969 95.375C22.4219 95.375 22.985 95.4564 23.4863 95.6191C23.9876 95.7754 24.4173 96.0033 24.7754 96.3027C25.1335 96.5957 25.4069 96.9538 25.5957 97.377C25.791 97.7936 25.8887 98.2591 25.8887 98.7734V106H24.2773V104.174H24.2383C24.0885 104.467 23.8965 104.734 23.6621 104.975C23.4277 105.209 23.1641 105.411 22.8711 105.58C22.5781 105.743 22.2591 105.87 21.9141 105.961C21.5755 106.052 21.2207 106.098 20.8496 106.098ZM35.1758 98.9004C35.1237 98.6204 35.026 98.36 34.8828 98.1191C34.7396 97.8717 34.5508 97.6569 34.3164 97.4746C34.0885 97.2923 33.8184 97.1491 33.5059 97.0449C33.1934 96.9408 32.8385 96.8887 32.4414 96.8887C31.9792 96.8887 31.5592 96.9798 31.1816 97.1621C30.804 97.3444 30.4785 97.6048 30.2051 97.9434C29.9382 98.2754 29.7298 98.679 29.5801 99.1543C29.4303 99.6296 29.3555 100.157 29.3555 100.736C29.3555 101.335 29.4303 101.872 29.5801 102.348C29.7298 102.823 29.9414 103.227 30.2148 103.559C30.4883 103.891 30.8138 104.145 31.1914 104.32C31.5755 104.496 31.9987 104.584 32.4609 104.584C33.1966 104.584 33.7988 104.418 34.2676 104.086C34.7363 103.754 35.0456 103.269 35.1953 102.631H36.8652C36.7936 103.145 36.6341 103.614 36.3867 104.037C36.1458 104.46 35.8333 104.825 35.4492 105.131C35.0651 105.437 34.6191 105.674 34.1113 105.844C33.6035 106.013 33.0501 106.098 32.4512 106.098C31.7285 106.098 31.071 105.974 30.4785 105.727C29.8861 105.479 29.3783 105.124 28.9551 104.662C28.5319 104.193 28.2031 103.63 27.9688 102.973C27.7409 102.309 27.627 101.563 27.627 100.736C27.627 99.929 27.7409 99.1966 27.9688 98.5391C28.2031 97.875 28.5286 97.3086 28.9453 96.8398C29.3685 96.3711 29.873 96.0098 30.459 95.7559C31.0514 95.502 31.709 95.375 32.4316 95.375C33.0827 95.375 33.6686 95.4727 34.1895 95.668C34.7103 95.8633 35.1595 96.1237 35.5371 96.4492C35.9147 96.7747 36.2142 97.1491 36.4355 97.5723C36.6569 97.9954 36.7936 98.4382 36.8457 98.9004H35.1758ZM43.2812 95.4727H44.8828V97.1816H44.9219C45.0456 96.9017 45.2051 96.651 45.4004 96.4297C45.6022 96.2018 45.8301 96.0098 46.084 95.8535C46.3444 95.6973 46.6276 95.5801 46.9336 95.502C47.2396 95.4173 47.5651 95.375 47.9102 95.375C48.6263 95.375 49.2383 95.5475 49.7461 95.8926C50.2604 96.2376 50.6315 96.7292 50.8594 97.3672H50.8984C51.1979 96.7357 51.6374 96.2474 52.2168 95.9023C52.8027 95.5508 53.4668 95.375 54.209 95.375C54.7298 95.375 55.2018 95.4564 55.625 95.6191C56.0482 95.7819 56.4062 96.013 56.6992 96.3125C56.9987 96.612 57.2298 96.9733 57.3926 97.3965C57.5553 97.8197 57.6367 98.2917 57.6367 98.8125V106H55.9375V99.2031C55.9375 98.474 55.7454 97.9076 55.3613 97.5039C54.9772 97.0938 54.4303 96.8887 53.7207 96.8887C53.3691 96.8887 53.0436 96.9505 52.7441 97.0742C52.4512 97.1979 52.1973 97.3704 51.9824 97.5918C51.7741 97.8132 51.6081 98.0768 51.4844 98.3828C51.3672 98.6888 51.3086 99.0208 51.3086 99.3789V106H49.6094V98.998C49.6094 98.679 49.5573 98.3926 49.4531 98.1387C49.349 97.8783 49.1992 97.6569 49.0039 97.4746C48.8151 97.2858 48.5872 97.1426 48.3203 97.0449C48.0534 96.9408 47.7539 96.8887 47.4219 96.8887C47.0703 96.8887 46.7448 96.9538 46.4453 97.084C46.1458 97.2142 45.8887 97.3965 45.6738 97.6309C45.459 97.8587 45.2897 98.1289 45.166 98.4414C45.0423 98.7539 44.9805 99.0957 44.9805 99.4668V106H43.2812V95.4727ZM60 95.4727H61.6992V106H60V95.4727ZM60.8496 93.7734C60.6999 93.7734 60.5599 93.7474 60.4297 93.6953C60.2995 93.6367 60.1855 93.5586 60.0879 93.4609C59.9902 93.3633 59.9121 93.2493 59.8535 93.1191C59.8014 92.9889 59.7754 92.849 59.7754 92.6992C59.7754 92.5495 59.8014 92.4095 59.8535 92.2793C59.9121 92.1491 59.9902 92.0352 60.0879 91.9375C60.1855 91.8398 60.2995 91.765 60.4297 91.7129C60.5599 91.6543 60.6999 91.625 60.8496 91.625C60.9993 91.625 61.1393 91.6543 61.2695 91.7129C61.3997 91.765 61.5137 91.8398 61.6113 91.9375C61.709 92.0352 61.7839 92.1491 61.8359 92.2793C61.8945 92.4095 61.9238 92.5495 61.9238 92.6992C61.9238 92.849 61.8945 92.9889 61.8359 93.1191C61.7839 93.2493 61.709 93.3633 61.6113 93.4609C61.5137 93.5586 61.3997 93.6367 61.2695 93.6953C61.1393 93.7474 60.9993 93.7734 60.8496 93.7734ZM64.1016 95.4727H65.7031V97.1816H65.7422C66.4128 95.9772 67.5586 95.375 69.1797 95.375C69.7591 95.375 70.2799 95.4661 70.7422 95.6484C71.2044 95.8242 71.5983 96.0814 71.9238 96.4199C72.2493 96.752 72.4967 97.1589 72.666 97.6406C72.8418 98.1159 72.9297 98.653 72.9297 99.252V106H71.2305V99.5449C71.2305 98.679 71.0124 98.0215 70.5762 97.5723C70.14 97.1165 69.5052 96.8887 68.6719 96.8887C68.2422 96.8887 67.8483 96.9603 67.4902 97.1035C67.1387 97.2467 66.8359 97.4486 66.582 97.709C66.3346 97.9694 66.1426 98.2852 66.0059 98.6562C65.8691 99.0273 65.8008 99.4375 65.8008 99.8867V106H64.1016V95.4727ZM75.293 95.4727H76.9922V106H75.293V95.4727ZM76.1426 93.7734C75.9928 93.7734 75.8529 93.7474 75.7227 93.6953C75.5924 93.6367 75.4785 93.5586 75.3809 93.4609C75.2832 93.3633 75.2051 93.2493 75.1465 93.1191C75.0944 92.9889 75.0684 92.849 75.0684 92.6992C75.0684 92.5495 75.0944 92.4095 75.1465 92.2793C75.2051 92.1491 75.2832 92.0352 75.3809 91.9375C75.4785 91.8398 75.5924 91.765 75.7227 91.7129C75.8529 91.6543 75.9928 91.625 76.1426 91.625C76.2923 91.625 76.4323 91.6543 76.5625 91.7129C76.6927 91.765 76.8066 91.8398 76.9043 91.9375C77.002 92.0352 77.0768 92.1491 77.1289 92.2793C77.1875 92.4095 77.2168 92.5495 77.2168 92.6992C77.2168 92.849 77.1875 92.9889 77.1289 93.1191C77.0768 93.2493 77.002 93.3633 76.9043 93.4609C76.8066 93.5586 76.6927 93.6367 76.5625 93.6953C76.4323 93.7474 76.2923 93.7734 76.1426 93.7734Z" fill="black"/>
</svg>
