<svg width="71" height="122" viewBox="0 0 71 122" fill="none" xmlns="http://www.w3.org/2000/svg">
<path d="M41.8536 46.2849H33.7606C33.0567 46.2847 32.4843 46.8748 32.4843 47.5998V51.5483C32.4843 51.896 32.6214 52.236 32.8595 52.4796L34.4817 54.1459C34.7227 54.3932 35.0427 54.5293 35.3825 54.5293H40.2318C40.5721 54.5293 40.8923 54.3929 41.1328 54.1455C42.4469 52.665 43.13 52.4329 43.13 51.5483V47.5998C43.1299 46.8747 42.5573 46.2849 41.8536 46.2849ZM41.1968 51.2673L39.9602 52.5374H35.6538L34.4172 51.2673V48.2764H34.4173H41.1969V51.2673H41.1968Z" fill="#0071E3"/>
<path d="M39.4486 49.1229C38.9148 49.1229 38.4821 49.5686 38.4821 50.1188V50.1598C38.4821 50.7098 38.9147 51.1556 39.4486 51.1556C39.9825 51.1556 40.4151 50.7099 40.4151 50.1598V50.1188C40.4151 49.5686 39.9825 49.1229 39.4486 49.1229Z" fill="#0071E3"/>
<path d="M36.1655 49.1229C35.6316 49.1229 35.199 49.5686 35.199 50.1188V50.1598C35.199 50.7099 35.6316 51.1556 36.1655 51.1556C36.6994 51.1556 37.1321 50.7098 37.1321 50.1598V50.1188C37.1321 49.5686 36.6993 49.1229 36.1655 49.1229Z" fill="#0071E3"/>
<path d="M40.1982 24.5242C39.6643 24.5242 39.2317 24.9699 39.2317 25.52V25.5361C39.2317 26.0862 39.6643 26.5319 40.1982 26.5319C40.7322 26.5319 41.1648 26.086 41.1648 25.5361V25.52C41.1648 24.9699 40.7322 24.5242 40.1982 24.5242Z" fill="#0071E3"/>
<path d="M35.4159 24.5242C34.882 24.5242 34.4493 24.9699 34.4493 25.52V25.5361C34.4493 26.0862 34.882 26.5319 35.4159 26.5319C35.9498 26.5319 36.3824 26.086 36.3824 25.5361V25.52C36.3824 24.9699 35.9498 24.5242 35.4159 24.5242Z" fill="#0071E3"/>
<path d="M38.2372 42.5932H34.2239C33.6899 42.5932 33.2573 43.0389 33.2573 43.589C33.2573 44.1391 33.6899 44.5849 34.2239 44.5849H38.2372C38.7712 44.5849 39.2038 44.1391 39.2038 43.589C39.2038 43.0389 38.7712 42.5932 38.2372 42.5932Z" fill="#0071E3"/>
<path d="M41.7604 42.6693C41.7011 42.6439 41.6405 42.6254 41.5786 42.612C41.4549 42.5869 41.3261 42.5869 41.2011 42.612C41.1392 42.6254 41.0786 42.6439 41.0206 42.6693C40.9627 42.6944 40.9059 42.7251 40.853 42.7608C40.8002 42.7968 40.7512 42.8391 40.7061 42.8843C40.5268 43.0702 40.4226 43.3264 40.4226 43.5895C40.4226 43.851 40.527 44.1072 40.7061 44.2933C40.7512 44.3385 40.8 44.381 40.853 44.4168C40.9059 44.4527 40.9627 44.4832 41.0206 44.5085C42.1844 45.0127 42.9573 43.1882 41.7604 42.6693Z" fill="#0071E3"/>
<path d="M40.648 35.1744H34.9658C33.5974 35.1744 32.484 36.3216 32.484 37.7316V38.5672C32.484 39.9772 33.5974 41.1243 34.9658 41.1243H40.648C42.0165 41.1243 43.1299 39.9772 43.1299 38.5672V37.7316C43.1299 36.3216 42.0165 35.1744 40.648 35.1744ZM41.1968 38.5672C41.1968 38.8736 40.9454 39.1326 40.648 39.1326H34.9658C34.6685 39.1326 34.4171 38.8737 34.4171 38.5672V37.7316C34.4171 37.425 34.6683 37.166 34.9658 37.166H40.648C40.9454 37.166 41.1968 37.425 41.1968 37.7316V38.5672Z" fill="#0071E3"/>
<path d="M40.648 28.2153H34.9658C33.5974 28.2153 32.484 29.3624 32.484 30.7723V31.608C32.484 33.0179 33.5974 34.165 34.9658 34.165H40.648C42.0165 34.165 43.1299 33.0179 43.1299 31.608V30.7723C43.1299 29.3624 42.0165 28.2153 40.648 28.2153ZM41.1968 31.608C41.1968 31.9144 40.9454 32.1734 40.648 32.1734H34.9658C34.6685 32.1734 34.4171 31.9145 34.4171 31.608V30.7723C34.4171 30.4659 34.6683 30.2069 34.9658 30.2069H40.648C40.9454 30.2069 41.1968 30.4658 41.1968 30.7723V31.608Z" fill="#0071E3"/>
<path d="M25.0065 17.704C23.4679 17.7039 22.2162 18.9935 22.2162 20.5788C22.2162 22.1639 23.4679 23.4535 25.0065 23.4535C26.5451 23.4535 27.7967 22.1639 27.7967 20.5788C27.7967 18.9937 26.545 17.704 25.0065 17.704ZM25.0066 21.462C24.5339 21.462 24.1494 21.0659 24.1494 20.5789C24.1494 20.0919 24.5339 19.6958 25.0066 19.6958C25.4793 19.6958 25.8637 20.0919 25.8637 20.5789C25.8637 21.0659 25.4793 21.462 25.0066 21.462Z" fill="#0071E3"/>
<path d="M25.459 8.7739C25.459 15.5601 50.541 15.5853 50.541 8.7739C50.541 1.98783 25.459 1.96273 25.459 8.7739ZM45.8689 10.7431C41.5558 12.2768 34.4576 12.2816 30.1309 10.7431C28.2389 10.0703 27.3921 9.26929 27.3921 8.77403C27.3921 8.27877 28.2389 7.47778 30.1309 6.80508C34.4502 5.26883 41.5496 5.26897 45.8689 6.80508C47.761 7.47778 48.6078 8.27877 48.6078 8.77403C48.6079 9.26929 47.761 10.0703 45.8689 10.7431Z" fill="#0071E3"/>
<path d="M45.4733 29.8631C46.0072 29.8631 46.4398 29.4174 46.4398 28.8673V22.5118C46.4398 19.8608 44.3465 17.7042 41.7737 17.7042H33.8404C31.2674 17.7042 29.1742 19.861 29.1742 22.5118V53.5257C29.1742 56.1766 31.2675 58.3332 33.8404 58.3332H41.7737C44.3466 58.3332 46.4398 56.1765 46.4398 53.5257V33.5135C46.4398 32.9633 46.0072 32.5176 45.4733 32.5176C44.9395 32.5176 44.5067 32.9633 44.5067 33.5135V53.5257C44.5067 55.0784 43.2807 56.3416 41.7737 56.3416H33.8404C32.3333 56.3416 31.1073 55.0784 31.1073 53.5257V22.5116C31.1073 20.9589 32.3333 19.6957 33.8404 19.6957H41.7737C43.2807 19.6957 44.5067 20.9589 44.5067 22.5116V28.8671C44.5067 29.4172 44.9393 29.8631 45.4733 29.8631Z" fill="#0071E3"/>
<path d="M48.8125 1.35481C41.2743 -0.823848 27.306 -0.683997 21.5176 4.07349C18.9456 6.18721 17.6416 9.07376 17.6416 12.6524V18.2551C17.6416 18.8052 18.0742 19.2509 18.6081 19.2509C19.1421 19.2509 19.5747 18.8052 19.5747 18.2551V12.6524C19.5747 5.89329 25.2132 3.85461 27.6374 3.29189C27.654 3.28804 27.6705 3.28379 27.6869 3.279C33.6542 1.54792 42.3291 1.54314 48.313 3.279C48.3294 3.28365 48.3459 3.2879 48.3625 3.29189C55.6396 4.98127 56.4252 10.4008 56.4252 12.6524V55.2983C56.4252 55.9951 56.3645 56.6408 56.2543 57.2407C54.1531 58.7391 52.2913 59.2221 50.742 59.6633C50.6892 59.6787 50.6327 59.6943 50.4646 59.7405C49.9493 59.8845 49.6451 60.4314 49.7847 60.9621C49.9244 61.4931 50.4555 61.8069 50.9705 61.6626C52.5902 61.2857 53.9619 60.7739 55.1414 60.1942C53.7042 62.5373 51.1235 63.9875 48.5056 64.6246C48.3629 64.6595 48.3541 64.6599 48.313 64.6716C42.3456 66.4027 33.6707 66.4073 27.6869 64.6716C27.6705 64.6669 27.654 64.6627 27.6374 64.6587C24.9826 64.0422 22.325 62.5927 20.8892 60.2089C22.4333 60.9641 23.8606 61.3776 24.758 61.5874C31.258 63.4672 39.6367 63.6848 46.3506 62.6453C46.8786 62.5634 47.2422 62.0564 47.1629 61.5125C47.0836 60.9685 46.5898 60.5945 46.0634 60.6756C37.1733 62.0521 25.0412 61.0018 19.7661 57.2556C19.4427 55.6115 19.6175 57.6718 19.5746 22.9022C19.5746 22.3521 19.142 21.9064 18.608 21.9064C18.0741 21.9064 17.6415 22.3521 17.6415 22.9022V55.2982C17.6415 61.2694 21.4856 65.2622 27.1873 66.5958C37.2502 69.5044 49.4339 67.4583 53.7666 64.4187C56.6594 62.3903 58.3582 59.3579 58.3582 55.298V12.6524C58.3583 6.47966 54.2794 2.6346 48.8125 1.35481Z" fill="#0071E3"/>
<path d="M15.2539 118H13.6133V107.141H13.5449L9.05273 117.902H7.56836L3.07617 107.141H3.00781V118H1.36719V103.908H3.4082L8.27148 115.666H8.34961L13.2129 103.908H15.2539V118ZM21.2109 116.623C21.6406 116.623 22.0378 116.558 22.4023 116.428C22.7669 116.298 23.0794 116.115 23.3398 115.881C23.6068 115.646 23.8151 115.37 23.9648 115.051C24.1146 114.725 24.1895 114.374 24.1895 113.996V113.146L21.4355 113.322C20.6413 113.374 20.0423 113.544 19.6387 113.83C19.235 114.11 19.0332 114.504 19.0332 115.012C19.0332 115.259 19.082 115.48 19.1797 115.676C19.2839 115.871 19.4303 116.04 19.6191 116.184C19.8145 116.327 20.0456 116.438 20.3125 116.516C20.5794 116.587 20.8789 116.623 21.2109 116.623ZM20.8496 118.098C20.3158 118.098 19.8307 118.026 19.3945 117.883C18.9583 117.733 18.584 117.525 18.2715 117.258C17.959 116.984 17.7181 116.659 17.5488 116.281C17.3796 115.897 17.2949 115.471 17.2949 115.002C17.2949 114.09 17.6302 113.378 18.3008 112.863C18.9714 112.349 19.9512 112.053 21.2402 111.975L24.1895 111.799V110.92C24.1895 110.262 23.9811 109.761 23.5645 109.416C23.1543 109.064 22.5586 108.889 21.7773 108.889C21.4714 108.889 21.1882 108.928 20.9277 109.006C20.6673 109.077 20.4329 109.185 20.2246 109.328C20.0228 109.465 19.8535 109.634 19.7168 109.836C19.5866 110.038 19.4954 110.262 19.4434 110.51H17.8125C17.8255 110.067 17.9362 109.654 18.1445 109.27C18.3529 108.885 18.6361 108.553 18.9941 108.273C19.3522 107.993 19.7689 107.775 20.2441 107.619C20.7259 107.456 21.2435 107.375 21.7969 107.375C22.4219 107.375 22.985 107.456 23.4863 107.619C23.9876 107.775 24.4173 108.003 24.7754 108.303C25.1335 108.596 25.4069 108.954 25.5957 109.377C25.791 109.794 25.8887 110.259 25.8887 110.773V118H24.2773V116.174H24.2383C24.0885 116.467 23.8965 116.734 23.6621 116.975C23.4277 117.209 23.1641 117.411 22.8711 117.58C22.5781 117.743 22.2591 117.87 21.9141 117.961C21.5755 118.052 21.2207 118.098 20.8496 118.098ZM35.1758 110.9C35.1237 110.62 35.026 110.36 34.8828 110.119C34.7396 109.872 34.5508 109.657 34.3164 109.475C34.0885 109.292 33.8184 109.149 33.5059 109.045C33.1934 108.941 32.8385 108.889 32.4414 108.889C31.9792 108.889 31.5592 108.98 31.1816 109.162C30.804 109.344 30.4785 109.605 30.2051 109.943C29.9382 110.275 29.7298 110.679 29.5801 111.154C29.4303 111.63 29.3555 112.157 29.3555 112.736C29.3555 113.335 29.4303 113.872 29.5801 114.348C29.7298 114.823 29.9414 115.227 30.2148 115.559C30.4883 115.891 30.8138 116.145 31.1914 116.32C31.5755 116.496 31.9987 116.584 32.4609 116.584C33.1966 116.584 33.7988 116.418 34.2676 116.086C34.7363 115.754 35.0456 115.269 35.1953 114.631H36.8652C36.7936 115.145 36.6341 115.614 36.3867 116.037C36.1458 116.46 35.8333 116.825 35.4492 117.131C35.0651 117.437 34.6191 117.674 34.1113 117.844C33.6035 118.013 33.0501 118.098 32.4512 118.098C31.7285 118.098 31.071 117.974 30.4785 117.727C29.8861 117.479 29.3783 117.124 28.9551 116.662C28.5319 116.193 28.2031 115.63 27.9688 114.973C27.7409 114.309 27.627 113.563 27.627 112.736C27.627 111.929 27.7409 111.197 27.9688 110.539C28.2031 109.875 28.5286 109.309 28.9453 108.84C29.3685 108.371 29.873 108.01 30.459 107.756C31.0514 107.502 31.709 107.375 32.4316 107.375C33.0827 107.375 33.6686 107.473 34.1895 107.668C34.7103 107.863 35.1595 108.124 35.5371 108.449C35.9147 108.775 36.2142 109.149 36.4355 109.572C36.6569 109.995 36.7936 110.438 36.8457 110.9H35.1758ZM48.8184 103.908C49.4824 103.908 50.0879 104.019 50.6348 104.24C51.1882 104.462 51.6634 104.771 52.0605 105.168C52.4642 105.565 52.7767 106.044 52.998 106.604C53.2194 107.157 53.3301 107.766 53.3301 108.43C53.3301 109.1 53.2161 109.715 52.9883 110.275C52.7669 110.829 52.4544 111.307 52.0508 111.711C51.6536 112.108 51.1784 112.417 50.625 112.639C50.0716 112.86 49.4629 112.971 48.7988 112.971H45.2539V118H43.4961V103.908H48.8184ZM45.2539 111.408H48.3594C48.8607 111.408 49.3066 111.343 49.6973 111.213C50.0944 111.076 50.4264 110.881 50.6934 110.627C50.9668 110.367 51.1719 110.054 51.3086 109.689C51.4518 109.318 51.5234 108.898 51.5234 108.43C51.5234 107.492 51.25 106.766 50.7031 106.252C50.1562 105.731 49.375 105.471 48.3594 105.471H45.2539V111.408ZM55.1367 107.473H56.7383V109.182H56.7773C56.8555 108.908 56.9727 108.661 57.1289 108.439C57.2917 108.212 57.4837 108.02 57.7051 107.863C57.9264 107.707 58.1738 107.587 58.4473 107.502C58.7272 107.417 59.0202 107.375 59.3262 107.375C59.4303 107.375 59.5475 107.382 59.6777 107.395C59.8079 107.408 59.9089 107.424 59.9805 107.443V109.123C59.9089 109.09 59.7819 109.064 59.5996 109.045C59.4173 109.019 59.2513 109.006 59.1016 109.006C58.7565 109.006 58.444 109.068 58.1641 109.191C57.8906 109.309 57.653 109.475 57.4512 109.689C57.2559 109.904 57.1029 110.165 56.9922 110.471C56.888 110.777 56.8359 111.115 56.8359 111.486V118H55.1367V107.473ZM65.332 118.098C64.5898 118.098 63.9193 117.971 63.3203 117.717C62.7279 117.463 62.2201 117.105 61.7969 116.643C61.3737 116.174 61.0482 115.611 60.8203 114.953C60.5924 114.289 60.4785 113.55 60.4785 112.736C60.4785 111.916 60.5924 111.177 60.8203 110.52C61.0482 109.855 61.3737 109.292 61.7969 108.83C62.2201 108.361 62.7279 108.003 63.3203 107.756C63.9193 107.502 64.5898 107.375 65.332 107.375C66.0742 107.375 66.7415 107.502 67.334 107.756C67.9329 108.003 68.444 108.361 68.8672 108.83C69.2904 109.292 69.6159 109.855 69.8438 110.52C70.0716 111.177 70.1855 111.916 70.1855 112.736C70.1855 113.55 70.0716 114.289 69.8438 114.953C69.6159 115.611 69.2904 116.174 68.8672 116.643C68.444 117.105 67.9329 117.463 67.334 117.717C66.7415 117.971 66.0742 118.098 65.332 118.098ZM65.332 116.584C65.8203 116.584 66.2565 116.496 66.6406 116.32C67.0312 116.145 67.36 115.894 67.627 115.568C67.9004 115.236 68.1055 114.833 68.2422 114.357C68.3854 113.882 68.457 113.342 68.457 112.736C68.457 112.131 68.3854 111.59 68.2422 111.115C68.1055 110.64 67.9004 110.236 67.627 109.904C67.36 109.572 67.0312 109.322 66.6406 109.152C66.2565 108.977 65.8203 108.889 65.332 108.889C64.8438 108.889 64.4043 108.977 64.0137 109.152C63.6296 109.328 63.3008 109.582 63.0273 109.914C62.7604 110.24 62.5553 110.64 62.4121 111.115C62.2754 111.59 62.207 112.131 62.207 112.736C62.207 113.342 62.2786 113.882 62.4219 114.357C62.5651 114.833 62.7702 115.236 63.0371 115.568C63.304 115.894 63.6296 116.145 64.0137 116.32C64.4043 116.496 64.8438 116.584 65.332 116.584Z" fill="black"/>
</svg>
