<svg width="121" height="142" viewBox="0 0 121 142" fill="none" xmlns="http://www.w3.org/2000/svg">
<path d="M95.3369 33H29.8305C27.5372 33 25.5804 34.6392 25.1777 36.9004L24.3893 41.3433C24.3402 41.6194 24.4158 41.9011 24.5954 42.1147C24.775 42.3283 25.0397 42.4531 25.3195 42.4531H99.8479C100.126 42.4531 100.392 42.3302 100.572 42.1147C100.754 41.9011 100.829 41.6175 100.778 41.3433L99.9897 36.8985C99.587 34.6392 97.6302 33 95.3369 33ZM26.4482 40.5625L27.04 37.2312C27.282 35.8738 28.4561 34.8906 29.8324 34.8906H95.3388C96.7152 34.8906 97.8892 35.8756 98.1312 37.2293L98.723 40.5625H26.4482Z" fill="#0071E3"/>
<path d="M101.461 45.1227C101.37 44.6084 100.869 44.2776 100.364 44.3589C99.8518 44.4515 99.5077 44.9431 99.6003 45.4554L106.236 82.6024C106.384 83.4305 106.159 84.2775 105.618 84.9222C105.079 85.5688 104.287 85.9375 103.446 85.9375H21.7255C20.8842 85.9375 20.092 85.5688 19.5532 84.9222C19.0124 84.2775 18.7874 83.4324 18.9349 82.6024L25.571 45.4554C25.6637 44.9431 25.3196 44.4515 24.8072 44.3589C24.2986 44.2776 23.8014 44.6084 23.7106 45.1227L17.0745 82.2697C16.8269 83.6499 17.2031 85.0603 18.103 86.1341C19.0049 87.2099 20.3245 87.8281 21.7274 87.8281H103.446C104.849 87.8281 106.168 87.2118 107.07 86.1341C107.97 85.0603 108.346 83.6517 108.099 82.2697L101.461 45.1227Z" fill="#0071E3"/>
<path d="M62.1413 74.832C62.0203 74.7034 61.9522 74.5295 61.9541 74.348L62.1413 74.832ZM62.1413 74.832C62.2585 74.9568 62.4173 75.0248 62.5837 75.0248L62.1413 74.832ZM64.0678 73.9013L64.068 73.901C64.5601 73.3052 64.5056 72.5149 64.4969 72.4313L64.4965 72.4274L64.4965 72.4274C64.4875 72.3325 64.4257 72.2871 64.3863 72.2792C64.308 72.2646 63.6101 72.1569 63.0703 72.635L64.0678 73.9013ZM64.0678 73.9013C63.7603 74.2741 63.3024 74.4992 62.6463 74.5251L62.6453 74.5248H62.5837C62.5562 74.5248 62.529 74.5144 62.5057 74.4897L62.5054 74.4893C62.4741 74.456 62.4536 74.4072 62.4541 74.3532L62.4541 74.3521M64.0678 73.9013L62.4541 74.3521M62.4541 74.3521C62.461 73.5105 62.6962 72.9665 63.0703 72.635L62.4541 74.3521Z" fill="white" stroke="#0071E3"/>
<path d="M62.9164 82.3241L62.6663 82.1801L62.4165 82.3247C62.1183 82.4972 61.7526 82.6015 61.3794 82.6015C61.1943 82.6015 60.971 82.5109 60.716 82.2776C60.4627 82.0459 60.2166 81.7069 59.9996 81.3033C59.5607 80.4871 59.3025 79.5243 59.3025 78.9251C59.3025 77.8006 60.2335 76.8709 61.3794 76.8709C61.7534 76.8709 62.1168 76.9737 62.4158 77.1474L62.6665 77.293L62.9174 77.1478C63.2155 76.9752 63.5813 76.8709 63.9544 76.8709C64.3532 76.8709 64.7201 76.9774 65.0264 77.1637C64.8437 77.4982 64.7439 77.8788 64.7439 78.2861C64.7439 79.0983 65.1543 79.819 65.7753 80.2496C65.5989 80.7972 65.3399 81.3554 65.0313 81.7958C64.6351 82.361 64.2536 82.6015 63.9563 82.6015C63.5816 82.6015 63.2174 82.4974 62.9164 82.3241Z" fill="#FEFEFE" stroke="#0071E3"/>
<path d="M37.2539 138H35.6133V127.141H35.5449L31.0527 137.902H29.5684L25.0762 127.141H25.0078V138H23.3672V123.908H25.4082L30.2715 135.666H30.3496L35.2129 123.908H37.2539V138ZM43.2109 136.623C43.6406 136.623 44.0378 136.558 44.4023 136.428C44.7669 136.298 45.0794 136.115 45.3398 135.881C45.6068 135.646 45.8151 135.37 45.9648 135.051C46.1146 134.725 46.1895 134.374 46.1895 133.996V133.146L43.4355 133.322C42.6413 133.374 42.0423 133.544 41.6387 133.83C41.235 134.11 41.0332 134.504 41.0332 135.012C41.0332 135.259 41.082 135.48 41.1797 135.676C41.2839 135.871 41.4303 136.04 41.6191 136.184C41.8145 136.327 42.0456 136.438 42.3125 136.516C42.5794 136.587 42.8789 136.623 43.2109 136.623ZM42.8496 138.098C42.3158 138.098 41.8307 138.026 41.3945 137.883C40.9583 137.733 40.584 137.525 40.2715 137.258C39.959 136.984 39.7181 136.659 39.5488 136.281C39.3796 135.897 39.2949 135.471 39.2949 135.002C39.2949 134.09 39.6302 133.378 40.3008 132.863C40.9714 132.349 41.9512 132.053 43.2402 131.975L46.1895 131.799V130.92C46.1895 130.262 45.9811 129.761 45.5645 129.416C45.1543 129.064 44.5586 128.889 43.7773 128.889C43.4714 128.889 43.1882 128.928 42.9277 129.006C42.6673 129.077 42.4329 129.185 42.2246 129.328C42.0228 129.465 41.8535 129.634 41.7168 129.836C41.5866 130.038 41.4954 130.262 41.4434 130.51H39.8125C39.8255 130.067 39.9362 129.654 40.1445 129.27C40.3529 128.885 40.6361 128.553 40.9941 128.273C41.3522 127.993 41.7689 127.775 42.2441 127.619C42.7259 127.456 43.2435 127.375 43.7969 127.375C44.4219 127.375 44.985 127.456 45.4863 127.619C45.9876 127.775 46.4173 128.003 46.7754 128.303C47.1335 128.596 47.4069 128.954 47.5957 129.377C47.791 129.794 47.8887 130.259 47.8887 130.773V138H46.2773V136.174H46.2383C46.0885 136.467 45.8965 136.734 45.6621 136.975C45.4277 137.209 45.1641 137.411 44.8711 137.58C44.5781 137.743 44.2591 137.87 43.9141 137.961C43.5755 138.052 43.2207 138.098 42.8496 138.098ZM57.1758 130.9C57.1237 130.62 57.026 130.36 56.8828 130.119C56.7396 129.872 56.5508 129.657 56.3164 129.475C56.0885 129.292 55.8184 129.149 55.5059 129.045C55.1934 128.941 54.8385 128.889 54.4414 128.889C53.9792 128.889 53.5592 128.98 53.1816 129.162C52.804 129.344 52.4785 129.605 52.2051 129.943C51.9382 130.275 51.7298 130.679 51.5801 131.154C51.4303 131.63 51.3555 132.157 51.3555 132.736C51.3555 133.335 51.4303 133.872 51.5801 134.348C51.7298 134.823 51.9414 135.227 52.2148 135.559C52.4883 135.891 52.8138 136.145 53.1914 136.32C53.5755 136.496 53.9987 136.584 54.4609 136.584C55.1966 136.584 55.7988 136.418 56.2676 136.086C56.7363 135.754 57.0456 135.269 57.1953 134.631H58.8652C58.7936 135.145 58.6341 135.614 58.3867 136.037C58.1458 136.46 57.8333 136.825 57.4492 137.131C57.0651 137.437 56.6191 137.674 56.1113 137.844C55.6035 138.013 55.0501 138.098 54.4512 138.098C53.7285 138.098 53.071 137.974 52.4785 137.727C51.8861 137.479 51.3783 137.124 50.9551 136.662C50.5319 136.193 50.2031 135.63 49.9688 134.973C49.7409 134.309 49.627 133.563 49.627 132.736C49.627 131.929 49.7409 131.197 49.9688 130.539C50.2031 129.875 50.5286 129.309 50.9453 128.84C51.3685 128.371 51.873 128.01 52.459 127.756C53.0514 127.502 53.709 127.375 54.4316 127.375C55.0827 127.375 55.6686 127.473 56.1895 127.668C56.7103 127.863 57.1595 128.124 57.5371 128.449C57.9147 128.775 58.2142 129.149 58.4355 129.572C58.6569 129.995 58.7936 130.438 58.8457 130.9H57.1758ZM60.7109 138V123.908H66.2285C66.834 123.908 67.3841 123.993 67.8789 124.162C68.3737 124.331 68.7969 124.569 69.1484 124.875C69.5065 125.181 69.7832 125.552 69.9785 125.988C70.1738 126.418 70.2715 126.896 70.2715 127.424C70.2715 127.788 70.2064 128.143 70.0762 128.488C69.9525 128.833 69.7799 129.146 69.5586 129.426C69.3438 129.699 69.0866 129.934 68.7871 130.129C68.4941 130.318 68.1784 130.441 67.8398 130.5V130.578C68.3151 130.637 68.7448 130.764 69.1289 130.959C69.5195 131.154 69.8516 131.402 70.125 131.701C70.3984 132.001 70.61 132.349 70.7598 132.746C70.9095 133.143 70.9844 133.576 70.9844 134.045C70.9844 134.663 70.877 135.22 70.6621 135.715C70.4473 136.203 70.1348 136.617 69.7246 136.955C69.3145 137.294 68.8132 137.554 68.2207 137.736C67.6283 137.912 66.9577 138 66.209 138H60.7109ZM62.4688 129.982H65.2812C66.3294 129.982 67.127 129.784 67.6738 129.387C68.2207 128.983 68.4941 128.397 68.4941 127.629C68.4941 126.926 68.263 126.389 67.8008 126.018C67.3451 125.646 66.6875 125.461 65.8281 125.461H62.4688V129.982ZM65.9453 136.447C67.013 136.447 67.8171 136.239 68.3574 135.822C68.9043 135.399 69.1777 134.777 69.1777 133.957C69.1777 133.137 68.8945 132.521 68.3281 132.111C67.7617 131.701 66.9121 131.496 65.7793 131.496H62.4688V136.447H65.9453ZM77.0977 138.098C76.3555 138.098 75.6849 137.971 75.0859 137.717C74.4935 137.463 73.9857 137.105 73.5625 136.643C73.1393 136.174 72.8138 135.611 72.5859 134.953C72.3581 134.289 72.2441 133.55 72.2441 132.736C72.2441 131.916 72.3581 131.177 72.5859 130.52C72.8138 129.855 73.1393 129.292 73.5625 128.83C73.9857 128.361 74.4935 128.003 75.0859 127.756C75.6849 127.502 76.3555 127.375 77.0977 127.375C77.8398 127.375 78.5072 127.502 79.0996 127.756C79.6986 128.003 80.2096 128.361 80.6328 128.83C81.056 129.292 81.3815 129.855 81.6094 130.52C81.8372 131.177 81.9512 131.916 81.9512 132.736C81.9512 133.55 81.8372 134.289 81.6094 134.953C81.3815 135.611 81.056 136.174 80.6328 136.643C80.2096 137.105 79.6986 137.463 79.0996 137.717C78.5072 137.971 77.8398 138.098 77.0977 138.098ZM77.0977 136.584C77.5859 136.584 78.0221 136.496 78.4062 136.32C78.7969 136.145 79.1257 135.894 79.3926 135.568C79.666 135.236 79.8711 134.833 80.0078 134.357C80.151 133.882 80.2227 133.342 80.2227 132.736C80.2227 132.131 80.151 131.59 80.0078 131.115C79.8711 130.64 79.666 130.236 79.3926 129.904C79.1257 129.572 78.7969 129.322 78.4062 129.152C78.0221 128.977 77.5859 128.889 77.0977 128.889C76.6094 128.889 76.1699 128.977 75.7793 129.152C75.3952 129.328 75.0664 129.582 74.793 129.914C74.526 130.24 74.321 130.64 74.1777 131.115C74.041 131.59 73.9727 132.131 73.9727 132.736C73.9727 133.342 74.0443 133.882 74.1875 134.357C74.3307 134.833 74.5358 135.236 74.8027 135.568C75.0697 135.894 75.3952 136.145 75.7793 136.32C76.1699 136.496 76.6094 136.584 77.0977 136.584ZM88.0742 138.098C87.332 138.098 86.6615 137.971 86.0625 137.717C85.4701 137.463 84.9622 137.105 84.5391 136.643C84.1159 136.174 83.7904 135.611 83.5625 134.953C83.3346 134.289 83.2207 133.55 83.2207 132.736C83.2207 131.916 83.3346 131.177 83.5625 130.52C83.7904 129.855 84.1159 129.292 84.5391 128.83C84.9622 128.361 85.4701 128.003 86.0625 127.756C86.6615 127.502 87.332 127.375 88.0742 127.375C88.8164 127.375 89.4837 127.502 90.0762 127.756C90.6751 128.003 91.1862 128.361 91.6094 128.83C92.0326 129.292 92.3581 129.855 92.5859 130.52C92.8138 131.177 92.9277 131.916 92.9277 132.736C92.9277 133.55 92.8138 134.289 92.5859 134.953C92.3581 135.611 92.0326 136.174 91.6094 136.643C91.1862 137.105 90.6751 137.463 90.0762 137.717C89.4837 137.971 88.8164 138.098 88.0742 138.098ZM88.0742 136.584C88.5625 136.584 88.9987 136.496 89.3828 136.32C89.7734 136.145 90.1022 135.894 90.3691 135.568C90.6426 135.236 90.8477 134.833 90.9844 134.357C91.1276 133.882 91.1992 133.342 91.1992 132.736C91.1992 132.131 91.1276 131.59 90.9844 131.115C90.8477 130.64 90.6426 130.236 90.3691 129.904C90.1022 129.572 89.7734 129.322 89.3828 129.152C88.9987 128.977 88.5625 128.889 88.0742 128.889C87.5859 128.889 87.1465 128.977 86.7559 129.152C86.3717 129.328 86.043 129.582 85.7695 129.914C85.5026 130.24 85.2975 130.64 85.1543 131.115C85.0176 131.59 84.9492 132.131 84.9492 132.736C84.9492 133.342 85.0208 133.882 85.1641 134.357C85.3073 134.833 85.5124 135.236 85.7793 135.568C86.0462 135.894 86.3717 136.145 86.7559 136.32C87.1465 136.496 87.5859 136.584 88.0742 136.584ZM101.229 127.473H103.299L98.6992 132.023L103.436 138H101.463L97.5078 133.068L96.5117 134.006V138H94.8125V123.293H96.5117V132.18L101.229 127.473Z" fill="black"/>
</svg>
