<svg width="77" height="98" viewBox="0 0 77 98" fill="none" xmlns="http://www.w3.org/2000/svg">
<g clip-path="url(#clip0_8_58)">
<path d="M38.11 30.176C37.1574 29.7985 37.031 28.5813 37.8743 28.0314C38.3868 27.6975 38.4313 27.0002 37.962 26.6128C37.5879 26.3039 37.1476 26.0805 36.6756 25.9549C37.1349 25.3601 37.3089 24.6045 37.1645 23.8011C37.0845 23.3554 36.6633 23.0089 36.1844 22.9948C35.2313 22.9674 34.3932 23.2921 33.8222 23.9101C33.3355 24.4369 33.0999 25.1168 33.1392 25.8547C31.1623 25.5413 29.377 26.9124 29.2677 28.7707C29.0308 31.2464 30.9563 33.3044 31.1519 33.5064C31.6196 34.017 32.3336 34.2066 32.9538 34.0707C33.3694 33.9844 33.9801 33.5494 34.896 33.95C34.9837 33.9885 35.0353 34.0114 35.1362 34.0444C35.2724 34.0885 35.4192 34.1179 35.533 34.1289C35.6001 34.1359 35.6624 34.1397 35.7225 34.1401C35.7284 34.1401 35.734 34.1401 35.7399 34.1401C36.2686 34.1401 36.7718 33.9269 37.1244 33.5531C37.2811 33.3954 38.0861 32.5513 38.6194 31.3518C38.8226 30.8951 38.5941 30.3676 38.11 30.176ZM34.9966 24.8762C34.9966 24.8761 34.9966 24.8761 34.9967 24.8761C35.1602 24.6989 35.3827 24.5753 35.645 24.512C35.5837 25.0199 35.2488 25.4001 34.7029 25.5316C34.7336 25.2778 34.8329 25.0531 34.9966 24.8762ZM35.9618 32.5747C35.8961 32.6451 35.802 32.6777 35.7152 32.6691C35.6847 32.6648 35.6791 32.6649 35.643 32.6543C35.6188 32.6465 35.6213 32.6471 35.5514 32.6164C34.6613 32.2269 33.6361 32.218 32.7391 32.5916L32.6914 32.6114C32.5182 32.6824 32.4172 32.6319 32.3053 32.518C32.2885 32.5009 30.6325 30.7868 30.8207 28.8923C30.9423 27.6327 32.1062 27.0588 33.1103 27.3536C33.4199 27.4435 34.053 27.9321 35.0065 27.4724C35.0319 27.4607 35.0578 27.4497 35.0875 27.4378C35.1134 27.4285 35.1752 27.4024 35.283 27.3723C35.6237 27.2791 35.9972 27.284 36.3473 27.3975C35.3572 28.6122 35.6353 30.3584 36.9529 31.2412C36.6566 31.7706 36.3362 32.1767 35.9618 32.5747Z" fill="#0071E3"/>
<path d="M67.8897 7.98466V6.41053C67.8897 5.82294 67.383 5.34491 66.7601 5.34491H60.7091C60.0863 5.34491 59.5796 5.82294 59.5796 6.41053V7.98466C58.95 8.08778 58.4694 8.60555 58.4694 9.2285V14.3822C58.4694 15.0791 59.0703 15.646 59.8089 15.646H61.5531V16.9068C61.5531 17.7823 62.1368 18.53 62.9554 18.8266V41.145C62.9554 42.2697 61.9855 43.1848 60.7934 43.1848C59.6517 43.1848 58.7229 42.3085 58.7229 41.2313V31.558C58.7229 29.8175 57.2219 28.4015 55.3769 28.4015H54.3891C54.1087 27.5704 53.2831 26.9663 52.3104 26.9663H50.5389V17.9164C50.5389 15.4225 48.3883 13.3937 45.7448 13.3937H45.0612C44.6309 13.3937 44.2821 13.7227 44.2821 14.1287C44.2821 14.5347 44.6309 14.8637 45.0612 14.8637H45.7448C47.5292 14.8637 48.9807 16.2332 48.9807 17.9163C48.9807 20.4185 48.9807 37.7882 48.9807 40.1317C48.9807 41.8151 47.529 43.1846 45.7448 43.1846H28.0343C27.604 43.1846 27.2552 43.5136 27.2552 43.9195C27.2552 44.3255 27.604 44.6545 28.0343 44.6545H45.7447C48.3882 44.6545 50.5388 42.6256 50.5388 40.1317V31.0823H52.3105C53.1931 31.0823 53.9531 30.5844 54.2962 29.8716H55.377C56.3628 29.8716 57.1649 30.6282 57.1649 31.5582V41.2315C57.1649 43.1192 58.7927 44.655 60.7936 44.655C62.845 44.655 64.5138 43.0807 64.5138 41.1453V18.8269C65.3324 18.5302 65.9162 17.7826 65.9162 16.9071V15.6463H67.6604C68.3991 15.6463 69 15.0794 69 14.3825V9.2287C69 8.60565 68.5193 8.08778 67.8897 7.98466ZM52.3105 29.6125H50.5388V28.4365H52.3105C52.6542 28.4365 52.9338 28.7002 52.9338 29.0245C52.9338 29.3488 52.6542 29.6125 52.3105 29.6125ZM61.1377 6.81493H66.3315V7.96483H61.1377V6.81493ZM64.3578 16.9069C64.3578 17.2312 64.0784 17.4949 63.7346 17.4949C63.3908 17.4949 63.1113 17.2312 63.1113 16.9069V15.6461H64.3578V16.9069ZM67.4419 14.1762C65.1368 14.1762 62.4141 14.1762 60.0276 14.1762V9.43475H60.3587C62.5028 9.43475 65.3051 9.43475 67.4418 9.43475V14.1762H67.4419Z" fill="#0071E3"/>
<path d="M64.2855 10.6542C64.2493 10.6199 63.8567 10.4026 63.5823 10.4534C63.3671 10.4956 63.1934 10.6132 63.0868 10.7659C62.8399 11.1192 62.9596 11.5721 63.3018 11.785C63.6722 12.0153 64.1541 11.9094 64.382 11.5822C64.5935 11.2797 64.5421 10.8979 64.2855 10.6542Z" fill="#0071E3"/>
<path d="M41.4255 13.3941C40.8338 13.3941 22.5356 13.3941 22.1965 13.3941C19.5531 13.3941 17.4024 15.4229 17.4024 17.9168V18.0905C16.5837 18.3872 16 19.1348 16 20.0103V22.5092C16 23.3847 16.5837 24.1324 17.4023 24.4291C17.4023 27.6159 17.4023 36.8376 17.4023 40.1321C17.4023 42.6259 19.553 44.6548 22.1964 44.6548H24.3986C24.829 44.6548 25.1777 44.3258 25.1777 43.9199C25.1777 43.5139 24.829 43.1849 24.3986 43.1849H22.1964C20.412 43.1849 18.9605 41.8154 18.9605 40.1322V27.5677H24.8049C26.0129 27.5677 26.9956 26.6406 26.9956 25.5009V20.4023C26.9956 19.9963 26.6469 19.6673 26.2166 19.6673C25.7863 19.6673 25.4375 19.9963 25.4375 20.4023V25.5008C25.4375 25.8299 25.1538 26.0977 24.8049 26.0977H18.9604V24.4315C19.7031 24.1624 20.2741 23.5054 20.3525 22.6998C20.3666 22.5558 20.3852 19.9377 20.3238 19.6297C20.181 18.9134 19.648 18.3371 18.9604 18.088V17.9167C18.9604 16.2334 20.4121 14.8639 22.1963 14.8639H25.4373V16.9724C25.4373 17.3784 25.7861 17.7074 26.2164 17.7074C26.6467 17.7074 26.9954 17.3784 26.9954 16.9724V14.8639H41.4253C41.8556 14.8639 42.2045 14.5348 42.2045 14.129C42.2046 13.723 41.8558 13.3941 41.4255 13.3941ZM18.8047 22.5092C18.8047 22.8336 18.5252 23.0972 18.1814 23.0972C17.8377 23.0972 17.5581 22.8336 17.5581 22.5092V20.0103C17.5581 19.686 17.8376 19.4223 18.1814 19.4223C18.5252 19.4223 18.8047 19.686 18.8047 20.0103V22.5092Z" fill="#0071E3"/>
</g>
<path d="M15.2539 94H13.6133V83.1406H13.5449L9.05273 93.9023H7.56836L3.07617 83.1406H3.00781V94H1.36719V79.9082H3.4082L8.27148 91.666H8.34961L13.2129 79.9082H15.2539V94ZM21.2109 92.623C21.6406 92.623 22.0378 92.5579 22.4023 92.4277C22.7669 92.2975 23.0794 92.1152 23.3398 91.8809C23.6068 91.6465 23.8151 91.3698 23.9648 91.0508C24.1146 90.7253 24.1895 90.3737 24.1895 89.9961V89.1465L21.4355 89.3223C20.6413 89.3743 20.0423 89.5436 19.6387 89.8301C19.235 90.11 19.0332 90.5039 19.0332 91.0117C19.0332 91.2591 19.082 91.4805 19.1797 91.6758C19.2839 91.8711 19.4303 92.0404 19.6191 92.1836C19.8145 92.3268 20.0456 92.4375 20.3125 92.5156C20.5794 92.5872 20.8789 92.623 21.2109 92.623ZM20.8496 94.0977C20.3158 94.0977 19.8307 94.026 19.3945 93.8828C18.9583 93.7331 18.584 93.5247 18.2715 93.2578C17.959 92.9844 17.7181 92.6589 17.5488 92.2812C17.3796 91.8971 17.2949 91.4707 17.2949 91.002C17.2949 90.0905 17.6302 89.3776 18.3008 88.8633C18.9714 88.349 19.9512 88.0527 21.2402 87.9746L24.1895 87.7988V86.9199C24.1895 86.2624 23.9811 85.7611 23.5645 85.416C23.1543 85.0645 22.5586 84.8887 21.7773 84.8887C21.4714 84.8887 21.1882 84.9277 20.9277 85.0059C20.6673 85.0775 20.4329 85.1849 20.2246 85.3281C20.0228 85.4648 19.8535 85.6341 19.7168 85.8359C19.5866 86.0378 19.4954 86.2624 19.4434 86.5098H17.8125C17.8255 86.0671 17.9362 85.6536 18.1445 85.2695C18.3529 84.8854 18.6361 84.5534 18.9941 84.2734C19.3522 83.9935 19.7689 83.7754 20.2441 83.6191C20.7259 83.4564 21.2435 83.375 21.7969 83.375C22.4219 83.375 22.985 83.4564 23.4863 83.6191C23.9876 83.7754 24.4173 84.0033 24.7754 84.3027C25.1335 84.5957 25.4069 84.9538 25.5957 85.377C25.791 85.7936 25.8887 86.2591 25.8887 86.7734V94H24.2773V92.1738H24.2383C24.0885 92.4668 23.8965 92.7337 23.6621 92.9746C23.4277 93.209 23.1641 93.4108 22.8711 93.5801C22.5781 93.7428 22.2591 93.8698 21.9141 93.9609C21.5755 94.0521 21.2207 94.0977 20.8496 94.0977ZM32.4023 92.4863C32.8646 92.4863 33.2845 92.3952 33.6621 92.2129C34.0462 92.0306 34.3717 91.7734 34.6387 91.4414C34.9121 91.1094 35.1237 90.7122 35.2734 90.25C35.4232 89.7812 35.498 89.2637 35.498 88.6973C35.498 88.1309 35.4232 87.6133 35.2734 87.1445C35.1237 86.6758 34.9121 86.2754 34.6387 85.9434C34.3717 85.6113 34.0462 85.3542 33.6621 85.1719C33.2845 84.9831 32.8646 84.8887 32.4023 84.8887C31.9401 84.8887 31.5234 84.9798 31.1523 85.1621C30.7812 85.3444 30.4622 85.6016 30.1953 85.9336C29.9284 86.2656 29.7233 86.666 29.5801 87.1348C29.4368 87.6035 29.3652 88.1243 29.3652 88.6973C29.3652 89.2702 29.4368 89.791 29.5801 90.2598C29.7233 90.722 29.9284 91.1191 30.1953 91.4512C30.4622 91.7832 30.7812 92.0404 31.1523 92.2227C31.5234 92.3984 31.9401 92.4863 32.4023 92.4863ZM32.4316 97.7598C31.8327 97.7598 31.2793 97.6914 30.7715 97.5547C30.2702 97.418 29.8275 97.2227 29.4434 96.9688C29.0658 96.7148 28.7565 96.4089 28.5156 96.0508C28.2812 95.6927 28.1348 95.2956 28.0762 94.8594H29.8438C29.9089 95.0807 30.0195 95.2793 30.1758 95.4551C30.332 95.6309 30.5273 95.7806 30.7617 95.9043C30.9961 96.028 31.263 96.1224 31.5625 96.1875C31.862 96.2526 32.1842 96.2852 32.5293 96.2852C32.985 96.2852 33.3952 96.2266 33.7598 96.1094C34.1243 95.9987 34.4336 95.8359 34.6875 95.6211C34.9479 95.4128 35.1465 95.1556 35.2832 94.8496C35.4264 94.5501 35.498 94.2148 35.498 93.8438V92.1934H35.459C35.127 92.7663 34.6647 93.2122 34.0723 93.5312C33.4863 93.8438 32.8223 94 32.0801 94C31.416 94 30.8105 93.873 30.2637 93.6191C29.7168 93.3652 29.248 93.0072 28.8574 92.5449C28.4668 92.0827 28.1641 91.526 27.9492 90.875C27.7344 90.2174 27.627 89.4915 27.627 88.6973C27.627 87.8965 27.7344 87.1673 27.9492 86.5098C28.1641 85.8522 28.4668 85.2923 28.8574 84.8301C29.248 84.3678 29.7201 84.0098 30.2734 83.7559C30.8268 83.502 31.4421 83.375 32.1191 83.375C32.8678 83.375 33.5384 83.5312 34.1309 83.8438C34.7233 84.1562 35.1953 84.6022 35.5469 85.1816H35.5762V83.4727H37.1973V93.707C37.1973 94.3385 37.0866 94.9049 36.8652 95.4062C36.6504 95.9076 36.3379 96.3307 35.9277 96.6758C35.5176 97.0273 35.0163 97.2943 34.4238 97.4766C33.8379 97.6654 33.1738 97.7598 32.4316 97.7598ZM40.8203 90.123C40.8594 90.5072 40.9766 90.8555 41.1719 91.168C41.3672 91.474 41.6211 91.7376 41.9336 91.959C42.2526 92.1803 42.6237 92.3529 43.0469 92.4766C43.4766 92.5938 43.9421 92.6523 44.4434 92.6523C44.9186 92.6523 45.3581 92.5938 45.7617 92.4766C46.1654 92.3529 46.5137 92.1868 46.8066 91.9785C47.0996 91.7637 47.3275 91.5098 47.4902 91.2168C47.653 90.9238 47.7344 90.6048 47.7344 90.2598C47.7344 89.6673 47.5163 89.179 47.0801 88.7949C46.6439 88.4108 45.9538 88.0951 45.0098 87.8477L43.2031 87.3789C42.5521 87.2161 41.9889 87.0208 41.5137 86.793C41.0449 86.5586 40.6576 86.2917 40.3516 85.9922C40.0456 85.6862 39.8177 85.3411 39.668 84.957C39.5247 84.5729 39.4531 84.14 39.4531 83.6582C39.4531 83.0723 39.5736 82.5352 39.8145 82.0469C40.0618 81.5586 40.4036 81.1387 40.8398 80.7871C41.2826 80.4355 41.8066 80.1621 42.4121 79.9668C43.0241 79.7715 43.6979 79.6738 44.4336 79.6738C45.1367 79.6738 45.7812 79.7747 46.3672 79.9766C46.9596 80.1719 47.474 80.4486 47.9102 80.8066C48.3464 81.1582 48.6882 81.5814 48.9355 82.0762C49.1895 82.5645 49.3262 83.1048 49.3457 83.6973H47.5879C47.5488 83.3197 47.4447 82.9811 47.2754 82.6816C47.1126 82.3757 46.8913 82.1185 46.6113 81.9102C46.3314 81.7018 46.0026 81.5423 45.625 81.4316C45.2474 81.3145 44.8307 81.2559 44.375 81.2559C43.9193 81.2559 43.4993 81.3145 43.1152 81.4316C42.7376 81.5423 42.4121 81.7018 42.1387 81.9102C41.8652 82.112 41.6536 82.3561 41.5039 82.6426C41.3542 82.9225 41.2793 83.235 41.2793 83.5801C41.2793 83.847 41.3281 84.0879 41.4258 84.3027C41.5299 84.5176 41.6895 84.7129 41.9043 84.8887C42.1257 85.0645 42.4056 85.2272 42.7441 85.377C43.0827 85.5202 43.4928 85.6536 43.9746 85.7773L45.4492 86.168C46.1784 86.3503 46.8001 86.5618 47.3145 86.8027C47.8353 87.0371 48.2617 87.3105 48.5938 87.623C48.9258 87.9355 49.1667 88.2904 49.3164 88.6875C49.4727 89.0846 49.5508 89.5371 49.5508 90.0449C49.5508 90.6895 49.4271 91.2721 49.1797 91.793C48.9388 92.3073 48.5872 92.7467 48.125 93.1113C47.6693 93.4694 47.1159 93.7461 46.4648 93.9414C45.8138 94.1367 45.0846 94.2344 44.2773 94.2344C43.5286 94.2344 42.8418 94.1367 42.2168 93.9414C41.5983 93.7461 41.0612 93.4694 40.6055 93.1113C40.1497 92.7533 39.7852 92.3236 39.5117 91.8223C39.2448 91.3145 39.0918 90.748 39.0527 90.123H40.8203ZM54.8242 92.623C55.2539 92.623 55.651 92.5579 56.0156 92.4277C56.3802 92.2975 56.6927 92.1152 56.9531 91.8809C57.2201 91.6465 57.4284 91.3698 57.5781 91.0508C57.7279 90.7253 57.8027 90.3737 57.8027 89.9961V89.1465L55.0488 89.3223C54.2546 89.3743 53.6556 89.5436 53.252 89.8301C52.8483 90.11 52.6465 90.5039 52.6465 91.0117C52.6465 91.2591 52.6953 91.4805 52.793 91.6758C52.8971 91.8711 53.0436 92.0404 53.2324 92.1836C53.4277 92.3268 53.6589 92.4375 53.9258 92.5156C54.1927 92.5872 54.4922 92.623 54.8242 92.623ZM54.4629 94.0977C53.929 94.0977 53.444 94.026 53.0078 93.8828C52.5716 93.7331 52.1973 93.5247 51.8848 93.2578C51.5723 92.9844 51.3314 92.6589 51.1621 92.2812C50.9928 91.8971 50.9082 91.4707 50.9082 91.002C50.9082 90.0905 51.2435 89.3776 51.9141 88.8633C52.5846 88.349 53.5645 88.0527 54.8535 87.9746L57.8027 87.7988V86.9199C57.8027 86.2624 57.5944 85.7611 57.1777 85.416C56.7676 85.0645 56.1719 84.8887 55.3906 84.8887C55.0846 84.8887 54.8014 84.9277 54.541 85.0059C54.2806 85.0775 54.0462 85.1849 53.8379 85.3281C53.6361 85.4648 53.4668 85.6341 53.3301 85.8359C53.1999 86.0378 53.1087 86.2624 53.0566 86.5098H51.4258C51.4388 86.0671 51.5495 85.6536 51.7578 85.2695C51.9661 84.8854 52.2493 84.5534 52.6074 84.2734C52.9655 83.9935 53.3822 83.7754 53.8574 83.6191C54.3392 83.4564 54.8568 83.375 55.4102 83.375C56.0352 83.375 56.5983 83.4564 57.0996 83.6191C57.6009 83.7754 58.0306 84.0033 58.3887 84.3027C58.7467 84.5957 59.0202 84.9538 59.209 85.377C59.4043 85.7936 59.502 86.2591 59.502 86.7734V94H57.8906V92.1738H57.8516C57.7018 92.4668 57.5098 92.7337 57.2754 92.9746C57.041 93.209 56.7773 93.4108 56.4844 93.5801C56.1914 93.7428 55.8724 93.8698 55.5273 93.9609C55.1888 94.0521 54.834 94.0977 54.4629 94.0977ZM62.3145 84.8789H60.8496V83.4727H62.3145V82.4961C62.3145 81.526 62.5358 80.8164 62.9785 80.3672C63.4277 79.9115 64.1406 79.6836 65.1172 79.6836C65.2865 79.6836 65.446 79.6901 65.5957 79.7031C65.7454 79.7161 65.9017 79.7389 66.0645 79.7715V81.1777C65.9538 81.1517 65.8268 81.1322 65.6836 81.1191C65.5404 81.1061 65.4036 81.0996 65.2734 81.0996C64.8307 81.0996 64.5117 81.2103 64.3164 81.4316C64.1211 81.6465 64.0202 82.0013 64.0137 82.4961V83.4727H66.0645V84.8789H64.0137V94H62.3145V84.8789ZM71.6211 84.8691C71.2109 84.8691 70.8301 84.9408 70.4785 85.084C70.127 85.2272 69.821 85.429 69.5605 85.6895C69.3066 85.9499 69.0983 86.2656 68.9355 86.6367C68.7793 87.0013 68.6882 87.4049 68.6621 87.8477H74.4531C74.4401 87.3984 74.362 86.9915 74.2188 86.627C74.082 86.2624 73.89 85.9499 73.6426 85.6895C73.3952 85.429 73.099 85.2272 72.7539 85.084C72.4154 84.9408 72.0378 84.8691 71.6211 84.8691ZM76.0938 90.9922C76.0221 91.4414 75.8594 91.8581 75.6055 92.2422C75.3516 92.6198 75.0293 92.9486 74.6387 93.2285C74.2546 93.502 73.8118 93.7168 73.3105 93.873C72.8158 94.0228 72.2884 94.0977 71.7285 94.0977C70.9863 94.0977 70.319 93.974 69.7266 93.7266C69.1341 93.4792 68.6263 93.1243 68.2031 92.6621C67.7865 92.1999 67.4642 91.64 67.2363 90.9824C67.015 90.3249 66.9043 89.5892 66.9043 88.7754C66.9043 87.9616 67.015 87.2227 67.2363 86.5586C67.4642 85.8945 67.7832 85.3281 68.1934 84.8594C68.61 84.3841 69.1113 84.0195 69.6973 83.7656C70.2832 83.5052 70.9342 83.375 71.6504 83.375C72.3535 83.375 72.985 83.4954 73.5449 83.7363C74.1113 83.9772 74.5931 84.3223 74.9902 84.7715C75.3874 85.2142 75.6901 85.7546 75.8984 86.3926C76.1133 87.0306 76.2207 87.7467 76.2207 88.541V89.2051H68.6621V89.3027C68.6621 89.804 68.7337 90.2598 68.877 90.6699C69.0267 91.0736 69.2383 91.4186 69.5117 91.7051C69.7852 91.9915 70.1107 92.2129 70.4883 92.3691C70.8724 92.5254 71.2988 92.6035 71.7676 92.6035C72.0996 92.6035 72.4089 92.5677 72.6953 92.4961C72.9818 92.418 73.2389 92.3105 73.4668 92.1738C73.7012 92.0306 73.8965 91.8613 74.0527 91.666C74.2155 91.4642 74.3359 91.2396 74.4141 90.9922H76.0938Z" fill="black"/>
<defs>
<clipPath id="clip0_8_58">
<rect width="53" height="50" fill="white" transform="translate(16)"/>
</clipPath>
</defs>
</svg>
