<svg width="62" height="66" viewBox="0 0 62 66" fill="none" xmlns="http://www.w3.org/2000/svg">
<path fill-rule="evenodd" clip-rule="evenodd" d="M58.9412 57.7473C61.876 53.0655 61.7808 41.5254 58.6962 28.0167C57.0368 20.7486 54.5055 13.2673 52.7662 10.4897C52.1936 9.57475 51.5977 8.27842 51.4422 7.60831C51.2867 6.93819 50.9808 6.44518 50.762 6.51286C50.5437 6.58041 50.0704 5.98386 49.7102 5.18698C48.7463 3.05457 44.6328 0.510689 42.9767 1.02304C41.3205 1.5354 38.8597 6.1132 38.9485 8.51634C38.9816 9.41441 38.8301 10.2043 38.6117 10.2718C38.393 10.3395 38.3416 10.943 38.4971 11.6131C38.6526 12.2833 38.6979 13.7499 38.5982 14.8729C37.9182 22.5146 42.9706 44.2854 46.8688 50.5108C47.4415 51.4257 48.0374 52.722 48.1929 53.3921C48.3484 54.0623 48.6543 54.5553 48.873 54.4876C49.0914 54.42 49.5647 55.0166 49.9249 55.8135C50.285 56.6099 51.6506 57.9645 52.9604 58.8236C55.8455 60.7154 57.2378 60.4653 58.9412 57.7473ZM48.2268 60.9678C49.489 58.955 49.5706 57.8224 48.5327 56.7318C48.0831 56.259 47.8142 56.5191 47.1327 58.0864C46.6684 59.153 45.8771 60.1535 45.3731 60.3094C44.0083 60.7316 41.9584 58.8078 40.4287 55.6699C39.9649 54.7176 39.1793 53.1161 38.6834 52.1111C37.6062 49.929 33.428 32.0985 33.2185 28.7902C33.1374 27.5121 32.9798 25.1492 32.8675 23.5395C32.2406 14.5287 33.9308 6.68605 36.5945 6.24689C38.2737 5.9696 38.7438 4.24871 37.3196 3.59407C36.7563 3.33499 35.9474 3.22348 35.5218 3.34622C34.6009 3.61109 32.9419 5.58765 32.4469 7.0098C32.2526 7.56752 31.9228 8.38831 31.7139 8.83361C30.9041 10.5596 30.4913 14.9287 30.4946 21.7345C30.5023 36.3452 35.5961 55.034 41.2623 61.2389C42.446 62.535 45.0471 63.5696 46.2143 63.2085C46.6294 63.0801 47.5349 62.0717 48.2268 60.9678ZM36.7919 64.5249C37.2718 64.1137 37.9802 63.2026 38.366 62.5014C38.9713 61.4011 38.9581 61.075 38.2707 60.1219L37.4738 59.0178L36.114 61.1314C34.9037 63.0128 34.6275 63.212 33.6066 62.9439C32.922 62.7639 31.8877 61.7212 31.0414 60.358C29.8237 58.3952 29.3409 56.8249 27.6184 49.2156C26.516 44.3437 25.5353 38.9602 25.44 37.2521C25.3442 35.5441 25.2126 33.2153 25.1469 32.0772C25.0816 30.9389 25.0714 29.165 25.125 28.1347C25.1783 27.1046 25.2981 24.7054 25.3911 22.8026C25.8223 14.001 27.7112 7.65029 30.3403 6.15923C30.9922 5.78959 31.4807 5.29358 31.4258 5.05728C31.371 4.82096 31.6113 4.53916 31.9599 4.4313C32.3457 4.31195 32.4295 3.97747 32.1742 3.57516C31.8844 3.11931 31.1356 3.10718 29.7518 3.53739C28.0711 4.05945 27.5518 4.51233 26.5234 6.35225C25.8491 7.55815 25.3283 8.67553 25.3654 8.83569C25.4623 9.25329 24.2766 12.8306 23.9372 13.1441C23.7804 13.2895 23.7015 13.623 23.7624 13.8853C23.8234 14.1481 23.7251 15.4028 23.5437 16.6737C22.6582 22.8878 22.5124 28.5829 23.0562 35.7269C23.2217 37.9068 23.2916 39.9377 23.211 40.2401C23.1305 40.543 23.9691 44.7262 25.0747 49.536C26.6908 56.5695 27.3695 58.8107 28.5413 60.9841C31.0491 65.6365 34.0134 66.9089 36.7919 64.5249ZM52.923 55.3725C51.8456 54.2751 50.8689 52.966 50.7523 52.4634C50.6356 51.9609 50.3085 51.3965 50.0254 51.2087C49.7424 51.0214 48.954 49.4997 48.2737 47.8277C47.5934 46.1558 46.6411 43.8439 46.1574 42.6903C45.0174 39.9721 41.5586 25.0684 41.3688 22.0563C41.2881 20.778 41.1117 18.2261 40.9768 16.3854C40.8419 14.5447 40.8656 12.7718 41.0296 12.4462C41.1935 12.1201 41.2324 11.4425 41.1157 10.9399C40.9991 10.4373 41.2781 8.73976 41.7359 7.16745C42.8602 3.30536 44.0148 2.92763 46.6861 5.54808C47.7561 6.59767 48.7363 7.9057 48.8635 8.45398C48.9908 9.00226 49.3265 9.60398 49.6097 9.79177C49.8927 9.97907 50.681 11.5007 51.3614 13.1727C52.0417 14.8447 52.994 17.1566 53.4777 18.3101C54.6177 21.0284 58.0764 35.932 58.2663 38.9442C58.3469 40.2225 58.5234 42.7743 58.6583 44.615C58.7932 46.4558 58.7693 48.2282 58.6054 48.5543C58.4414 48.8799 58.4114 49.5953 58.5386 50.1436C58.6658 50.6918 58.3839 52.3903 57.9113 53.9172C56.7327 57.7287 55.5692 58.0681 52.923 55.3725ZM21.7998 61.2278C23.8625 58.7967 24.8812 56.568 24.5559 55.1985C24.2599 53.9526 22.9457 52.124 23.2104 53.3263C23.3389 53.91 21.3306 58.2694 20.8667 58.4129C20.739 58.4524 20.4202 58.9064 20.1583 59.4219C19.0138 61.6742 16.8788 60.1074 16.0851 56.4322C15.6359 54.3512 15.3642 42.9431 15.7218 41.1622C15.8282 40.6322 16.0609 38.8505 16.2385 37.2027C16.9834 30.2986 18.7135 21.7113 19.5014 21.011C19.6677 20.8626 19.7547 20.5303 19.6946 20.2714C19.5215 19.5256 20.8666 15.6921 22.9589 10.9672C23.4976 9.75107 23.9058 8.59642 23.8665 8.40112C23.8273 8.2063 24.229 7.16948 24.7599 6.09694C25.2907 5.0244 25.624 4.08091 25.5007 4.00005C25.3769 3.91883 24.6487 4.40632 23.8821 5.08264C22.301 6.47801 19.9413 10.8581 18.9307 14.2733C18.5566 15.5369 18.0821 16.6231 17.8762 16.6868C17.6704 16.7504 17.5508 17.0123 17.6104 17.2692C17.67 17.5257 17.368 18.887 16.9389 20.2941C15.9894 23.4091 14.0295 33.6826 14.2219 34.5356C14.2981 34.8737 14.1888 35.204 13.9795 35.2687C13.7698 35.3336 13.6113 35.9161 13.6276 36.5624C13.644 37.2087 13.5352 39.4344 13.386 41.5078C12.8064 49.5702 12.8902 51.4257 14.0714 56.6713C15.2098 61.7258 15.2599 61.8383 16.7183 62.6361C18.5438 63.6347 20.1311 63.1947 21.7998 61.2278ZM51.1015 46.3316C50.8365 34.9567 48.5893 22.4795 45.3934 14.6431C44.3147 11.998 43.292 9.87698 43.1203 9.93011C42.2858 10.1883 42.6402 12.3571 45.3309 23.4633C47.1799 31.0935 48.2685 36.4141 48.3211 38.0717C48.4606 42.5033 49.471 47.5963 50.3704 48.4007C51.0913 49.046 51.1603 48.8509 51.1015 46.3316ZM41.4402 51.1266C42.1578 45.5737 42.0459 43.6527 40.7553 39.3592C40.0382 36.9746 39.5848 35.7385 39.747 36.6124C39.9095 37.4862 39.8801 38.3979 39.6816 38.6383C39.483 38.8788 39.4317 39.5602 39.5673 40.1528C39.703 40.7453 39.7091 42.966 39.5809 45.0877C39.4226 47.7057 39.5585 49.483 40.0031 50.6176C40.7175 52.4407 41.2461 52.6278 41.4402 51.1266ZM9.10699 56.3478C11.6357 53.8842 12.0934 52.9465 11.558 51.3313L11.0625 49.8359L9.1615 52.2802C7.92005 53.8758 6.74901 54.8821 5.78762 55.1795L4.3149 55.6352L3.71891 53.0551C3.39136 51.6357 3.26636 49.7519 3.44105 48.8686C3.61606 47.9846 3.68849 46.9575 3.60218 46.5856C3.3721 45.5942 5.38918 35.7085 6.76057 31.1075C7.41168 28.9231 7.78946 26.7705 7.60084 26.3245C6.96976 24.8347 5.89542 25.5741 5.27108 27.9277C4.93573 29.191 4.51687 30.2757 4.3408 30.3381C4.16473 30.4005 4.06711 30.6534 4.12435 30.9C4.18158 31.1466 3.82143 32.7335 3.32405 34.4265C2.82667 36.1195 2.48499 37.7859 2.5648 38.1298C2.64461 38.4737 2.55848 38.8021 2.37293 38.8595C1.92676 38.9975 1.31584 43.8861 1.0389 49.5401C0.824743 53.9162 1.33074 55.8196 3.12946 57.4004C4.35814 58.4799 4.88261 58.6115 6.19839 58.1692C7.07105 57.876 8.38015 57.0561 9.10699 56.3478ZM28.9657 44.7758C29.1831 44.3437 29.2984 43.7183 29.2213 43.3862C29.1443 43.0545 29.2552 42.4121 29.4682 41.9591C30.4772 39.812 30.5921 37.1246 29.7961 34.2926L28.987 31.4157L28.124 36.2785C27.4183 40.2565 27.3802 41.543 27.9154 43.351C28.4398 45.1223 28.6484 45.4053 28.9657 44.7758ZM17.8274 42.1083C17.7813 41.9057 18.13 40.909 18.6016 39.8942C20.3717 36.0867 21.1253 33.3334 21.1072 30.7405C21.0702 25.5011 21.0068 25.3396 20.1707 28.3511C19.7304 29.9353 19.1873 31.5251 18.9635 31.8839C18.4949 32.6349 17.644 37.3423 17.8311 38.1485C17.9002 38.4463 17.8102 38.8137 17.6318 38.9658C17.2868 39.2584 17.3572 42.6488 17.7058 42.5409C17.8185 42.506 17.8731 42.3112 17.8274 42.1083ZM36.9741 12.6335C37.0703 9.3633 36.57 7.80309 35.8683 9.18386C35.2552 10.3903 35.3455 11.8615 36.1539 13.8403L36.8862 15.6326L36.9741 12.6335Z" fill="black"/>
</svg>
