<svg width="41" height="38" viewBox="0 0 41 38" fill="none" xmlns="http://www.w3.org/2000/svg">
<g clip-path="url(#clip0_15_17)">
<path d="M30.0676 0H10.1132C4.62493 0 0.120117 4.28254 0.120117 9.53016V28.5C0.120117 33.7175 4.62493 38 10.1132 38H30.0676C35.5876 38 40.0924 33.7175 40.0924 28.4698V9.53016C40.0924 4.28254 35.5876 0 30.0676 0ZM25.4676 19H21.6924V30.7619H16.9338V19H14.3959V14.1746H16.6166V12.1238C16.6166 10.1937 17.6318 7.14762 21.9145 7.14762H25.8166V11.1587H23.0566C22.6124 11.1587 22.0097 11.4302 22.0097 12.3651V14.1746H25.9117L25.4676 19Z" fill="white"/>
</g>
<defs>
<clipPath id="clip0_15_17">
<rect width="39.9722" height="38" fill="white" transform="translate(0.120117)"/>
</clipPath>
</defs>
</svg>
