<svg width="41" height="39" viewBox="0 0 41 39" fill="none" xmlns="http://www.w3.org/2000/svg">
<path d="M12.0427 0.0327641C5.23991 -0.403369 -0.202308 3.52191 0.25123 11.3724V27.0734C-0.20226 33.1794 3.87937 38.8492 12.0427 38.413H28.3694C34.7186 38.8492 40.6143 34.9239 40.1608 27.0734V11.3724C40.6143 3.95805 35.6256 -0.403344 28.3694 0.0327641H12.0427ZM31.0905 7.011C32.0878 7.011 32.9045 7.79639 32.9045 8.75555C32.9045 9.71472 32.0878 10.5001 31.0905 10.5001C30.0931 10.5001 29.2764 9.71472 29.2764 8.75555C29.2764 7.79639 30.0931 7.011 31.0905 7.011ZM20.206 9.62783C25.712 9.62783 30.1834 13.9279 30.1834 19.2229C30.1834 24.5179 25.712 28.818 20.206 28.818C14.7 28.818 10.2286 24.5179 10.2286 19.2229C10.2286 13.9279 14.7 9.62783 20.206 9.62783ZM20.206 11.3724C15.7063 11.3724 12.0427 14.8956 12.0427 19.2229C12.0427 23.5502 15.7063 27.0734 20.206 27.0734C24.7058 27.0734 28.3694 23.5502 28.3694 19.2229C28.3694 14.8956 24.7058 11.3724 20.206 11.3724Z" fill="white"/>
</svg>
