<svg width="41" height="38" viewBox="0 0 41 38" fill="none" xmlns="http://www.w3.org/2000/svg">
<g clip-path="url(#clip0_15_28)">
<path d="M30.0923 0.0161133H10.1854C4.66982 0.0161133 0.168579 4.29526 0.168579 9.53872V28.4935C0.168579 33.7068 4.66982 37.986 10.1854 37.986H30.124C35.6396 37.986 40.1408 33.7068 40.1408 28.4634V9.53872C40.1091 4.29526 35.6079 0.0161133 30.0923 0.0161133ZM30.0606 14.2397C30.0606 14.4507 30.0606 14.6616 30.0606 14.8726C30.0606 21.2009 24.9254 28.4935 15.5108 28.4935C12.6262 28.4935 9.93182 27.71 7.68121 26.3539C8.09329 26.3841 8.47368 26.4142 8.88576 26.4142C11.2949 26.4142 13.4821 25.6608 15.2255 24.365C12.9749 24.3349 11.1047 22.9487 10.439 21.0502C10.756 21.1105 11.073 21.1406 11.39 21.1406C11.8655 21.1406 12.3409 21.0804 12.753 20.9598C10.4707 20.5078 8.72727 18.5792 8.72727 16.2588V16.1985C9.36124 16.5601 10.1854 16.7711 11.0096 16.8012C9.64653 15.9574 8.72727 14.4808 8.72727 12.8234C8.72727 11.9495 8.98086 11.1359 9.42464 10.4126C11.9605 13.3056 15.701 15.2041 19.9487 15.415C19.8536 15.0534 19.8219 14.6918 19.8219 14.3302C19.8219 11.6783 22.1042 9.53872 24.9254 9.53872C26.3835 9.53872 27.7149 10.1113 28.6658 11.0455C29.8387 10.8345 30.9165 10.4428 31.8991 9.8702C31.5187 10.9852 30.6946 11.9194 29.6485 12.5221C30.6946 12.4015 31.6772 12.1604 32.5965 11.7687C31.8991 12.733 31.0433 13.5768 30.0606 14.2397Z" fill="white"/>
</g>
<defs>
<clipPath id="clip0_15_28">
<rect width="39.9722" height="38" fill="white" transform="translate(0.168579)"/>
</clipPath>
</defs>
</svg>
