<svg width="46" height="45" viewBox="0 0 46 45" fill="none" xmlns="http://www.w3.org/2000/svg">
<path d="M34.0297 3.5293H12.1594C6.95669 3.97047 3.28577 7.94106 2.8269 12.794V33.3249C3.28577 39.2646 8.79215 42.3528 12.4631 42.3528H34.1257C38.6184 41.9116 42.7482 38.3822 43.207 33.35V12.3528C42.7482 7.49988 38.6184 3.97047 34.0297 3.5293ZM36.3399 29.8847C35.839 30.5185 34.8428 30.335 34.035 30.333L31.8635 30.3275C31.7283 30.3272 31.5929 30.336 31.4577 30.336C31.1704 30.336 30.5732 30.262 29.8728 29.7998C28.6128 28.9585 27.411 26.8696 26.459 26.8696C26.3914 26.8696 26.3332 26.8787 26.2768 26.8967C25.4487 27.1477 25.199 27.942 25.199 28.9134C25.199 29.2546 24.9492 29.4117 24.277 29.4117H22.4217C20.3449 29.4117 18.3356 29.3647 16.0748 26.9906C13.3355 24.1042 10.739 19.3681 9.90852 17.7878C9.72174 17.4324 9.38238 16.9887 9.6433 16.6835C9.81606 16.4885 10.2198 16.4705 10.3738 16.4705C10.4132 16.4705 10.432 16.4705 10.432 16.4705C10.432 16.4705 10.432 16.4705 10.432 16.4705H13.609C14.0539 16.4705 14.5301 16.4631 14.8936 16.7196C15.1989 16.9378 15.3179 17.329 15.4989 17.6577C15.7644 18.1398 16.2018 18.9215 16.7001 19.7617C18.0746 22.0347 18.8163 22.793 19.344 22.793C19.4304 22.793 19.5168 22.775 19.6031 22.728C19.9839 22.5275 20.127 21.6394 20.1732 20.7743C20.2381 19.5579 20.5005 18.1558 19.7571 17.1908C19.4398 16.7666 18.8351 16.6456 18.5647 16.6095C18.3544 16.5806 18.6999 16.1004 19.1618 15.8783C19.7571 15.6021 20.7486 15.5461 21.941 15.5461H22.5175C23.6423 15.5642 23.6704 15.6761 24.1136 15.7772C25.4393 16.0823 24.9886 17.2739 24.9886 20.1318C24.9886 21.0454 24.814 22.3308 25.4975 22.7659C25.5464 22.793 25.6121 22.8111 25.6985 22.8111C26.1416 22.8111 27.0937 22.2658 28.6128 19.7978C29.1541 18.898 29.6176 18.0019 29.8808 17.474C30.0387 17.1575 30.1724 16.7975 30.4774 16.6185C30.6896 16.4976 30.6896 16.4976 30.9676 16.4976H30.9976C31.3037 16.4976 34.3626 16.4705 35.0349 16.4705H35.1118C35.7559 16.4705 36.3418 16.4795 36.4488 16.8586C36.6028 17.431 35.9775 18.4582 34.3326 20.5832C31.621 24.0694 31.3149 23.8095 33.5645 25.8243C35.7184 27.7471 36.1597 28.6823 36.2366 28.8014C36.5583 29.314 36.5203 29.6564 36.3399 29.8847Z" fill="white"/>
</svg>
